<svg width="21" height="18" viewBox="0 0 21 18" fill="none" xmlns="http://www.w3.org/2000/svg">
<path fill-rule="evenodd" clip-rule="evenodd" d="M3.70448 15.7419C3.86182 15.8992 4.06226 16.0063 4.28046 16.0497C4.49867 16.0931 4.72483 16.0708 4.93038 15.9857C5.13592 15.9005 5.31161 15.7564 5.43523 15.5714C5.55885 15.3864 5.62486 15.169 5.62491 14.9465V12.6964H12.3751C12.6735 12.6964 12.9596 12.5779 13.1706 12.3669C13.3816 12.1559 13.5001 11.8698 13.5001 11.5714C13.5001 11.273 13.3816 10.9869 13.1706 10.7759C12.9596 10.5649 12.6735 10.4464 12.3751 10.4464H5.62491L5.62491 8.19632C5.62486 7.97384 5.55885 7.75638 5.43523 7.57141C5.31161 7.38645 5.13592 7.24228 4.93038 7.15715C4.72483 7.07202 4.49867 7.04974 4.28046 7.09313C4.06226 7.13652 3.86182 7.24363 3.70448 7.40092L0.329393 10.776C0.118483 10.987 0 11.2731 0 11.5714C0 11.8697 0.118483 12.1558 0.329393 12.3668L3.70448 15.7419Z" fill="#03396C"/>
<path fill-rule="evenodd" clip-rule="evenodd" d="M5.68192 16.6689C5.78754 16.8227 5.90769 16.9676 6.04147 17.1014C6.61687 17.6767 7.39727 18 8.211 18H17.5032C18.3169 18 19.0973 17.6767 19.6727 17.1014C20.2481 16.526 20.5714 15.7456 20.5714 14.9318V8.18182H15.4578C14.644 8.18182 13.8636 7.85856 13.2882 7.28317C12.7128 6.70777 12.3896 5.92737 12.3896 5.11364V0H8.211C7.39727 0 6.61687 0.323254 6.04147 0.89865C5.46608 1.47405 5.14282 2.25445 5.14282 3.06818V6.20854C5.1956 6.22561 5.24782 6.24482 5.29933 6.26616C5.68105 6.42426 6.00732 6.69198 6.2369 7.03549C6.46649 7.37899 6.58907 7.78285 6.58916 8.19601V9.48199H12.3751C12.9292 9.48199 13.4606 9.70212 13.8524 10.0939C14.2442 10.4858 14.4644 11.0172 14.4644 11.5713C14.4644 12.1254 14.2442 12.6569 13.8524 13.0487C13.4606 13.4405 12.9292 13.6606 12.3751 13.6606H6.58916V14.9464C6.58907 15.3596 6.46649 15.7636 6.2369 16.1071C6.08857 16.3291 5.89986 16.5194 5.68192 16.6689ZM13.6659 0H13.6168V5.11364C13.6168 5.60188 13.8108 6.07012 14.156 6.41536C14.5013 6.76059 14.9695 6.95455 15.4578 6.95455H20.5714V6.90546L13.6659 0Z" fill="#03396C"/>
</svg>
