<svg width="13" height="15" viewBox="0 0 13 15" fill="none" xmlns="http://www.w3.org/2000/svg">
<path d="M0.599348 8.14073C0.52049 8.06176 0.476233 7.95469 0.476312 7.84309C0.476391 7.73149 0.5208 7.62448 0.59977 7.54562L6.35479 1.79813C7.06511 1.08789 8.02849 0.6889 9.033 0.688946C10.0375 0.688993 11.0008 1.08807 11.7111 1.79838C12.4214 2.50869 12.8204 3.47206 12.8203 4.47655C12.8203 5.48103 12.4212 6.44436 11.7109 7.15461L4.74765 14.2146C4.50048 14.463 4.20673 14.6602 3.88323 14.795C3.55974 14.9298 3.21283 14.9995 2.86238 15C2.51193 15.0005 2.16481 14.932 1.8409 14.7982C1.51698 14.6644 1.22263 14.4681 0.974681 14.2204C0.726736 13.9728 0.530069 13.6786 0.395938 13.3549C0.261806 13.0311 0.192845 12.6841 0.192999 12.3336C0.193153 11.9832 0.262421 11.6362 0.396836 11.3126C0.531252 10.9889 0.728176 10.695 0.976338 10.4475L7.93962 3.3875C8.08242 3.24253 8.25249 3.12723 8.44003 3.04825C8.62757 2.96926 8.82888 2.92816 9.03238 2.92729C9.23587 2.92643 9.43752 2.96582 9.62573 3.04321C9.81394 3.12059 9.98498 3.23444 10.129 3.3782C10.273 3.52195 10.3872 3.69278 10.4649 3.88084C10.5427 4.06889 10.5824 4.27047 10.582 4.47396C10.5815 4.67745 10.5407 4.87884 10.4621 5.06653C10.3835 5.25421 10.2685 5.42449 10.1238 5.56756L4.2832 11.505C4.20492 11.5846 4.09824 11.6298 3.98663 11.6307C3.87502 11.6317 3.76761 11.5882 3.68804 11.5099C3.60847 11.4316 3.56326 11.325 3.56234 11.2134C3.56143 11.1017 3.60489 10.9943 3.68317 10.9148L9.52621 4.97476C9.5931 4.91017 9.64648 4.83291 9.68324 4.74749C9.72 4.66208 9.73941 4.5702 9.74033 4.47722C9.74126 4.38423 9.72368 4.29199 9.68863 4.20586C9.65357 4.11973 9.60174 4.04143 9.53615 3.97551C9.47055 3.9096 9.3925 3.85739 9.30654 3.82191C9.22058 3.78644 9.12843 3.76841 9.03544 3.76889C8.94244 3.76936 8.85048 3.78831 8.76488 3.82466C8.67928 3.861 8.60177 3.914 8.53684 3.98058L1.57356 11.0405C1.40368 11.2096 1.2688 11.4106 1.17664 11.6319C1.08449 11.8531 1.03686 12.0904 1.03649 12.3301C1.03612 12.5698 1.08301 12.8072 1.17448 13.0288C1.26595 13.2504 1.40021 13.4517 1.56957 13.6213C1.73893 13.791 1.94007 13.9255 2.16149 14.0174C2.38291 14.1092 2.62026 14.1565 2.85997 14.1565C3.09967 14.1565 3.33703 14.1093 3.55846 14.0175C3.77989 13.9257 3.98105 13.7911 4.15043 13.6215L11.1137 6.56153C11.3874 6.28814 11.6045 5.96351 11.7528 5.60619C11.901 5.24887 11.9774 4.86585 11.9776 4.47901C11.9778 4.09216 11.9018 3.70907 11.7539 3.3516C11.6061 2.99412 11.3892 2.66927 11.1158 2.39559C10.8424 2.12191 10.5178 1.90476 10.1605 1.75654C9.80316 1.60832 9.42013 1.53193 9.03328 1.53173C8.64643 1.53153 8.26333 1.60753 7.90585 1.75538C7.54838 1.90324 7.22352 2.12006 6.94984 2.39345L1.19461 8.14108C1.15551 8.18014 1.10909 8.21112 1.05802 8.23224C1.00695 8.25337 0.95221 8.26422 0.89694 8.26419C0.84167 8.26415 0.786949 8.25324 0.7359 8.23205C0.684851 8.21087 0.638474 8.17984 0.599419 8.14073H0.599348Z" fill="white"/>
</svg>
