<svg width="20" height="18" viewBox="0 0 20 18" fill="none" xmlns="http://www.w3.org/2000/svg">
<path fill-rule="evenodd" clip-rule="evenodd" d="M3.45545 0.972727C3.57708 0.68432 3.78108 0.438198 4.04191 0.265173C4.30274 0.0921478 4.60882 -9.24738e-05 4.92182 6.95672e-08H15.08C15.7182 6.95672e-08 16.2955 0.381818 16.5445 0.97L19.9455 8.99545C19.9818 9.07909 20 9.17 20 9.26182V16.1364C20 16.5583 19.8324 16.963 19.534 17.2613C19.2357 17.5597 18.831 17.7273 18.4091 17.7273H1.59091C1.16897 17.7273 0.76432 17.5597 0.465966 17.2613C0.167613 16.963 0 16.5583 0 16.1364V9.31818C0 9.22727 0.0181818 9.13727 0.0536364 9.05364L3.45455 0.973637L3.45545 0.972727ZM4.92182 1.36364C4.87716 1.36371 4.8335 1.37694 4.79632 1.40168C4.75913 1.42642 4.73006 1.46156 4.71273 1.50273L1.70909 8.63636H6.36364C6.48282 8.63633 6.59993 8.66753 6.70329 8.72687C6.80666 8.78621 6.89266 8.87161 6.95273 8.97454L8.34546 11.3636H11.6527L13.0464 8.97454C13.1058 8.87266 13.1907 8.78795 13.2926 8.72867C13.3946 8.6694 13.5102 8.63759 13.6282 8.63636L18.2918 8.59L15.2882 1.50182C15.2707 1.46082 15.2416 1.42587 15.2044 1.4013C15.1672 1.37673 15.1237 1.36363 15.0791 1.36364H4.92182ZM18.6364 9.95L14.03 9.99545L12.6345 12.3891C12.5745 12.492 12.4885 12.5774 12.3851 12.6368C12.2817 12.6961 12.1646 12.7273 12.0455 12.7273H7.95455C7.83536 12.7273 7.71825 12.6961 7.61489 12.6368C7.51153 12.5774 7.42552 12.492 7.36546 12.3891L5.97273 10H1.36364V16.1364C1.36364 16.2618 1.46545 16.3636 1.59091 16.3636H18.4091C18.4694 16.3636 18.5272 16.3397 18.5698 16.2971C18.6124 16.2544 18.6364 16.1966 18.6364 16.1364V9.95Z" fill="white"/>
</svg>
