<svg width="18" height="18" viewBox="0 0 18 18" fill="none" xmlns="http://www.w3.org/2000/svg">
<circle cx="9" cy="9" r="9" fill="#03396C" fill-opacity="0.5"/>
<path fill-rule="evenodd" clip-rule="evenodd" d="M6.7009 4.00548C6.23156 4.47482 5.96788 5.11138 5.96788 5.77513C5.96788 6.43889 6.23156 7.07545 6.7009 7.54479C7.17024 8.01413 7.80681 8.27781 8.47056 8.27781C9.13431 8.27781 9.77087 8.01413 10.2402 7.54479C10.7096 7.07545 10.9732 6.43889 10.9732 5.77513C10.9732 5.11138 10.7096 4.47482 10.2402 4.00548C9.77087 3.53613 9.13431 3.27246 8.47056 3.27246C7.80681 3.27246 7.17024 3.53613 6.7009 4.00548ZM7.75226 4.04101C7.97999 3.94668 8.22407 3.89813 8.47056 3.89813C8.96837 3.89813 9.4458 4.09588 9.7978 4.44789C10.1498 4.7999 10.3476 5.27732 10.3476 5.77513C10.3476 6.27295 10.1498 6.75037 9.7978 7.10238C9.4458 7.45438 8.96837 7.65214 8.47056 7.65214C8.22407 7.65214 7.97999 7.60359 7.75226 7.50926C7.52453 7.41493 7.31761 7.27667 7.14332 7.10238C6.96902 6.92808 6.83076 6.72116 6.73643 6.49343C6.6421 6.2657 6.59355 6.02163 6.59355 5.77513C6.59355 5.52864 6.6421 5.28456 6.73643 5.05684C6.83076 4.82911 6.96902 4.62219 7.14332 4.44789C7.31761 4.2736 7.52453 4.13534 7.75226 4.04101ZM5.34779 8.90395C4.6558 8.90395 4.09082 9.45892 4.09082 10.1553C4.09082 11.2127 4.612 12.0116 5.42662 12.531C6.22873 13.0421 7.30988 13.2836 8.4705 13.2836C8.64661 13.2836 8.82088 13.2781 8.99263 13.2669C8.82514 13.0799 8.6779 12.8759 8.55433 12.6575C8.52648 12.6578 8.49853 12.658 8.4705 12.658C7.38496 12.658 6.4327 12.4302 5.76323 12.0029C5.10565 11.5843 4.71649 10.9743 4.71649 10.1553C4.71649 9.80929 4.99679 9.52962 5.34779 9.52962H11.5988C11.7648 9.52962 11.9239 9.59554 12.0413 9.71288C12.1586 9.83021 12.2245 9.98935 12.2245 10.1553L12.2245 10.1667C12.4374 10.1828 12.6459 10.2153 12.8484 10.2628C12.8496 10.2273 12.8502 10.1914 12.8502 10.1553C12.8502 9.82341 12.7183 9.50513 12.4837 9.27046C12.249 9.03579 11.9307 8.90395 11.5988 8.90395H5.34779ZM14.6934 12.2258C14.1632 11.3638 13.1137 10.7806 11.9119 10.7806C10.7101 10.7806 9.66027 11.3642 9.13041 12.2259C9.10804 12.2628 9.09639 12.3035 9.09639 12.3448C9.09639 12.3861 9.10804 12.4269 9.13041 12.4637C9.66056 13.3257 10.7101 13.909 11.9119 13.909C13.1137 13.909 14.1635 13.3253 14.6934 12.4636C14.7158 12.4268 14.7274 12.3861 14.7274 12.3447C14.7274 12.3034 14.7158 12.2627 14.6934 12.2258ZM11.9119 13.5179C11.6335 13.5179 11.3613 13.4491 11.1298 13.3202C10.8983 13.1913 10.7179 13.0081 10.6113 12.7937C10.5048 12.5794 10.4769 12.3435 10.5312 12.1159C10.5855 11.8884 10.7196 11.6793 10.9165 11.5153C11.1133 11.3512 11.3642 11.2395 11.6373 11.1942C11.9103 11.1489 12.1934 11.1722 12.4506 11.261C12.7079 11.3498 12.9277 11.5001 13.0824 11.693C13.2371 11.886 13.3197 12.1128 13.3197 12.3448C13.3197 12.4989 13.2834 12.6515 13.2127 12.7938C13.142 12.9362 13.0383 13.0655 12.9075 13.1745C12.7768 13.2834 12.6216 13.3698 12.4507 13.4288C12.2799 13.4877 12.0968 13.518 11.9119 13.5179ZM11.9119 11.5627C11.8281 11.5637 11.7449 11.5741 11.6645 11.5936C11.7308 11.6687 11.7626 11.7611 11.7541 11.854C11.7457 11.947 11.6976 12.0343 11.6185 12.1003C11.5394 12.1662 11.4345 12.2063 11.323 12.2133C11.2114 12.2204 11.1005 12.1938 11.0104 12.1386C10.9591 12.2961 10.9684 12.4631 11.0369 12.616C11.1055 12.7689 11.2298 12.9001 11.3925 12.991C11.5551 13.0819 11.7479 13.1281 11.9437 13.1229C12.1394 13.1177 12.3283 13.0616 12.4838 12.9623C12.6392 12.8629 12.7534 12.7255 12.8102 12.5693C12.867 12.4131 12.8636 12.246 12.8005 12.0915C12.7373 11.937 12.6176 11.8028 12.4582 11.708C12.2988 11.6131 12.1078 11.5623 11.9119 11.5627Z" fill="white"/>
</svg>
