<svg width="18" height="18" viewBox="0 0 18 18" fill="none" xmlns="http://www.w3.org/2000/svg">
<circle cx="9" cy="9" r="9" fill="#03396C" fill-opacity="0.5"/>
<path d="M4.07128 7.00145H6.4854C6.61824 7.00145 6.74563 6.94877 6.83956 6.855C6.93349 6.76124 6.98626 6.63406 6.98626 6.50145C6.98626 6.36884 6.93349 6.24167 6.83956 6.1479C6.74563 6.05413 6.61824 6.00145 6.4854 6.00145H4.98284C5.68484 5.06748 6.69215 4.40823 7.83007 4.13804C8.96798 3.86785 10.1647 4.00376 11.2128 4.5222C12.2608 5.04064 13.0941 5.90891 13.568 6.97643C14.0419 8.04395 14.1267 9.24339 13.8075 10.3667C13.4883 11.4901 12.7853 12.4665 11.8205 13.1266C10.8557 13.7867 9.68992 14.089 8.52528 13.9808C7.36064 13.8727 6.27064 13.3611 5.44429 12.5347C4.61795 11.7083 4.10739 10.6193 4.00116 9.45645C3.99799 9.38904 3.98119 9.32297 3.95176 9.26221C3.92233 9.20146 3.88088 9.14728 3.82992 9.10294C3.77896 9.05861 3.71954 9.02503 3.65523 9.00423C3.59092 8.98343 3.52306 8.97584 3.45574 8.98192C3.38841 8.988 3.32302 9.00762 3.26349 9.0396C3.20397 9.07158 3.15154 9.11526 3.10938 9.16801C3.06721 9.22075 3.03618 9.28148 3.01815 9.34652C3.00012 9.41155 2.99546 9.47956 3.00446 9.54645C3.13043 10.9215 3.72762 12.2111 4.69529 13.1977C5.66296 14.1843 6.94189 14.8075 8.31633 14.9622C9.69077 15.1169 11.0766 14.7936 12.24 14.0469C13.4035 13.3002 14.2733 12.1757 14.7029 10.8632C15.1324 9.5507 15.0953 8.13046 14.5978 6.84207C14.1004 5.55368 13.173 4.476 11.9721 3.79083C10.7713 3.10565 9.37047 2.85492 8.00598 3.08093C6.64148 3.30694 5.39683 3.99585 4.48198 5.03145V4.00146C4.48198 3.86885 4.42921 3.74167 4.33528 3.6479C4.24135 3.55413 4.11396 3.50146 3.98113 3.50146C3.84829 3.50146 3.7209 3.55413 3.62697 3.6479C3.53304 3.74167 3.48027 3.86885 3.48027 4.00146V6.50145C3.48027 6.63406 3.53304 6.76124 3.62697 6.855C3.7209 6.94877 3.84829 7.00145 3.98113 7.00145H4.07128ZM8.48882 6.00145C8.62165 6.00145 8.74905 6.05413 8.84298 6.1479C8.93691 6.24167 8.98967 6.36884 8.98967 6.50145V9.00145H10.4922C10.6251 9.00145 10.7525 9.05412 10.8464 9.14789C10.9403 9.24166 10.9931 9.36884 10.9931 9.50145C10.9931 9.63405 10.9403 9.76123 10.8464 9.855C10.7525 9.94877 10.6251 10.0014 10.4922 10.0014H8.48882C8.35599 10.0014 8.22859 9.94877 8.13466 9.855C8.04073 9.76123 7.98796 9.63405 7.98796 9.50145V6.50145C7.98796 6.36884 8.04073 6.24167 8.13466 6.1479C8.22859 6.05413 8.35599 6.00145 8.48882 6.00145Z" fill="white"/>
</svg>
