<svg width="18" height="18" viewBox="0 0 18 18" fill="none" xmlns="http://www.w3.org/2000/svg">
<path d="M9 18C13.9706 18 18 13.9706 18 9C18 4.02944 13.9706 0 9 0C4.02944 0 0 4.02944 0 9C0 13.9706 4.02944 18 9 18Z" fill="#03396C" fill-opacity="0.5"/>
<path fill-rule="evenodd" clip-rule="evenodd" d="M9.36598 5.33492C9.1512 5.12013 8.80296 5.12013 8.58817 5.33492C8.37338 5.54971 8.37338 5.89795 8.58817 6.11274L10.9025 8.42708H5.72383C5.42007 8.42708 5.17383 8.67332 5.17383 8.97708C5.17383 9.28083 5.42007 9.52708 5.72383 9.52708H10.9026L8.58817 11.8415C8.37338 12.0562 8.37338 12.4045 8.58817 12.6193C8.80296 12.8341 9.1512 12.8341 9.36598 12.6193L12.6188 9.36642L12.6193 9.36601M12.6644 8.63918C12.6492 8.6197 12.6327 8.60128 12.6151 8.58403L9.36598 5.33492M12.6644 8.63918C12.6868 8.6679 12.706 8.69833 12.7219 8.72998L12.6644 8.63918ZM12.7333 9.19994C12.7636 9.13182 12.7804 9.05641 12.7804 8.97708C12.7804 8.88821 12.7593 8.80427 12.7219 8.72998M12.7333 9.19994C12.708 9.25726 12.6723 9.31113 12.6264 9.35875L12.7333 9.19994Z" fill="white"/>
</svg>
