<svg width="18" height="18" viewBox="0 0 18 18" fill="none" xmlns="http://www.w3.org/2000/svg">
<circle cx="9" cy="9" r="9" fill="#03396C" fill-opacity="0.5"/>
<path fill-rule="evenodd" clip-rule="evenodd" d="M6.11615 5.33883C5.90137 5.12404 5.55313 5.12404 5.33834 5.33883C5.12355 5.55361 5.12355 5.90185 5.33834 6.11664L8.22216 9.00046L5.33834 11.8843C5.12355 12.0991 5.12355 12.4473 5.33834 12.6621C5.55313 12.8769 5.90137 12.8769 6.11615 12.6621L8.99997 9.77828L11.8838 12.6621C12.0986 12.8769 12.4468 12.8769 12.6616 12.6621C12.8764 12.4473 12.8764 12.0991 12.6616 11.8843L9.77779 9.00046L12.6616 6.11664C12.8764 5.90185 12.8764 5.55361 12.6616 5.33883C12.4468 5.12404 12.0986 5.12404 11.8838 5.33883L8.99997 8.22264L6.11615 5.33883Z" fill="white"/>
</svg>
