<svg width="18" height="18" viewBox="0 0 18 18" fill="none" xmlns="http://www.w3.org/2000/svg">
<circle cx="9" cy="9" r="9" fill="#03396C" fill-opacity="0.5"/>
<path fill-rule="evenodd" clip-rule="evenodd" d="M10.521 4.11299C10.6863 4.05627 10.8694 4.11083 10.9767 4.24878L13.8403 7.9306C13.9552 8.07832 13.9552 8.28518 13.8403 8.43291L10.9767 12.1147C10.8694 12.2527 10.6863 12.3072 10.521 12.2505C10.3557 12.1938 10.2447 12.0383 10.2447 11.8636V10.2314C8.0443 10.2773 6.98708 10.6948 6.45596 11.149C5.95105 11.5807 5.8591 12.0882 5.76272 12.6202C5.7545 12.6656 5.74624 12.7112 5.73769 12.7569C5.69975 12.9599 5.51657 13.1027 5.31052 13.0901C5.10447 13.0774 4.94012 12.9133 4.92727 12.7072C4.85714 11.5831 4.96242 9.95412 5.75656 8.59118C6.52719 7.26857 7.91507 6.25164 10.2447 6.14547V4.49994C10.2447 4.32517 10.3557 4.16971 10.521 4.11299ZM11.0628 5.69225V6.54539C11.0628 6.77132 10.8797 6.95448 10.6537 6.95448C8.34176 6.95448 7.11935 7.87746 6.46349 9.00308C6.17945 9.49057 5.99548 10.0271 5.88249 10.5635C5.89619 10.5513 5.91011 10.5392 5.92425 10.5271C6.7146 9.85131 8.11676 9.40903 10.6537 9.40903C10.8797 9.40903 11.0628 9.59218 11.0628 9.81812V10.6713L12.9991 8.18175L11.0628 5.69225Z" fill="white"/>
</svg>
