<svg width="10" height="10" viewBox="0 0 10 10" fill="none" xmlns="http://www.w3.org/2000/svg">
<path d="M1.78571 0C1.31211 0 0.85791 0.188137 0.523024 0.523024C0.188137 0.85791 0 1.31211 0 1.78571V2.14286H10V1.78571C10 1.31211 9.81186 0.85791 9.47698 0.523024C9.14209 0.188137 8.68789 0 8.21429 0H1.78571ZM10 2.85714H0V8.21429C0 8.68789 0.188137 9.14209 0.523024 9.47698C0.85791 9.81186 1.31211 10 1.78571 10H8.21429C8.68789 10 9.14209 9.81186 9.47698 9.47698C9.81186 9.14209 10 8.68789 10 8.21429V2.85714ZM3.57143 5C3.57143 5.18944 3.49617 5.37112 3.36222 5.50508C3.22826 5.63903 3.04658 5.71429 2.85714 5.71429C2.6677 5.71429 2.48602 5.63903 2.35207 5.50508C2.21811 5.37112 2.14286 5.18944 2.14286 5C2.14286 4.81056 2.21811 4.62888 2.35207 4.49492C2.48602 4.36097 2.6677 4.28571 2.85714 4.28571C3.04658 4.28571 3.22826 4.36097 3.36222 4.49492C3.49617 4.62888 3.57143 4.81056 3.57143 5ZM2.85714 7.85714C2.6677 7.85714 2.48602 7.78189 2.35207 7.64793C2.21811 7.51398 2.14286 7.3323 2.14286 7.14286C2.14286 6.95342 2.21811 6.77174 2.35207 6.63778C2.48602 6.50383 2.6677 6.42857 2.85714 6.42857C3.04658 6.42857 3.22826 6.50383 3.36222 6.63778C3.49617 6.77174 3.57143 6.95342 3.57143 7.14286C3.57143 7.3323 3.49617 7.51398 3.36222 7.64793C3.22826 7.78189 3.04658 7.85714 2.85714 7.85714ZM5.71429 5C5.71429 5.18944 5.63903 5.37112 5.50508 5.50508C5.37112 5.63903 5.18944 5.71429 5 5.71429C4.81056 5.71429 4.62888 5.63903 4.49492 5.50508C4.36097 5.37112 4.28571 5.18944 4.28571 5C4.28571 4.81056 4.36097 4.62888 4.49492 4.49492C4.62888 4.36097 4.81056 4.28571 5 4.28571C5.18944 4.28571 5.37112 4.36097 5.50508 4.49492C5.63903 4.62888 5.71429 4.81056 5.71429 5ZM5 7.85714C4.81056 7.85714 4.62888 7.78189 4.49492 7.64793C4.36097 7.51398 4.28571 7.3323 4.28571 7.14286C4.28571 6.95342 4.36097 6.77174 4.49492 6.63778C4.62888 6.50383 4.81056 6.42857 5 6.42857C5.18944 6.42857 5.37112 6.50383 5.50508 6.63778C5.63903 6.77174 5.71429 6.95342 5.71429 7.14286C5.71429 7.3323 5.63903 7.51398 5.50508 7.64793C5.37112 7.78189 5.18944 7.85714 5 7.85714ZM7.85714 5C7.85714 5.18944 7.78189 5.37112 7.64793 5.50508C7.51398 5.63903 7.3323 5.71429 7.14286 5.71429C6.95342 5.71429 6.77174 5.63903 6.63778 5.50508C6.50383 5.37112 6.42857 5.18944 6.42857 5C6.42857 4.81056 6.50383 4.62888 6.63778 4.49492C6.77174 4.36097 6.95342 4.28571 7.14286 4.28571C7.3323 4.28571 7.51398 4.36097 7.64793 4.49492C7.78189 4.62888 7.85714 4.81056 7.85714 5Z" fill="white"/>
</svg>
