<svg width="28" height="29" viewBox="0 0 28 29" fill="none" xmlns="http://www.w3.org/2000/svg">
<path d="M7 1.82178C7 1.58971 6.90781 1.36715 6.74372 1.20306C6.57962 1.03896 6.35706 0.946777 6.125 0.946777C5.89294 0.946777 5.67038 1.03896 5.50628 1.20306C5.34219 1.36715 5.25 1.58971 5.25 1.82178V2.69678H3.5C2.57174 2.69678 1.6815 3.06553 1.02513 3.7219C0.368749 4.37828 0 5.26852 0 6.19678L0 7.94678H28V6.19678C28 5.26852 27.6313 4.37828 26.9749 3.7219C26.3185 3.06553 25.4283 2.69678 24.5 2.69678H22.75V1.82178C22.75 1.58971 22.6578 1.36715 22.4937 1.20306C22.3296 1.03896 22.1071 0.946777 21.875 0.946777C21.6429 0.946777 21.4204 1.03896 21.2563 1.20306C21.0922 1.36715 21 1.58971 21 1.82178V2.69678H7V1.82178Z" fill="white"/>
<path d="M28 25.4468V9.69678H0V25.4468C0 26.375 0.368749 27.2653 1.02513 27.9216C1.6815 28.578 2.57174 28.9468 3.5 28.9468H24.5C25.4283 28.9468 26.3185 28.578 26.9749 27.9216C27.6313 27.2653 28 26.375 28 25.4468Z" fill="white"/>
</svg>
