<svg width="12" height="13" viewBox="0 0 12 13" fill="none" xmlns="http://www.w3.org/2000/svg">
<path d="M0.857143 12.136H10.2857V5.27888H0.857143V12.136ZM3.42857 3.99316V2.06459C3.42857 2.00209 3.40848 1.95075 3.3683 1.91057C3.32812 1.8704 3.27679 1.85031 3.21429 1.85031H2.78571C2.72321 1.85031 2.67188 1.8704 2.6317 1.91057C2.59152 1.95075 2.57143 2.00209 2.57143 2.06459V3.99316C2.57143 4.05566 2.59152 4.107 2.6317 4.14718C2.67188 4.18736 2.72321 4.20745 2.78571 4.20745H3.21429C3.27679 4.20745 3.32812 4.18736 3.3683 4.14718C3.40848 4.107 3.42857 4.05566 3.42857 3.99316ZM8.57143 3.99316V2.06459C8.57143 2.00209 8.55134 1.95075 8.51116 1.91057C8.47098 1.8704 8.41964 1.85031 8.35714 1.85031H7.92857C7.86607 1.85031 7.81473 1.8704 7.77455 1.91057C7.73438 1.95075 7.71429 2.00209 7.71429 2.06459V3.99316C7.71429 4.05566 7.73438 4.107 7.77455 4.14718C7.81473 4.18736 7.86607 4.20745 7.92857 4.20745H8.35714C8.41964 4.20745 8.47098 4.18736 8.51116 4.14718C8.55134 4.107 8.57143 4.05566 8.57143 3.99316ZM11.1429 3.56459V12.136C11.1429 12.3682 11.058 12.5691 10.8884 12.7387C10.7188 12.9083 10.5179 12.9932 10.2857 12.9932H0.857143C0.625 12.9932 0.424107 12.9083 0.254464 12.7387C0.0848214 12.5691 0 12.3682 0 12.136V3.56459C0 3.33245 0.0848214 3.13156 0.254464 2.96191C0.424107 2.79227 0.625 2.70745 0.857143 2.70745H1.71429V2.06459C1.71429 1.76995 1.8192 1.51772 2.02902 1.3079C2.23884 1.09807 2.49107 0.993164 2.78571 0.993164H3.21429C3.50893 0.993164 3.76116 1.09807 3.97098 1.3079C4.1808 1.51772 4.28571 1.76995 4.28571 2.06459V2.70745H6.85714V2.06459C6.85714 1.76995 6.96205 1.51772 7.17188 1.3079C7.3817 1.09807 7.63393 0.993164 7.92857 0.993164H8.35714C8.65179 0.993164 8.90402 1.09807 9.11384 1.3079C9.32366 1.51772 9.42857 1.76995 9.42857 2.06459V2.70745H10.2857C10.5179 2.70745 10.7188 2.79227 10.8884 2.96191C11.058 3.13156 11.1429 3.33245 11.1429 3.56459Z" fill="white"/>
</svg>
