<svg width="14" height="14" viewBox="0 0 14 14" fill="none" xmlns="http://www.w3.org/2000/svg">
<path d="M12.25 4.95833V10.3542C12.25 10.857 12.0503 11.3392 11.6947 11.6947C11.3392 12.0503 10.857 12.25 10.3542 12.25H3.64583C3.14303 12.25 2.66081 12.0503 2.30528 11.6947C1.94974 11.3392 1.75 10.857 1.75 10.3542V4.95833H12.25ZM4.22917 8.75C4.03578 8.75 3.85031 8.82682 3.71357 8.96357C3.57682 9.10031 3.5 9.28578 3.5 9.47917C3.5 9.67255 3.57682 9.85802 3.71357 9.99477C3.85031 10.1315 4.03578 10.2083 4.22917 10.2083C4.42255 10.2083 4.60802 10.1315 4.74477 9.99477C4.88151 9.85802 4.95833 9.67255 4.95833 9.47917C4.95833 9.28578 4.88151 9.10031 4.74477 8.96357C4.60802 8.82682 4.42255 8.75 4.22917 8.75V8.75ZM7 8.75C6.80661 8.75 6.62115 8.82682 6.4844 8.96357C6.34766 9.10031 6.27083 9.28578 6.27083 9.47917C6.27083 9.67255 6.34766 9.85802 6.4844 9.99477C6.62115 10.1315 6.80661 10.2083 7 10.2083C7.19339 10.2083 7.37885 10.1315 7.5156 9.99477C7.65234 9.85802 7.72917 9.67255 7.72917 9.47917C7.72917 9.28578 7.65234 9.10031 7.5156 8.96357C7.37885 8.82682 7.19339 8.75 7 8.75V8.75ZM4.22917 6.125C4.03578 6.125 3.85031 6.20182 3.71357 6.33857C3.57682 6.47531 3.5 6.66078 3.5 6.85417C3.5 7.04755 3.57682 7.23302 3.71357 7.36977C3.85031 7.50651 4.03578 7.58333 4.22917 7.58333C4.42255 7.58333 4.60802 7.50651 4.74477 7.36977C4.88151 7.23302 4.95833 7.04755 4.95833 6.85417C4.95833 6.66078 4.88151 6.47531 4.74477 6.33857C4.60802 6.20182 4.42255 6.125 4.22917 6.125V6.125ZM7 6.125C6.80661 6.125 6.62115 6.20182 6.4844 6.33857C6.34766 6.47531 6.27083 6.66078 6.27083 6.85417C6.27083 7.04755 6.34766 7.23302 6.4844 7.36977C6.62115 7.50651 6.80661 7.58333 7 7.58333C7.19339 7.58333 7.37885 7.50651 7.5156 7.36977C7.65234 7.23302 7.72917 7.04755 7.72917 6.85417C7.72917 6.66078 7.65234 6.47531 7.5156 6.33857C7.37885 6.20182 7.19339 6.125 7 6.125V6.125ZM9.77083 6.125C9.57745 6.125 9.39198 6.20182 9.25523 6.33857C9.11849 6.47531 9.04167 6.66078 9.04167 6.85417C9.04167 7.04755 9.11849 7.23302 9.25523 7.36977C9.39198 7.50651 9.57745 7.58333 9.77083 7.58333C9.96422 7.58333 10.1497 7.50651 10.2864 7.36977C10.4232 7.23302 10.5 7.04755 10.5 6.85417C10.5 6.66078 10.4232 6.47531 10.2864 6.33857C10.1497 6.20182 9.96422 6.125 9.77083 6.125ZM10.3542 1.75C10.857 1.75 11.3392 1.94974 11.6947 2.30528C12.0503 2.66081 12.25 3.14303 12.25 3.64583V4.08333H1.75V3.64583C1.75 3.14303 1.94974 2.66081 2.30528 2.30528C2.66081 1.94974 3.14303 1.75 3.64583 1.75H10.3542Z" fill="#03396C"/>
</svg>
