<svg width="20" height="21" viewBox="0 0 20 21" fill="none" xmlns="http://www.w3.org/2000/svg">
<path d="M0.130397 9.69397L0.260706 9.76827C0.316236 9.67087 0.390487 9.58542 0.479182 9.51684C0.567877 9.44825 0.669263 9.3979 0.777503 9.36866C0.885742 9.33943 0.998695 9.3319 1.10986 9.34651C1.22102 9.36111 1.32819 9.39757 1.4252 9.45377L1.42583 9.45413L9.92583 14.3241L10.0001 14.3667L10.0745 14.3244L18.5745 9.49439L18.6504 9.45126V9.41524C18.7266 9.38066 18.8077 9.35745 18.8909 9.34651C19.0021 9.3319 19.1151 9.33943 19.2233 9.36866C19.3315 9.3979 19.4329 9.44825 19.5216 9.51684C19.6102 9.58536 19.6844 9.67073 19.74 9.76804C19.8508 9.96321 19.8799 10.1943 19.821 10.4109C19.7621 10.6274 19.6199 10.8119 19.4255 10.924L19.4254 10.9241L10.4254 16.1241C10.2962 16.1987 10.1496 16.238 10.0004 16.238C9.85119 16.238 9.70461 16.1987 9.5754 16.1241L0.575438 10.9241L0.575338 10.924C0.380916 10.8119 0.238733 10.6274 0.179814 10.4109C0.120895 10.1943 0.150021 9.96321 0.260838 9.76804L0.130397 9.69397ZM0.130397 9.69397C2.43336e-05 9.92359 -0.0342419 10.1955 0.0350749 10.4502C0.104392 10.705 0.271665 10.9221 0.500397 11.054L19.8704 9.69397C19.8051 9.57939 19.7177 9.47886 19.6134 9.39817C19.509 9.31749 19.3897 9.25824 19.2624 9.22385C19.1351 9.18946 19.0022 9.1806 18.8714 9.19779C18.7406 9.21497 18.6145 9.25786 18.5004 9.32397V9.36397L10.0004 14.194L1.5004 9.32397C1.38626 9.25786 1.26018 9.21497 1.1294 9.19779C0.998619 9.1806 0.865733 9.18946 0.738393 9.22385C0.611053 9.25824 0.491775 9.31749 0.387428 9.39817C0.283081 9.47886 0.195727 9.57939 0.130397 9.69397ZM0.130397 13.694L0.260706 13.7683C0.316236 13.6709 0.390487 13.5854 0.479182 13.5168C0.567877 13.4483 0.669263 13.3979 0.777503 13.3687C0.885742 13.3394 0.998695 13.3319 1.10986 13.3465C1.22102 13.3611 1.32819 13.3976 1.4252 13.4538L1.42583 13.4541L9.92583 18.3241L10.0001 18.3667L10.0745 18.3244L18.5745 13.4944L18.6504 13.4513V13.4152C18.7266 13.3807 18.8077 13.3575 18.8909 13.3465C19.0021 13.3319 19.1151 13.3394 19.2233 13.3687C19.3315 13.3979 19.4329 13.4483 19.5216 13.5168C19.6102 13.5854 19.6844 13.6707 19.74 13.768C19.8508 13.9632 19.8799 14.1943 19.821 14.4109C19.7621 14.6274 19.6199 14.8119 19.4255 14.924L19.4254 14.9241L10.4254 20.1241C10.2962 20.1987 10.1496 20.238 10.0004 20.238C9.85119 20.238 9.70461 20.1987 9.5754 20.1241L0.575438 14.9241L0.575338 14.924C0.380916 14.8119 0.238733 14.6274 0.179814 14.4109C0.120895 14.1943 0.150021 13.9632 0.260838 13.768L0.130397 13.694ZM0.130397 13.694C2.43336e-05 13.9236 -0.0342419 14.1955 0.0350749 14.4502C0.104392 14.705 0.271665 14.9221 0.500397 15.054L19.8704 13.694C19.8051 13.5794 19.7177 13.4789 19.6134 13.3982C19.509 13.3175 19.3897 13.2582 19.2624 13.2239C19.1351 13.1895 19.0022 13.1806 18.8714 13.1978C18.7406 13.215 18.6145 13.2579 18.5004 13.324V13.364L10.0004 18.194L1.5004 13.324C1.38626 13.2579 1.26018 13.215 1.1294 13.1978C0.998619 13.1806 0.865733 13.1895 0.738393 13.2239C0.611053 13.2582 0.491775 13.3175 0.387428 13.3982C0.283081 13.4789 0.195727 13.5794 0.130397 13.694ZM0.575438 6.92409L0.575394 6.92407C0.446926 6.8499 0.340106 6.74341 0.265548 6.61517C0.191016 6.48697 0.151318 6.34151 0.150395 6.19323C0.149827 6.0435 0.188819 5.89628 0.263427 5.76646C0.33806 5.6366 0.445682 5.52877 0.575396 5.45388L9.57533 0.263917L9.5754 0.263879C9.70461 0.189275 9.85119 0.15 10.0004 0.15C10.1496 0.15 10.2962 0.189275 10.4254 0.263879L10.4255 0.263917L19.4254 5.45388C19.4254 5.45389 19.4254 5.4539 19.4255 5.45392C19.5551 5.5288 19.6627 5.63662 19.7374 5.76646C19.812 5.89632 19.851 6.0436 19.8504 6.19338C19.8494 6.34161 19.8098 6.48701 19.7352 6.61517C19.6607 6.74341 19.5539 6.8499 19.4254 6.92407L19.4254 6.92409L10.4254 12.1241C10.4254 12.1241 10.4254 12.1241 10.4254 12.1241C10.2961 12.1987 10.1496 12.2379 10.0004 12.2379C9.85121 12.2379 9.70464 12.1987 9.57544 12.1241C9.57542 12.1241 9.57541 12.1241 9.5754 12.1241L0.575438 6.92409ZM10.0748 2.06374L10.0004 2.02121L9.92598 2.06374L2.92598 6.06374L2.69806 6.19397L2.92598 6.32421L9.92598 10.3242L10.0004 10.3667L10.0748 10.3242L17.0748 6.32421L17.3027 6.19397L17.0748 6.06374L10.0748 2.06374Z" fill="white" stroke="#275987" stroke-width="0.3"/>
</svg>
