<svg width="18" height="22" viewBox="0 0 18 22" fill="none" xmlns="http://www.w3.org/2000/svg">
<path d="M10.702 22.0002H0.766453C0.572642 22.0008 0.385825 21.9279 0.243613 21.7962C0.101402 21.6645 0.0143557 21.4838 0 21.2906V6.3873C0 6.18403 0.0807511 5.98908 0.224489 5.84534C0.368227 5.7016 0.563177 5.62085 0.766453 5.62085H10.702C10.9052 5.62085 11.1002 5.7016 11.2439 5.84534C11.3877 5.98908 11.4684 6.18403 11.4684 6.3873V21.2906C11.4541 21.4838 11.367 21.6645 11.2248 21.7962C11.0826 21.9279 10.8958 22.0008 10.702 22.0002V22.0002ZM1.53291 20.4957H9.93551V7.09698H1.53291V20.4957Z" fill="white"/>
<path d="M2.89551 8.48779H8.57294V9.90715H2.89551V8.48779Z" fill="white"/>
<path d="M14.2646 17.607H12.8453V4.25798H4.3291V2.83862H13.5549C13.7431 2.83862 13.9237 2.91339 14.0567 3.04648C14.1898 3.17957 14.2646 3.36008 14.2646 3.5483V17.607Z" fill="white"/>
<path d="M17.0891 14.1936H15.6698V1.41936H7.86328V0H16.3794C16.5676 0 16.7482 0.0747695 16.8812 0.20786C17.0143 0.340951 17.0891 0.52146 17.0891 0.709679V14.1936Z" fill="white"/>
<path d="M5.02454 17.6567H6.44389V19.1896H5.02454V17.6567Z" fill="white"/>
</svg>
