<svg width="28" height="28" viewBox="0 0 28 28" fill="none" xmlns="http://www.w3.org/2000/svg">
<path d="M1.47368 27.3481H26.5263C27.3368 27.3481 28 26.6849 28 25.8744V24.4007C28 23.5902 27.3368 22.927 26.5263 22.927H1.47368C0.663158 22.927 0 23.5902 0 24.4007V25.8744C0 26.6849 0.663158 27.3481 1.47368 27.3481ZM26.5263 8.1902H1.47368C0.663158 8.1902 0 8.85336 0 9.66388V18.506C0 19.3165 0.663158 19.9797 1.47368 19.9797H26.5263C27.3368 19.9797 28 19.3165 28 18.506V9.66388C28 8.85336 27.3368 8.1902 26.5263 8.1902ZM0 2.29546V3.76915C0 4.57967 0.663158 5.24283 1.47368 5.24283H26.5263C27.3368 5.24283 28 4.57967 28 3.76915V2.29546C28 1.48494 27.3368 0.821777 26.5263 0.821777H1.47368C0.663158 0.821777 0 1.48494 0 2.29546Z" fill="white"/>
</svg>
