<svg width="28" height="28" viewBox="0 0 28 28" fill="none" xmlns="http://www.w3.org/2000/svg">
<path d="M27.7013 10.9075C27.0551 7.86688 25.3413 5.09938 22.8751 3.115C20.353 1.09707 17.2188 -0.00159413 13.9888 1.7361e-06C10.1813 1.7361e-06 6.62507 1.46688 3.96632 4.13063C1.39694 6.70813 -0.0111831 10.1113 6.68919e-05 13.7106C0.000154364 16.3496 0.774891 18.9304 2.22819 21.1331L2.50007 21.5112L1.00007 28L8.17507 26.215C8.17507 26.215 8.31882 26.2631 8.42507 26.3037C8.53132 26.3444 9.44569 26.695 10.4157 26.9662C11.2219 27.1912 12.8994 27.5287 14.2138 27.5287C17.9419 27.5287 21.4232 26.085 24.0157 23.4625C26.5851 20.8606 28.0001 17.4013 28.0001 13.7181C28.0003 12.7733 27.9001 11.8312 27.7013 10.9075ZM8.00007 16C7.6045 16 7.21782 15.8827 6.88893 15.6629C6.56003 15.4432 6.30368 15.1308 6.15231 14.7654C6.00093 14.3999 5.96132 13.9978 6.0385 13.6098C6.11567 13.2219 6.30615 12.8655 6.58585 12.5858C6.86556 12.3061 7.22192 12.1156 7.60989 12.0384C7.99785 11.9613 8.39998 12.0009 8.76543 12.1522C9.13088 12.3036 9.44324 12.56 9.663 12.8889C9.88277 13.2178 10.0001 13.6044 10.0001 14C10.0001 14.5304 9.78935 15.0391 9.41428 15.4142C9.03921 15.7893 8.5305 16 8.00007 16ZM14.0001 16C13.6045 16 13.2178 15.8827 12.8889 15.6629C12.56 15.4432 12.3037 15.1308 12.1523 14.7654C12.0009 14.3999 11.9613 13.9978 12.0385 13.6098C12.1157 13.2219 12.3061 12.8655 12.5859 12.5858C12.8656 12.3061 13.2219 12.1156 13.6099 12.0384C13.9978 11.9613 14.4 12.0009 14.7654 12.1522C15.1309 12.3036 15.4432 12.56 15.663 12.8889C15.8828 13.2178 16.0001 13.6044 16.0001 14C16.0001 14.5304 15.7894 15.0391 15.4143 15.4142C15.0392 15.7893 14.5305 16 14.0001 16ZM20.0001 16C19.6045 16 19.2178 15.8827 18.8889 15.6629C18.56 15.4432 18.3037 15.1308 18.1523 14.7654C18.0009 14.3999 17.9613 13.9978 18.0385 13.6098C18.1157 13.2219 18.3061 12.8655 18.5859 12.5858C18.8656 12.3061 19.2219 12.1156 19.6099 12.0384C19.9978 11.9613 20.4 12.0009 20.7654 12.1522C21.1309 12.3036 21.4432 12.56 21.663 12.8889C21.8828 13.2178 22.0001 13.6044 22.0001 14C22.0001 14.5304 21.7894 15.0391 21.4143 15.4142C21.0392 15.7893 20.5305 16 20.0001 16Z" fill="white"/>
</svg>
