<svg width="24" height="24" viewBox="0 0 24 24" fill="none" xmlns="http://www.w3.org/2000/svg">
<circle cx="12" cy="12" r="12" fill="#03396C"/>
<path d="M14.1 10.7417C14.1 10.5981 14.043 10.4603 13.9414 10.3587C13.8398 10.2571 13.702 10.2001 13.5584 10.2001H10.3084C10.1647 10.2001 10.0269 10.2571 9.92536 10.3587C9.82378 10.4603 9.76671 10.5981 9.76671 10.7417C9.76671 10.8854 9.82378 11.0232 9.92536 11.1247C10.0269 11.2263 10.1647 11.2834 10.3084 11.2834H13.5584C13.702 11.2834 13.8398 11.2263 13.9414 11.1247C14.043 11.0232 14.1 10.8854 14.1 10.7417Z" fill="#DFEEF7"/>
<path d="M11.3938 12.3683C11.5375 12.3683 11.6753 12.4254 11.7768 12.5269C11.8784 12.6285 11.9355 12.7663 11.9355 12.91C11.9355 13.0536 11.8784 13.1914 11.7768 13.293C11.6753 13.3945 11.5375 13.4516 11.3938 13.4516H9.22716C9.0835 13.4516 8.94572 13.3945 8.84414 13.293C8.74256 13.1914 8.68549 13.0536 8.68549 12.91C8.68549 12.7663 8.74256 12.6285 8.84414 12.5269C8.94572 12.4254 9.0835 12.3683 9.22716 12.3683H11.3938Z" fill="#DFEEF7"/>
<path d="M11.4978 5C12.6255 4.99962 13.7339 5.29263 14.7141 5.85025C15.6943 6.40787 16.5125 7.2109 17.0884 8.18045C17.6643 9.14999 17.9781 10.2527 17.9989 11.3802C18.0197 12.5077 17.7468 13.6212 17.207 14.6113L17.9761 17.3088C18.0032 17.4035 18.0039 17.5038 17.9782 17.5989C17.9525 17.694 17.9014 17.7803 17.8303 17.8485C17.7592 17.9167 17.6709 17.9642 17.5748 17.986C17.4787 18.0077 17.3785 18.0028 17.285 17.9718L14.7521 17.1279C13.8889 17.6268 12.9224 17.9203 11.9276 17.9859C10.9327 18.0515 9.93606 17.8873 9.01478 17.5061C8.0935 17.1249 7.27227 16.5369 6.6146 15.7875C5.95694 15.0382 5.48048 14.1475 5.22209 13.1846C4.96369 12.2216 4.93028 11.2121 5.12445 10.2342C5.31862 9.25621 5.73515 8.33605 6.34183 7.54484C6.94851 6.75363 7.72907 6.11259 8.62313 5.67131C9.5172 5.23003 10.5008 5.00033 11.4978 5ZM16.9145 11.5C16.9143 10.2981 16.5144 9.13049 15.7778 8.18086C15.0412 7.23122 14.0096 6.55353 12.8456 6.25449C11.6815 5.95545 10.4511 6.05203 9.34797 6.52904C8.24484 7.00605 7.33168 7.83638 6.75225 8.88933C6.17282 9.94227 5.96003 11.158 6.14738 12.3452C6.33473 13.5323 6.91158 14.6235 7.78711 15.4468C8.66264 16.2701 9.78713 16.7789 10.9835 16.893C12.18 17.0071 13.3804 16.7201 14.3957 16.0771C14.4637 16.034 14.5403 16.0066 14.6201 15.9969C14.7 15.9871 14.7809 15.9953 14.8572 16.0207L16.6534 16.6198L16.1009 14.6904C16.0808 14.6193 16.0754 14.5449 16.0851 14.4717C16.0948 14.3985 16.1193 14.328 16.1572 14.2647C16.6546 13.4284 16.9163 12.473 16.9145 11.5Z" fill="#DFEEF7"/>
<path fill-rule="evenodd" clip-rule="evenodd" d="M12 22C17.5228 22 22 17.5228 22 12C22 6.47715 17.5228 2 12 2C6.47715 2 2 6.47715 2 12C2 17.5228 6.47715 22 12 22ZM12 23C18.0751 23 23 18.0751 23 12C23 5.92487 18.0751 1 12 1C5.92487 1 1 5.92487 1 12C1 18.0751 5.92487 23 12 23Z" fill="#DFEEF7"/>
</svg>
