<svg width="22" height="22" viewBox="0 0 22 22" fill="none" xmlns="http://www.w3.org/2000/svg">
<circle cx="11" cy="11" r="10.5" stroke="#DFEEF7"/>
<path d="M8.75 10.6257C8.75 10.8389 8.67098 11.0433 8.53033 11.194C8.38968 11.3447 8.19891 11.4294 8 11.4294C7.80109 11.4294 7.61032 11.3447 7.46967 11.194C7.32902 11.0433 7.25 10.8389 7.25 10.6257C7.25 10.4126 7.32902 10.2081 7.46967 10.0574C7.61032 9.9067 7.80109 9.82202 8 9.82202C8.19891 9.82202 8.38968 9.9067 8.53033 10.0574C8.67098 10.2081 8.75 10.4126 8.75 10.6257ZM11.75 10.6257C11.75 10.8389 11.671 11.0433 11.5303 11.194C11.3897 11.3447 11.1989 11.4294 11 11.4294C10.8011 11.4294 10.6103 11.3447 10.4697 11.194C10.329 11.0433 10.25 10.8389 10.25 10.6257C10.25 10.4126 10.329 10.2081 10.4697 10.0574C10.6103 9.9067 10.8011 9.82202 11 9.82202C11.1989 9.82202 11.3897 9.9067 11.5303 10.0574C11.671 10.2081 11.75 10.4126 11.75 10.6257ZM14 11.4294C14.1989 11.4294 14.3897 11.3447 14.5303 11.194C14.671 11.0433 14.75 10.8389 14.75 10.6257C14.75 10.4126 14.671 10.2081 14.5303 10.0574C14.3897 9.9067 14.1989 9.82202 14 9.82202C13.8011 9.82202 13.6103 9.9067 13.4697 10.0574C13.329 10.2081 13.25 10.4126 13.25 10.6257C13.25 10.8389 13.329 11.0433 13.4697 11.194C13.6103 11.3447 13.8011 11.4294 14 11.4294Z" fill="#DFEEF7"/>
<path d="M6.62375 16.8969L6.63875 16.8937C8.01125 16.6019 8.84975 16.217 9.23975 16.0056C9.81394 16.1697 10.4057 16.2524 11 16.2515C14.3135 16.2515 17 13.7328 17 10.6258C17 7.51874 14.3135 5 11 5C7.6865 5 5 7.51874 5 10.6258C5 12.0403 5.55725 13.3342 6.4775 14.3227C6.41312 14.9577 6.28126 15.5827 6.0845 16.1856L6.08225 16.1945C6.02633 16.3672 5.9653 16.5379 5.89925 16.7064C5.84 16.8559 5.95475 17.0231 6.104 16.9974C6.27775 16.9669 6.45102 16.9334 6.62375 16.8969ZM7.22375 14.3991C7.23426 14.2814 7.22041 14.1627 7.18321 14.0514C7.146 13.9402 7.08635 13.839 7.0085 13.7553C6.2135 12.9002 5.75 11.8056 5.75 10.6258C5.75 8.06042 8.003 5.80368 11 5.80368C13.997 5.80368 16.25 8.06042 16.25 10.6258C16.25 13.1919 13.997 15.4479 11 15.4479C10.4713 15.4487 9.94483 15.3752 9.434 15.2293C9.25548 15.178 9.06559 15.1992 8.90075 15.2887C8.6105 15.4463 7.97075 15.7468 6.92525 16.0064C7.07111 15.4817 7.17104 14.9436 7.22375 14.3991Z" fill="#DFEEF7"/>
</svg>
