<svg width="24" height="24" viewBox="0 0 24 24" fill="none" xmlns="http://www.w3.org/2000/svg">
<circle cx="12" cy="12" r="10.75" stroke="#98E000" stroke-width="1.5"/>
<path d="M16.7802 7.42057C16.8572 7.34198 16.9491 7.27955 17.0506 7.23694C17.152 7.19432 17.261 7.17236 17.371 7.17236C17.481 7.17236 17.59 7.19432 17.6914 7.23694C17.7928 7.27955 17.8848 7.34198 17.9618 7.42057C18.2846 7.74672 18.2891 8.27375 17.9731 8.60555L11.3 16.4941C11.2242 16.5773 11.1323 16.6442 11.0298 16.6906C10.9273 16.7371 10.8164 16.7621 10.7039 16.7642C10.5914 16.7663 10.4796 16.7455 10.3754 16.7029C10.2713 16.6603 10.1769 16.597 10.0981 16.5167L6.03753 12.402C5.88093 12.2423 5.79321 12.0275 5.79321 11.8039C5.79321 11.5802 5.88093 11.3654 6.03753 11.2057C6.11455 11.1271 6.20648 11.0647 6.30792 11.0221C6.40937 10.9795 6.5183 10.9575 6.62833 10.9575C6.73836 10.9575 6.84729 10.9795 6.94874 11.0221C7.05018 11.0647 7.14211 11.1271 7.21913 11.2057L10.6635 14.6963L16.7576 7.4454C16.7646 7.43668 16.7722 7.42838 16.7802 7.42057Z" fill="#98E000"/>
</svg>
