<svg width="28" height="24" viewBox="0 0 28 24" fill="none" xmlns="http://www.w3.org/2000/svg">
<path d="M28 7.414L26.586 6L22 10.586L17.414 6L16 7.414L20.586 12L16 16.585L17.415 18L22 13.414L26.587 18L28 16.587L23.414 12L28 7.414Z" fill="white"/>
<path d="M2 0C1.46957 0 0.960859 0.210714 0.585786 0.585786C0.210714 0.960859 8.20399e-08 1.46957 8.20399e-08 2V5.17C-7.51846e-05 5.43279 0.0516398 5.69302 0.152189 5.93581C0.252738 6.17861 0.400151 6.39921 0.586 6.585L8 14V22C8 22.5304 8.21071 23.0391 8.58579 23.4142C8.96086 23.7893 9.46957 24 10 24H14C14.5304 24 15.0391 23.7893 15.4142 23.4142C15.7893 23.0391 16 22.5304 16 22V20H14V22H10V13.17L9.414 12.585L2 5.171V2H22V4H24V2C24 1.46957 23.7893 0.960859 23.4142 0.585786C23.0391 0.210714 22.5304 0 22 0H2Z" fill="white"/>
</svg>
