<svg width="23" height="23" viewBox="0 0 23 23" fill="none" xmlns="http://www.w3.org/2000/svg">
<circle cx="11.5" cy="11.5" r="10.75" stroke="#CBA26E" stroke-width="1.5"/>
<path fill-rule="evenodd" clip-rule="evenodd" d="M15.8463 7.17888C16.0415 7.37414 16.0415 7.69072 15.8463 7.88599L8.06811 15.6642C7.87284 15.8594 7.55626 15.8594 7.361 15.6642C7.16574 15.4689 7.16574 15.1523 7.361 14.9571L15.1392 7.17888C15.3344 6.98362 15.651 6.98362 15.8463 7.17888Z" fill="#CBA26E" stroke="#CBA26E" stroke-width="0.7"/>
<path fill-rule="evenodd" clip-rule="evenodd" d="M7.58292 7.17888C7.38766 7.37414 7.38766 7.69072 7.58292 7.88599L15.3611 15.6642C15.5564 15.8594 15.8729 15.8594 16.0682 15.6642C16.2635 15.4689 16.2635 15.1523 16.0682 14.9571L8.29003 7.17888C8.09476 6.98362 7.77818 6.98362 7.58292 7.17888Z" fill="#CBA26E" stroke="#CBA26E" stroke-width="0.7"/>
</svg>
