<svg width="16" height="16" viewBox="0 0 16 16" fill="none" xmlns="http://www.w3.org/2000/svg">
<path d="M11.2 7.06608C11.2 6.88927 11.1297 6.7197 11.0047 6.59468C10.8797 6.46965 10.7101 6.39941 10.5333 6.39941H6.53329C6.35647 6.39941 6.1869 6.46965 6.06188 6.59468C5.93686 6.7197 5.86662 6.88927 5.86662 7.06608C5.86662 7.24289 5.93686 7.41246 6.06188 7.53749C6.1869 7.66251 6.35647 7.73275 6.53329 7.73275H10.5333C10.7101 7.73275 10.8797 7.66251 11.0047 7.53749C11.1297 7.41246 11.2 7.24289 11.2 7.06608Z" fill="white"/>
<path d="M7.86922 9.06934C8.04603 9.06934 8.2156 9.13957 8.34063 9.2646C8.46565 9.38962 8.53589 9.55919 8.53589 9.736C8.53589 9.91281 8.46565 10.0824 8.34063 10.2074C8.2156 10.3324 8.04603 10.4027 7.86922 10.4027H5.20256C5.02574 10.4027 4.85618 10.3324 4.73115 10.2074C4.60613 10.0824 4.53589 9.91281 4.53589 9.736C4.53589 9.55919 4.60613 9.38962 4.73115 9.2646C4.85618 9.13957 5.02574 9.06934 5.20256 9.06934H7.86922Z" fill="white"/>
<path d="M7.99731 4.5347e-07C9.38524 -0.000466801 10.7494 0.360166 11.9558 1.04646C13.1622 1.73276 14.1693 2.72111 14.8781 3.9144C15.5869 5.10769 15.9731 6.46486 15.9986 7.85256C16.0242 9.24025 15.6883 10.6107 15.024 11.8293L15.9706 15.1493C16.004 15.2659 16.0048 15.3894 15.9732 15.5064C15.9416 15.6235 15.8786 15.7297 15.7911 15.8136C15.7036 15.8975 15.5949 15.956 15.4766 15.9827C15.3584 16.0095 15.2351 16.0035 15.12 15.9653L12.0026 14.9267C10.9402 15.5406 9.75068 15.902 8.52622 15.9827C7.30176 16.0634 6.07514 15.8613 4.94126 15.3922C3.80738 14.923 2.79662 14.1993 1.98719 13.277C1.17776 12.3547 0.591349 11.2585 0.273322 10.0733C-0.0447044 8.88813 -0.0858212 7.64567 0.153152 6.44205C0.392126 5.23842 0.904785 4.10591 1.65147 3.13211C2.39815 2.15831 3.35885 1.36934 4.45923 0.826223C5.55962 0.283108 6.77019 0.000410599 7.99731 4.5347e-07ZM14.664 8C14.6638 6.52081 14.1716 5.08369 13.265 3.9149C12.3584 2.74612 11.0888 1.91204 9.6561 1.54399C8.22343 1.17593 6.70904 1.29481 5.35134 1.8819C3.99364 2.46898 2.86975 3.49094 2.1566 4.78687C1.44345 6.0828 1.18156 7.57911 1.41214 9.04022C1.64273 10.5013 2.3527 11.8443 3.43027 12.8576C4.50786 13.8709 5.89184 14.4971 7.36436 14.6375C8.83687 14.778 10.3143 14.4247 11.564 13.6333C11.6476 13.5803 11.7419 13.5466 11.8402 13.5346C11.9384 13.5226 12.0381 13.5327 12.132 13.564L14.3426 14.3013L13.6626 11.9267C13.6379 11.8392 13.6312 11.7476 13.6432 11.6575C13.6551 11.5674 13.6853 11.4807 13.732 11.4027C14.3442 10.3734 14.6662 9.19757 14.664 8Z" fill="white"/>
</svg>
