<svg width="20" height="19" viewBox="0 0 20 19" fill="none" xmlns="http://www.w3.org/2000/svg">
<path fill-rule="evenodd" clip-rule="evenodd" d="M1.86631 2.0836C2.29356 1.65636 2.87302 1.41633 3.47724 1.41633H15.7075C16.3117 1.41633 16.8912 1.65636 17.3184 2.0836C17.7457 2.51084 17.9857 3.09031 17.9857 3.69452V11.1286C17.9857 11.7328 17.7457 12.3123 17.3184 12.7395C16.8912 13.1668 16.3117 13.4068 15.7075 13.4068H10.3612L5.036 17.1661V13.4068H3.47724C2.87302 13.4068 2.29356 13.1668 1.86631 12.7395C1.43907 12.3123 1.19905 11.7328 1.19905 11.1286V3.69452C1.19905 3.09031 1.43907 2.51084 1.86631 2.0836ZM1.01846 1.23574C0.366351 1.88785 0 2.7723 0 3.69452V11.1286C0 12.0508 0.366351 12.9353 1.01846 13.5874C1.67057 14.2395 2.55502 14.6059 3.47724 14.6059H3.83695V17.3972C3.83695 18.2721 4.82353 18.7833 5.53816 18.2788L10.742 14.6059H15.7075C16.6297 14.6059 17.5142 14.2395 18.1663 13.5874C18.8184 12.9353 19.1848 12.0508 19.1848 11.1286V3.69452C19.1848 2.7723 18.8184 1.88785 18.1663 1.23574C17.5142 0.583636 16.6297 0.217285 15.7075 0.217285H3.47724C2.55502 0.217285 1.67057 0.583636 1.01846 1.23574ZM4.56304 4.13468C4.20406 4.13468 3.91304 4.42569 3.91304 4.78468C3.91304 5.14366 4.20406 5.43468 4.56304 5.43468H15.0022C15.3612 5.43468 15.6522 5.14366 15.6522 4.78468C15.6522 4.42569 15.3612 4.13468 15.0022 4.13468H4.56304ZM3.91304 7.39337C3.91304 7.03439 4.20406 6.74337 4.56304 6.74337H15.0022C15.3612 6.74337 15.6522 7.03439 15.6522 7.39337C15.6522 7.75236 15.3612 8.04337 15.0022 8.04337H4.56304C4.20406 8.04337 3.91304 7.75236 3.91304 7.39337ZM4.56304 9.35207C4.20406 9.35207 3.91304 9.64308 3.91304 10.0021C3.91304 10.3611 4.20406 10.6521 4.56304 10.6521H11.0891C11.4481 10.6521 11.7391 10.3611 11.7391 10.0021C11.7391 9.64308 11.4481 9.35207 11.0891 9.35207H4.56304Z" fill="white"/>
</svg>
