<svg width="20" height="20" viewBox="0 0 20 20" fill="none" xmlns="http://www.w3.org/2000/svg">
<path fill-rule="evenodd" clip-rule="evenodd" d="M17.3412 11.7197C17.924 11.7197 18.4828 11.9511 18.8949 12.3632C19.3069 12.7753 19.5384 13.3341 19.5384 13.9169V14.8137C19.5385 15.3743 19.3633 15.9208 19.0372 16.3768C17.5278 18.49 15.061 19.5354 11.7198 19.5354C10.7297 19.5354 9.81663 19.4435 8.98265 19.2591L10.3372 17.9046C10.6207 17.6207 10.78 17.2358 10.78 16.8345C10.78 16.4333 10.6204 16.048 10.3368 15.7641L7.88465 13.3119L7.87456 13.3025C7.5875 13.0351 7.20782 12.8894 6.81552 12.8964C6.42321 12.9033 6.04891 13.0622 5.77146 13.3396C5.49402 13.6171 5.33509 13.9914 5.32817 14.3837C5.3222 14.7221 5.42976 15.0512 5.63115 15.3195L4.52684 15.3196L3.95571 15.3196C3.92407 15.154 3.90793 14.985 3.90798 14.8147V13.9159C3.90823 13.3337 4.13957 12.7753 4.55117 12.3635C4.96278 11.9518 5.52099 11.7202 6.10321 11.7197H17.3412ZM11.7198 0C13.0153 0 14.2578 0.514649 15.1739 1.43073C16.09 2.34681 16.6046 3.58928 16.6046 4.88482C16.6046 6.18035 16.09 7.42283 15.1739 8.33891C14.2578 9.25499 13.0153 9.76964 11.7198 9.76964C10.4242 9.76964 9.18177 9.25499 8.26569 8.33891C7.34961 7.42283 6.83496 6.18035 6.83496 4.88482C6.83496 3.58928 7.34961 2.34681 8.26569 1.43073C9.18177 0.514649 10.4242 0 11.7198 0ZM6.3061 14.9097C6.17667 14.7708 6.10621 14.5871 6.10956 14.3973C6.11291 14.2075 6.18981 14.0264 6.32405 13.8921C6.4583 13.7579 6.63942 13.681 6.82924 13.6776C7.01907 13.6743 7.20278 13.7447 7.34168 13.8742L9.78409 16.3166C9.9213 16.4539 9.99838 16.6402 9.99838 16.8344C9.99838 17.0285 9.9213 17.2148 9.78409 17.3521L7.34168 19.7946C7.20342 19.928 7.0183 20.0017 6.82618 20C6.63407 19.9982 6.45033 19.9211 6.31454 19.7851C6.17875 19.6492 6.10177 19.4654 6.10019 19.2733C6.09862 19.0812 6.17256 18.8961 6.3061 18.758L7.49799 17.5661H0.776482C-0.259149 17.5661 -0.259149 16.0999 0.778437 16.1007C1.81602 16.1014 7.49702 16.1007 7.49702 16.1007L6.3061 14.9097Z" fill="white"/>
</svg>
