<svg width="26" height="17" viewBox="0 0 26 17" fill="none" xmlns="http://www.w3.org/2000/svg">
<path fill-rule="evenodd" clip-rule="evenodd" d="M24.4361 15.8234L19.7343 11.101L19.2573 11.413C18.1848 12.1144 16.9112 12.5091 15.5442 12.4348L15.5388 12.4346C12.6111 12.2981 10.0911 9.99288 9.69535 7.07444C9.56452 6.10207 9.66379 5.11245 9.98504 4.18594C10.3063 3.25931 10.8405 2.4221 11.5441 1.74217C12.2476 1.06225 13.1005 0.558735 14.0337 0.272255C14.9667 -0.0142208 15.9539 -0.0756621 16.915 0.0928851L16.9186 0.0934988C19.3276 0.502962 21.3344 2.39587 21.8648 4.78694L21.8653 4.78904C22.2759 6.61371 21.8791 8.30369 20.9978 9.65004L20.6869 10.125L25.4009 14.8596C25.6664 15.1263 25.6664 15.5567 25.4009 15.8234C25.137 16.0884 24.6999 16.0884 24.4361 15.8234ZM4.81231 2.75885H0.678078C0.309616 2.75885 0 2.45229 0 2.07474C0 1.69719 0.309616 1.39062 0.678078 1.39062H4.81231C5.18078 1.39062 5.49039 1.69719 5.49039 2.07474C5.49039 2.45229 5.18078 2.75885 4.81231 2.75885ZM0.678078 8.3112H4.81231C5.18078 8.3112 5.49039 8.61776 5.49039 8.99531C5.49039 9.37286 5.18078 9.67942 4.81231 9.67942H0.678078C0.309615 9.67942 0 9.37286 0 8.99531C0 8.61776 0.309616 8.3112 0.678078 8.3112ZM20.6712 6.22708C20.6712 3.55958 18.5002 1.37474 15.8369 1.37474C13.1736 1.37474 11.0027 3.55958 11.0027 6.22708C11.0027 8.89458 13.1736 11.0794 15.8369 11.0794C18.5002 11.0794 20.6712 8.89458 20.6712 6.22708ZM12.3808 15.9159C12.3808 16.2934 12.0712 16.6 11.7027 16.6H0.678078C0.309616 16.6 0 16.2934 0 15.9159C0 15.5383 0.309616 15.2318 0.678078 15.2318H11.7027C12.0712 15.2318 12.3808 15.5383 12.3808 15.9159Z" fill="white"/>
</svg>
