<svg width="23" height="23" viewBox="0 0 23 23" fill="none" xmlns="http://www.w3.org/2000/svg">
<circle cx="11.5" cy="11.5" r="10.75" stroke="#45AA68" stroke-width="1.5"/>
<path d="M14.3098 8.12591C14.2391 8.07813 14.1581 8.04277 14.0714 8.02188C13.9846 8.00099 13.8939 7.99498 13.8044 8.00419C13.7149 8.01341 13.6285 8.03766 13.55 8.07556C13.4716 8.11347 13.4027 8.16426 13.3474 8.22502L8.56946 13.472L6.22828 11.0351C6.17337 10.9726 6.10433 10.9202 6.02526 10.881C5.94619 10.8418 5.8587 10.8166 5.76799 10.8068C5.67728 10.797 5.5852 10.8029 5.4972 10.8241C5.40921 10.8453 5.3271 10.8814 5.25575 10.9303C5.1844 10.9791 5.12527 11.0397 5.08185 11.1084C5.03844 11.1771 5.01164 11.2526 5.00303 11.3303C4.99442 11.4081 5.00419 11.4865 5.03176 11.561C5.05932 11.6354 5.10412 11.7044 5.16349 11.7638L8.00976 14.7837C8.074 14.8514 8.15517 14.9058 8.2473 14.9432C8.33944 14.9805 8.44019 14.9997 8.54216 14.9994C8.6504 15.0035 8.75823 14.9856 8.85674 14.9471C8.95526 14.9086 9.04162 14.8506 9.10868 14.7779L14.4531 8.94793C14.5076 8.88615 14.5472 8.81572 14.5695 8.74076C14.5918 8.66579 14.5964 8.58778 14.5831 8.51127C14.5697 8.43477 14.5387 8.36129 14.4918 8.29513C14.4448 8.22897 14.383 8.17145 14.3098 8.12591ZM17.7226 8.12591C17.6519 8.07813 17.5709 8.04277 17.4841 8.02188C17.3974 8.00099 17.3067 7.99498 17.2172 8.00419C17.1277 8.01341 17.0413 8.03766 16.9628 8.07556C16.8844 8.11347 16.8155 8.16426 16.7602 8.22502L11.9823 13.472L11.5659 13.0347L10.7059 13.9792L11.4567 14.7779C11.5209 14.8455 11.6021 14.9 11.6942 14.9373C11.7864 14.9747 11.8871 14.9939 11.9891 14.9936C12.0916 14.9932 12.1927 14.9731 12.2849 14.9347C12.377 14.8964 12.4579 14.8408 12.5215 14.7721L17.8659 8.9421C17.9193 8.8805 17.958 8.8105 17.9797 8.73612C18.0014 8.66174 18.0058 8.58442 17.9924 8.50861C17.9791 8.4328 17.9484 8.35997 17.9021 8.2943C17.8558 8.22864 17.7948 8.17141 17.7226 8.12591Z" fill="#45AA68"/>
<path d="M8.91074 12.1194L9.79125 11.175L9.65473 11.0351C9.60085 10.9713 9.53241 10.9175 9.45355 10.8769C9.37468 10.8363 9.28702 10.8098 9.19583 10.7989C9.10464 10.788 9.01182 10.793 8.92294 10.8135C8.83407 10.8341 8.75098 10.8698 8.67867 10.9185C8.60856 10.9666 8.55026 11.026 8.50714 11.0935C8.46402 11.1609 8.43693 11.2349 8.42741 11.3113C8.4179 11.3877 8.42615 11.4649 8.4517 11.5386C8.47725 11.6122 8.51959 11.6809 8.57629 11.7405L8.91074 12.1194Z" fill="#45AA68"/>
</svg>
