<svg width="22" height="16" viewBox="0 0 22 16" fill="none" xmlns="http://www.w3.org/2000/svg">
<path fill-rule="evenodd" clip-rule="evenodd" d="M3.74565 0.265472C3.52823 0.0932031 3.23703 -0.00211897 2.93477 3.57503e-05C2.63251 0.00219047 2.34338 0.10165 2.12964 0.276992C1.9159 0.452334 1.79466 0.689529 1.79204 0.937491C1.78941 1.18545 1.9056 1.42434 2.1156 1.6027L18.2548 14.8426C18.4722 15.0149 18.7634 15.1102 19.0656 15.1081C19.3679 15.1059 19.657 15.0065 19.8708 14.8311C20.0845 14.6558 20.2058 14.4186 20.2084 14.1706C20.211 13.9227 20.0948 13.6838 19.8848 13.5054L18.1867 12.1124C19.9823 10.9379 21.31 9.35083 22.0002 7.55405C20.5315 3.71731 16.1624 0.934088 11.0002 0.934088C9.19312 0.932078 7.41097 1.28008 5.79878 1.94978L3.7468 0.265472H3.74565ZM8.65772 4.29419L10.4031 5.72694C10.794 5.64178 11.2053 5.64235 11.5958 5.72858C11.9864 5.81481 12.3425 5.98369 12.6285 6.2183C12.9144 6.45291 13.1203 6.74504 13.2254 7.06543C13.3305 7.38583 13.3312 7.72325 13.2274 8.04393L14.9727 9.47573C15.4926 8.75323 15.705 7.90944 15.5764 7.07711C15.4478 6.24477 14.9856 5.47112 14.2624 4.87786C13.5393 4.28461 12.5962 3.90541 11.5816 3.79992C10.567 3.69443 9.53843 3.86864 8.65772 4.29514V4.29419Z" fill="#03396C"/>
<path d="M13.829 13.8875L10.7118 11.3294C9.59091 11.2718 8.53419 10.8805 7.73995 10.2292C6.94571 9.57776 6.46855 8.71097 6.39803 7.79146L2.1638 4.31787C1.18993 5.26927 0.454605 6.36903 0 7.55409C1.46866 11.3908 5.83892 14.1741 11 14.1741C11.9764 14.1741 12.924 14.0748 13.829 13.8875Z" fill="#03396C"/>
</svg>
