<svg width="22" height="14" viewBox="0 0 22 14" fill="none" xmlns="http://www.w3.org/2000/svg">
<path d="M0 6.73919C1.03399 4.71094 2.60862 3.00806 4.54987 1.81875C6.49112 0.629438 8.7234 0 11 0C13.2766 0 15.5089 0.629438 17.4501 1.81875C19.3914 3.00806 20.966 4.71094 22 6.73919C20.966 8.76743 19.3914 10.4703 17.4501 11.6596C15.5089 12.8489 13.2766 13.4784 11 13.4784C8.7234 13.4784 6.49112 12.8489 4.54987 11.6596C2.60862 10.4703 1.03399 8.76743 0 6.73919ZM11 11.229C12.1908 11.229 13.3328 10.756 14.1748 9.91395C15.0168 9.07195 15.4898 7.92995 15.4898 6.73919C15.4898 5.54842 15.0168 4.40642 14.1748 3.56442C13.3328 2.72242 12.1908 2.24939 11 2.24939C9.80923 2.24939 8.66724 2.72242 7.82524 3.56442C6.98324 4.40642 6.5102 5.54842 6.5102 6.73919C6.5102 7.92995 6.98324 9.07195 7.82524 9.91395C8.66724 10.756 9.80923 11.229 11 11.229ZM11 8.98408C10.4046 8.98408 9.83362 8.74757 9.41262 8.32657C8.99162 7.90557 8.7551 7.33457 8.7551 6.73919C8.7551 6.1438 8.99162 5.5728 9.41262 5.1518C9.83362 4.7308 10.4046 4.49429 11 4.49429C11.5954 4.49429 12.1664 4.7308 12.5874 5.1518C13.0084 5.5728 13.2449 6.1438 13.2449 6.73919C13.2449 7.33457 13.0084 7.90557 12.5874 8.32657C12.1664 8.74757 11.5954 8.98408 11 8.98408Z" fill="#03396C"/>
</svg>
