<svg width="28" height="24" viewBox="0 0 28 24" fill="none" xmlns="http://www.w3.org/2000/svg">
<path d="M28 2.27512C27.9997 1.68674 27.7713 1.12139 27.3628 0.6979C26.9543 0.274411 26.3976 0.0257573 25.8096 0.00420025V0H2.39544V0.00630054C2.35484 0.00420043 2.31459 0 2.27364 0C1.80312 0.000306791 1.34427 0.146488 0.960279 0.418412C0.576292 0.690335 0.286058 1.07462 0.12955 1.51835C-0.0269581 1.96208 -0.0420411 2.44342 0.0863784 2.89607C0.214798 3.34873 0.480402 3.75043 0.846612 4.04586L11.3962 14.5951L11.3958 21.1051V21.159H11.4011C11.4099 21.3597 11.4696 21.5549 11.5744 21.7264C11.6793 21.8978 11.8259 22.0398 12.0007 22.139L11.9975 22.1446L14.7528 23.7355C14.7759 23.7516 14.8015 23.7631 14.8257 23.7775L14.8355 23.7831V23.7827C15.0112 23.8842 15.2128 23.9469 15.4305 23.9469C15.5875 23.9469 15.743 23.916 15.8881 23.8559C16.0332 23.7959 16.165 23.7078 16.276 23.5968C16.3871 23.4857 16.4752 23.3539 16.5352 23.2088C16.5953 23.0637 16.6262 22.9082 16.6261 22.7512C16.6261 22.7197 16.6191 22.69 16.617 22.6591H16.6261V14.6049L27.2727 3.95871L27.2622 3.94821C27.4947 3.73592 27.6804 3.47749 27.8074 3.18942C27.9344 2.90135 28 2.58996 28 2.27512ZM7.78608 4.55024H7.79098L7.79133 4.55549L7.78608 4.55024Z" fill="white"/>
</svg>
