<svg width="16" height="16" viewBox="0 0 16 16" fill="none" xmlns="http://www.w3.org/2000/svg">
<path fill-rule="evenodd" clip-rule="evenodd" d="M0.400301 5.5358L7.60002 9.61664C7.72163 9.68552 7.85958 9.72178 8 9.72178C8.14042 9.72178 8.27837 9.68552 8.39998 9.61664L15.5997 5.5358C15.7206 5.46732 15.8211 5.369 15.8913 5.2506C15.9615 5.1322 15.9988 4.99784 15.9997 4.86089C16.0002 4.7226 15.9635 4.58663 15.8933 4.46673C15.8231 4.34684 15.7218 4.24728 15.5997 4.17813L8.39998 0.10514C8.27837 0.0362617 8.14042 0 8 0C7.85958 0 7.72163 0.0362617 7.60002 0.10514L0.400301 4.17813C0.278223 4.24728 0.176936 4.34684 0.106696 4.46673C0.0364558 4.58663 -0.000242276 4.7226 0.000317356 4.86089C0.00116002 4.99784 0.038523 5.1322 0.108693 5.2506C0.178863 5.369 0.279396 5.46732 0.400301 5.5358ZM15.8957 7.60761C16 7.78781 16.0274 8.00116 15.9719 8.20111C15.9165 8.40106 15.7827 8.57138 15.5997 8.67491L8.39998 12.7557C8.27837 12.8246 8.14042 12.8609 8 12.8609C7.85958 12.8609 7.72163 12.8246 7.60002 12.7557L0.400301 8.67491C0.217323 8.57138 0.0835101 8.40106 0.0280588 8.20111C-0.0273925 8.00116 1.94684e-05 7.78781 0.104313 7.60761C0.156575 7.51768 0.226455 7.43879 0.30993 7.37547C0.393404 7.31215 0.488823 7.26566 0.590691 7.23867C0.692559 7.21168 0.798863 7.20473 0.903482 7.21821C1.0081 7.2317 1.10897 7.26535 1.20027 7.31724L8 11.1391L14.7997 7.34863V7.31724C14.891 7.26535 14.9919 7.2317 15.0965 7.21821C15.2011 7.20473 15.3074 7.21168 15.4093 7.23867C15.5112 7.26566 15.6066 7.31215 15.6901 7.37547C15.7735 7.43879 15.8434 7.51768 15.8957 7.60761ZM14.7997 10.4564C14.891 10.4045 14.9919 10.3708 15.0965 10.3573C15.2011 10.3438 15.3074 10.3508 15.4093 10.3778C15.5112 10.4048 15.6066 10.4513 15.6901 10.5146C15.7735 10.5779 15.8434 10.6568 15.8957 10.7467C16 10.9269 16.0274 11.1403 15.9719 11.3402C15.9165 11.5402 15.7827 11.7105 15.5997 11.814L8.39998 15.8949C8.27837 15.9637 8.14042 16 8 16C7.85958 16 7.72163 15.9637 7.60002 15.8949L0.400301 11.814C0.217323 11.7105 0.0835101 11.5402 0.0280588 11.3402C-0.0273925 11.1403 0.000218615 10.927 0.104512 10.7468C0.156774 10.6569 0.226455 10.5779 0.30993 10.5146C0.393404 10.4513 0.488823 10.4048 0.590691 10.3778C0.692559 10.3508 0.798863 10.3438 0.903482 10.3573C1.0081 10.3708 1.10897 10.4045 1.20027 10.4564L8 14.2782L14.7997 10.4877V10.4564ZM8 8L2.40022 4.86089L8 1.72178L13.5998 4.86089L8 8Z" fill="white"/>
</svg>
