<svg width="19" height="18" viewBox="0 0 19 18" fill="none" xmlns="http://www.w3.org/2000/svg">
<path d="M0.0926514 2.25C0.0926514 1.65326 0.382383 1.08097 0.898108 0.65901C1.41383 0.237053 2.11331 0 2.84265 0H15.4927C15.8538 0 16.2114 0.058198 16.545 0.171271C16.8787 0.284344 17.1818 0.450078 17.4372 0.65901C17.6926 0.867942 17.8951 1.11598 18.0333 1.38896C18.1715 1.66194 18.2427 1.95453 18.2427 2.25V15.075C18.2427 15.254 18.1557 15.4257 18.001 15.5523C17.8463 15.6789 17.6365 15.75 17.4177 15.75H1.74265C1.74265 15.9887 1.85854 16.2176 2.06483 16.3864C2.27112 16.5552 2.55091 16.65 2.84265 16.65H17.4177C17.6365 16.65 17.8463 16.7211 18.001 16.8477C18.1557 16.9743 18.2427 17.146 18.2427 17.325C18.2427 17.504 18.1557 17.6757 18.001 17.8023C17.8463 17.9289 17.6365 18 17.4177 18H2.84265C2.11331 18 1.41383 17.7629 0.898108 17.341C0.382383 16.919 0.0926514 16.3467 0.0926514 15.75V2.25ZM6.90935 4.9176C6.27685 5.1651 5.59265 5.616 5.59265 6.3C5.59265 6.984 6.27685 7.434 6.90935 7.6824C7.59355 7.9497 8.49005 8.1 9.44265 8.1C10.3953 8.1 11.2918 7.9497 11.976 7.6824C12.6085 7.4349 13.2927 6.984 13.2927 6.3C13.2927 5.616 12.6096 5.166 11.976 4.9176C11.2907 4.6503 10.3953 4.5 9.44265 4.5C8.49005 4.5 7.59355 4.6503 6.90935 4.9176ZM13.2872 8.001C12.3797 8.6103 10.9937 9 9.44265 9C7.89165 9 6.50565 8.6103 5.59815 8.001C5.59441 8.03391 5.59257 8.06695 5.59265 8.1C5.59265 9.0945 7.31635 9.9 9.44265 9.9C11.569 9.9 13.2927 9.0945 13.2927 8.1C13.2927 8.0667 13.2905 8.0343 13.2872 8.001ZM9.44265 10.8C7.89165 10.8 6.50565 10.4103 5.59815 9.801C5.59441 9.83391 5.59258 9.86695 5.59265 9.9C5.59265 10.8945 7.31635 11.7 9.44265 11.7C11.569 11.7 13.2927 10.8945 13.2927 9.9C13.2928 9.86695 13.2909 9.83391 13.2872 9.801C12.3797 10.4103 10.9937 10.8 9.44265 10.8Z" fill="white"/>
</svg>
