<svg width="11" height="15" viewBox="0 0 11 15" fill="none" xmlns="http://www.w3.org/2000/svg">
<path d="M9.95495 6.83353C9.77427 6.58352 9.55431 6.36685 9.35006 6.15018C8.82373 5.65016 8.2267 5.29182 7.72393 4.7668C6.55343 3.5501 6.29419 1.54171 7.04048 0C6.29419 0.191672 5.64217 0.625018 5.08441 1.10003C3.04979 2.83341 2.2485 5.89183 3.2069 8.51691C3.23832 8.60025 3.26975 8.68358 3.26975 8.79192C3.26975 8.97526 3.15191 9.14193 2.9948 9.2086C2.81412 9.29193 2.62558 9.24193 2.47632 9.10859C2.43147 9.06925 2.39413 9.02116 2.36634 8.96692C1.47865 7.77522 1.33724 6.06684 1.93428 4.70013C0.622373 5.8335 -0.0924956 7.75022 0.00962853 9.55861C0.0567628 9.97528 0.103897 10.392 0.237444 10.8086C0.347424 11.3087 0.559528 11.8087 0.795199 12.2503C1.64362 13.6921 3.11263 14.7254 4.69163 14.9338C6.37275 15.1588 8.17171 14.8338 9.46004 13.6004C10.8976 12.217 11.4004 10.0003 10.662 8.10023L10.5598 7.88356C10.3949 7.50021 9.95495 6.83353 9.95495 6.83353ZM7.47255 12.0837C7.25259 12.2837 6.89123 12.5004 6.60842 12.5837C5.72858 12.917 4.84874 12.4504 4.33027 11.9003C5.26509 11.667 5.82285 10.9336 5.98782 10.192C6.12137 9.52527 5.86998 8.97526 5.76786 8.33357C5.67359 7.71689 5.6893 7.19187 5.90141 6.61686C6.05067 6.93353 6.20778 7.25021 6.39632 7.50021C7.00121 8.33357 7.95175 8.70025 8.15599 9.83361C8.18742 9.95028 8.20313 10.067 8.20313 10.192C8.2267 10.8753 7.94389 11.6253 7.47255 12.0837Z" fill="#FF0000"/>
</svg>
