<svg width="26" height="26" viewBox="0 0 26 26" fill="none" xmlns="http://www.w3.org/2000/svg">
<path fill-rule="evenodd" clip-rule="evenodd" d="M23.9402 1.95899C23.9485 2.0479 23.9324 2.13842 23.8928 2.21908C23.8665 2.27245 23.83 2.32151 23.7834 2.36294L16.3115 9.00504C16.1204 9.17495 15.8324 9.15233 15.6682 8.95453C15.6227 8.89966 15.5914 8.83708 15.5742 8.77165C15.5914 8.83705 15.6227 8.8996 15.6682 8.95445C15.8323 9.15225 16.1204 9.17486 16.3115 9.00496L23.7834 2.36286C23.9004 2.25881 23.954 2.1067 23.9402 1.95899ZM23.8928 1.79053H24.2406V1.79045H23.8927C23.8928 1.79048 23.8928 1.79051 23.8928 1.79053ZM24.2764 8.8367C24.3456 9.00627 24.5076 9.12525 24.6965 9.12525C24.9482 9.12525 25.1524 8.91373 25.1524 8.65281L25.1524 1.31809C25.1524 1.30549 25.1519 1.29294 25.151 1.28046C25.1519 1.29291 25.1524 1.30543 25.1524 1.31801L25.1523 8.65272C25.1523 8.91365 24.9482 9.12517 24.6964 9.12517C24.5076 9.12517 24.3456 9.00622 24.2764 8.8367ZM17.1987 1.50199C17.2679 1.67155 17.43 1.79053 17.6188 1.79053L23.0269 1.79053L23.027 1.79045L17.6188 1.79045C17.43 1.79045 17.268 1.67151 17.1987 1.50199ZM23.3982 8.65279L23.3982 3.83491L16.87 9.63813C16.3203 10.1268 15.4869 10.0572 15.021 9.49585C14.5676 8.94955 14.6239 8.13093 15.1585 7.65565L20.805 2.63618L17.6188 2.63618C16.8767 2.63618 16.3205 2.02048 16.3205 1.31809C16.3205 0.615703 16.8767 0 17.6188 0H24.6965C25.0497 0 25.3827 0.145635 25.624 0.395655C25.8643 0.644756 25.9948 0.977043 25.9948 1.3181L25.9948 8.65281C25.9948 9.3552 25.4386 9.9709 24.6965 9.97089C23.9544 9.97089 23.3982 9.35519 23.3982 8.65279ZM1.30297 9.12567C1.55475 9.12567 1.75886 8.91415 1.75886 8.65323L1.75882 1.79096H2.10693C2.10694 1.79093 2.10696 1.7909 2.10697 1.79088H1.75879L1.75884 8.65314C1.75884 8.91407 1.55473 9.12559 1.30294 9.12559C1.09543 9.12559 0.920304 8.98192 0.86513 8.78533C0.920278 8.98196 1.09543 9.12567 1.30297 9.12567ZM8.44742 1.31852C8.44742 1.27263 8.44111 1.22828 8.42934 1.18634C8.4411 1.22826 8.4474 1.27258 8.4474 1.31843C8.4474 1.57936 8.24329 1.79088 7.99151 1.79088L2.96523 1.79088L2.96531 1.79096L7.99153 1.79096C8.24331 1.79096 8.44742 1.57944 8.44742 1.31852ZM9.28998 8.99675C9.47669 9.17185 9.76519 9.15715 9.93439 8.96393C10.0448 8.83787 10.0771 8.66697 10.0344 8.51477C10.0771 8.66695 10.0447 8.83781 9.93436 8.96385C9.76517 9.15707 9.47666 9.17176 9.28996 8.99667L2.20749 2.35457C2.14247 2.29358 2.09837 2.21762 2.07565 2.13635C2.08353 2.16456 2.09398 2.19212 2.10699 2.21865C2.13148 2.26858 2.16504 2.31481 2.20752 2.35465L9.28998 8.99675ZM2.60127 8.65322L2.60124 3.88116L8.71489 9.61468C9.2507 10.1172 10.0858 10.0719 10.5671 9.52223C11.0354 8.98743 10.9988 8.16777 10.4778 7.6791L5.10095 2.6366L7.99153 2.6366C8.73364 2.6366 9.28983 2.0209 9.28983 1.31852C9.28983 0.616127 8.73364 0.000426118 7.99153 0.000426068L1.30292 0.000425614C0.949778 0.000425614 0.616737 0.146055 0.375474 0.396078C0.135095 0.645185 0.00461223 0.977473 0.00461454 1.31852L0.00465993 8.65324C0.0046635 9.35563 0.560868 9.97132 1.30297 9.97132C2.04508 9.97131 2.60127 9.35561 2.60127 8.65322ZM25.1552 16.9011C25.1568 16.917 25.1576 16.933 25.1576 16.9493L25.1576 24.6821C25.1576 24.8074 25.1095 24.9274 25.0239 25.016C24.9384 25.1045 24.8223 25.1543 24.7014 25.1543L17.6187 25.1543C17.4371 25.1543 17.2803 25.0445 17.2069 24.8856C17.2803 25.0445 17.4371 25.1544 17.6187 25.1544L24.7014 25.1544C24.8224 25.1544 24.9384 25.1046 25.024 25.0161C25.1095 24.9275 25.1576 24.8074 25.1576 24.6822L25.1576 16.9494C25.1576 16.9331 25.1568 16.917 25.1552 16.9011ZM23.0372 24.21H23.0373L15.707 17.2984C15.6619 17.2559 15.6269 17.2062 15.6022 17.1525C15.6269 17.2062 15.6619 17.256 15.707 17.2985L23.0372 24.21ZM23.9391 23.9386C23.9496 24.0305 23.9342 24.1253 23.8921 24.21H23.8922C23.9342 24.1253 23.9496 24.0305 23.9391 23.9386ZM23.4028 16.9494V22.1171L16.8983 15.9841C16.3639 15.4802 15.5286 15.5231 15.0458 16.0715C14.576 16.6051 14.6106 17.4249 15.1303 17.9149L20.91 23.3644L17.6187 23.3644C16.8775 23.3644 16.3201 23.9789 16.3201 24.6822C16.3201 25.3855 16.8775 26 17.6187 26L24.7014 26C25.0542 26 25.3872 25.8547 25.6286 25.6049C25.8692 25.3559 26 25.0235 26 24.6822L26 16.9494C26 16.2461 25.4426 15.6316 24.7014 15.6316C23.9601 15.6316 23.4028 16.2461 23.4028 16.9494ZM8.43884 24.587C8.44491 24.6177 8.44809 24.6495 8.44809 24.682C8.44809 24.9428 8.24383 25.1542 7.99187 25.1542H1.2986C1.1776 25.1542 1.06156 25.1044 0.976008 25.0159C0.941291 24.9799 0.912734 24.9388 0.89107 24.8943C0.912739 24.9389 0.941295 24.98 0.976031 25.016C1.06159 25.1045 1.17763 25.1542 1.29862 25.1542H7.9919C8.24386 25.1542 8.44811 24.9429 8.44811 24.6821C8.44811 24.6495 8.44492 24.6177 8.43884 24.587ZM1.75249 16.901C1.75404 16.9168 1.75482 16.9329 1.75482 16.9492L1.75481 24.2099H1.75484L1.75485 16.9493C1.75485 16.933 1.75405 16.9169 1.75249 16.901ZM2.10776 24.2099H2.10778C2.10682 24.208 2.10587 24.206 2.10495 24.2041C2.10587 24.206 2.10681 24.208 2.10776 24.2099ZM10.0458 16.8685C10.0708 17.0178 10.026 17.1769 9.91245 17.2898L2.95563 24.2099H2.95573L9.91247 17.2899C10.026 17.1769 10.0708 17.0178 10.0458 16.8685ZM2.59726 16.9493L2.59725 22.0662L8.68724 16.0084C9.20722 15.4912 10.0434 15.5094 10.5414 16.0457C11.0258 16.5672 11.0111 17.3875 10.5054 17.8906L5.00261 23.3643H7.9919C8.73312 23.3643 9.29052 23.9788 9.29052 24.6821C9.29052 25.3854 8.73312 25.9999 7.9919 25.9999H1.29862C0.945778 25.9999 0.61277 25.8546 0.371348 25.6047C0.130775 25.3558 0 25.0234 0 24.6821L9.9921e-06 16.9493C1.18499e-05 16.2459 0.557408 15.6315 1.29864 15.6315C2.03986 15.6315 2.59726 16.2459 2.59726 16.9493Z" fill="white"/>
</svg>
