<svg width="20" height="18" viewBox="0 0 20 18" fill="none" xmlns="http://www.w3.org/2000/svg">
<mask id="path-1-inside-1_600_235" fill="white">
<path fill-rule="evenodd" clip-rule="evenodd" d="M7.29625 2.45684L4.62989 5.13071C4.55479 5.20602 4.43282 5.20608 4.35765 5.13084C4.12606 4.89905 3.75029 4.89932 3.51902 5.13143L2.67991 5.97365C1.98813 6.66799 1.9885 7.79114 2.68074 8.48502L5.87019 11.682C6.56501 12.3785 7.69322 12.3787 8.38835 11.6826L9.24594 10.8237C9.46399 10.6053 9.46443 10.2517 9.2469 10.0328C9.18466 9.97014 9.18477 9.86898 9.24714 9.80648L9.27034 9.78323C9.34589 9.70752 9.46855 9.70754 9.54408 9.78328L16.3483 16.606C17.0196 17.2791 18.1097 17.2795 18.7814 16.6068C19.4512 15.9361 19.4515 14.8498 18.7821 14.1787L11.9505 7.32921C11.8859 7.26452 11.8859 7.15982 11.9505 7.09515L11.9562 7.08944C12.0178 7.0277 12.1178 7.02771 12.1794 7.08946C12.3971 7.30776 12.7507 7.30795 12.9686 7.08989L13.8335 6.22463C14.5276 5.53029 14.5281 4.405 13.8346 3.71006L10.6535 0.522223C9.95808 -0.174725 8.8287 -0.173978 8.13416 0.523891L7.29531 1.36676C7.0675 1.59566 7.06787 1.96573 7.29612 2.19418C7.3686 2.26672 7.36866 2.38424 7.29625 2.45684Z"/>
</mask>
<path d="M4.62989 5.13071L3.78017 4.28338L3.78017 4.28338L4.62989 5.13071ZM7.29625 2.45684L6.44653 1.60951L6.44654 1.60951L7.29625 2.45684ZM4.35765 5.13084L5.20655 4.28269L5.20655 4.28269L4.35765 5.13084ZM3.51902 5.13143L2.66893 4.28447V4.28447L3.51902 5.13143ZM2.67991 5.97365L3.53 6.82061V6.82062L2.67991 5.97365ZM2.68074 8.48502L3.53027 7.63749L3.53027 7.63749L2.68074 8.48502ZM5.87019 11.682L6.71972 10.8345V10.8345L5.87019 11.682ZM8.38835 11.6826L9.23751 12.5304V12.5304L8.38835 11.6826ZM9.24594 10.8237L8.39677 9.97579L8.39677 9.97578L9.24594 10.8237ZM9.2469 10.0328L8.39567 10.8786L8.39567 10.8786L9.2469 10.0328ZM9.24714 9.80648L8.39772 8.95884L8.39772 8.95884L9.24714 9.80648ZM9.27034 9.78323L10.1198 10.6309L10.1198 10.6309L9.27034 9.78323ZM9.54408 9.78328L8.6944 10.6306L8.69439 10.6306L9.54408 9.78328ZM16.3483 16.606L15.4986 17.4534H15.4986L16.3483 16.606ZM18.7814 16.6068L17.9323 15.7589L17.9323 15.7589L18.7814 16.6068ZM18.7821 14.1787L17.9325 15.0261H17.9325L18.7821 14.1787ZM11.9505 7.32921L12.8001 6.48179L12.8001 6.48179L11.9505 7.32921ZM11.9505 7.09515L11.1011 6.24751L11.1011 6.24747L11.9505 7.09515ZM11.9562 7.08944L12.8056 7.93707L12.8056 7.93711L11.9562 7.08944ZM12.1794 7.08946L11.3298 7.93689L11.3298 7.93689L12.1794 7.08946ZM12.9686 7.08989L12.1199 6.24155L12.1199 6.24155L12.9686 7.08989ZM13.8335 6.22463L14.6822 7.07298L13.8335 6.22463ZM13.8346 3.71006L12.9852 4.55769H12.9852L13.8346 3.71006ZM10.6535 0.522223L11.503 -0.325401L11.503 -0.325401L10.6535 0.522223ZM8.13416 0.523891L8.98471 1.37039L8.13416 0.523891ZM7.29531 1.36676L6.44476 0.520262L6.44476 0.520261L7.29531 1.36676ZM7.29612 2.19418L8.14501 1.34601L8.14501 1.34601L7.29612 2.19418ZM3.78017 4.28338L6.44653 1.60951L8.14597 3.30418L5.47961 5.97805L3.78017 4.28338ZM5.20655 4.28269C4.81269 3.88848 4.17365 3.88879 3.78017 4.28338L5.47961 5.97804C4.93593 6.52326 4.05295 6.52368 3.50875 5.979L5.20655 4.28269ZM2.66893 4.28447C3.36871 3.58211 4.50578 3.5813 5.20655 4.28269L3.50875 5.979C3.74634 6.2168 4.13186 6.21653 4.36912 5.97839L2.66893 4.28447ZM1.82981 5.12669L2.66893 4.28447L4.36912 5.97839L3.53 6.82061L1.82981 5.12669ZM1.83121 9.33254C0.671892 8.17048 0.671274 6.28952 1.82981 5.12669L3.53 6.82062C3.30498 7.04647 3.3051 7.41179 3.53027 7.63749L1.83121 9.33254ZM5.02066 12.5295L1.83121 9.33254L3.53027 7.63749L6.71972 10.8345L5.02066 12.5295ZM9.23751 12.5304C8.07347 13.6962 6.1842 13.6958 5.02066 12.5295L6.71972 10.8345C6.94583 11.0611 7.31297 11.0612 7.53918 10.8347L9.23751 12.5304ZM10.0951 11.6716L9.23751 12.5304L7.53918 10.8347L8.39677 9.97579L10.0951 11.6716ZM10.0981 9.18695C10.7815 9.87468 10.7801 10.9855 10.0951 11.6716L8.39677 9.97578C8.14785 10.2251 8.14737 10.6287 8.39567 10.8786L10.0981 9.18695ZM10.0966 10.6541C10.5009 10.2489 10.5016 9.59304 10.0981 9.18696L8.39567 10.8786C7.8677 10.3472 7.86862 9.48906 8.39772 8.95884L10.0966 10.6541ZM10.1198 10.6309L10.0966 10.6541L8.39772 8.95884L8.42092 8.93559L10.1198 10.6309ZM8.69439 10.6306C9.08766 11.025 9.72637 11.0251 10.1198 10.6309L8.42092 8.9356C8.9654 8.38997 9.84945 8.3901 10.3938 8.93591L8.69439 10.6306ZM15.4986 17.4534L8.6944 10.6306L10.3938 8.9359L17.198 15.7586L15.4986 17.4534ZM19.6305 17.4548C18.4898 18.597 16.6386 18.5964 15.4986 17.4534L17.198 15.7586C17.4006 15.9618 17.7296 15.9619 17.9323 15.7589L19.6305 17.4548ZM19.6318 13.3312C20.7685 14.4709 20.7679 16.3158 19.6305 17.4548L17.9323 15.7589C18.1344 15.5565 18.1345 15.2286 17.9325 15.0261L19.6318 13.3312ZM12.8001 6.48179L19.6318 13.3312L17.9325 15.0261L11.1008 8.17664L12.8001 6.48179ZM12.7999 7.94279C13.2027 7.53912 13.2028 6.88556 12.8001 6.48179L11.1008 8.17664C10.5691 7.64349 10.5692 6.78052 11.1011 6.24751L12.7999 7.94279ZM12.8056 7.93711L12.7999 7.94282L11.1011 6.24747L11.1068 6.24176L12.8056 7.93711ZM11.3298 7.93689C11.737 8.34515 12.3983 8.34524 12.8056 7.93707L11.1068 6.2418C11.6373 5.71016 12.4987 5.71027 13.029 6.24204L11.3298 7.93689ZM13.8173 7.93824C13.1304 8.62553 12.016 8.62492 11.3298 7.93689L13.029 6.24204C12.7782 5.99059 12.371 5.99037 12.1199 6.24155L13.8173 7.93824ZM14.6822 7.07298L13.8173 7.93824L12.1199 6.24155L12.9848 5.37629L14.6822 7.07298ZM14.684 2.86244C15.8452 4.02608 15.8444 5.91033 14.6822 7.07298L12.9848 5.37629C13.2108 5.15025 13.2109 4.78392 12.9852 4.55769L14.684 2.86244ZM11.503 -0.325401L14.684 2.86244L12.9852 4.55769L9.80412 1.36985L11.503 -0.325401ZM7.28361 -0.322608C8.4468 -1.49137 10.3382 -1.49262 11.503 -0.325401L9.80412 1.36985C9.57792 1.14317 9.21061 1.14342 8.98471 1.37039L7.28361 -0.322608ZM6.44476 0.520261L7.28361 -0.322608L8.98471 1.37039L8.14586 2.21326L6.44476 0.520261ZM6.44724 3.04235C5.75148 2.346 5.75037 1.21797 6.44476 0.520262L8.14586 2.21326C8.38463 1.97334 8.38425 1.58546 8.14501 1.34601L6.44724 3.04235ZM6.44654 1.60951C6.05156 2.00559 6.05189 2.64667 6.44724 3.04235L8.14501 1.34601C8.6853 1.88676 8.68575 2.76289 8.14597 3.30418L6.44654 1.60951Z" fill="white" mask="url(#path-1-inside-1_600_235)"/>
<path d="M11 17.0425C11 16.7663 10.7761 16.5425 10.5 16.5425H0.5C0.223858 16.5425 0 16.7663 0 17.0425C0 17.3186 0.223858 17.5425 0.5 17.5425H10.5C10.7761 17.5425 11 17.3186 11 17.0425Z" fill="white"/>
<path d="M10 15.5425C10 14.4379 9.10457 13.5425 8 13.5425H3C1.89543 13.5425 1 14.4379 1 15.5425H10Z" fill="white"/>
</svg>
