<svg width="28" height="28" viewBox="0 0 28 28" fill="none" xmlns="http://www.w3.org/2000/svg">
<path d="M13.3599 15.9977C12.4675 17.3907 11.9944 19.0109 11.997 20.6653C11.997 22.839 12.7971 24.8261 14.12 26.3477C13.0585 26.5611 11.9063 26.6677 10.6634 26.6677C6.1025 26.6677 2.73652 25.2381 0.68013 22.3509C0.237811 21.7298 7.63484e-05 20.9863 2.96511e-07 20.2239V18.997C-0.000174883 18.603 0.0772736 18.2128 0.227921 17.8488C0.378568 17.4847 0.599463 17.154 0.877985 16.8753C1.15651 16.5967 1.4872 16.3756 1.85117 16.2248C2.21514 16.074 2.60526 15.9964 2.99924 15.9964H13.3612L13.3599 15.9977ZM20.6653 13.3305C22.6106 13.3305 24.4762 14.1033 25.8517 15.4788C27.2272 16.8544 28 18.72 28 20.6653C28 22.6106 27.2272 24.4762 25.8517 25.8517C24.4762 27.2272 22.6106 28 20.6653 28C18.72 28 16.8544 27.2272 15.4788 25.8517C14.1033 24.4762 13.3305 22.6106 13.3305 20.6653C13.3305 18.72 14.1033 16.8544 15.4788 15.4788C16.8544 14.1033 18.72 13.3305 20.6653 13.3305ZM20.6653 23.6658C20.4442 23.6658 20.2322 23.7537 20.0759 23.91C19.9196 24.0663 19.8318 24.2783 19.8318 24.4993C19.8318 24.7204 19.9196 24.9324 20.0759 25.0887C20.2322 25.245 20.4442 25.3328 20.6653 25.3328C20.8863 25.3328 21.0983 25.245 21.2546 25.0887C21.4109 24.9324 21.4988 24.7204 21.4988 24.4993C21.4988 24.2783 21.4109 24.0663 21.2546 23.91C21.0983 23.7537 20.8863 23.6658 20.6653 23.6658ZM20.6653 15.8297C19.2677 15.8297 18.1795 16.9192 18.1941 18.4355C18.195 18.5231 18.2131 18.6096 18.2474 18.6902C18.2818 18.7707 18.3316 18.8438 18.3941 18.9051C18.4567 18.9663 18.5307 19.0147 18.6119 19.0474C18.6931 19.0801 18.78 19.0965 18.8676 19.0956C18.9552 19.0948 19.0417 19.0766 19.1223 19.0423C19.2028 19.008 19.2758 18.9582 19.3371 18.8956C19.3984 18.8331 19.4468 18.7591 19.4795 18.6779C19.5122 18.5966 19.5286 18.5097 19.5277 18.4222C19.5197 17.65 20.0078 17.1633 20.6653 17.1633C21.2961 17.1633 21.8042 17.686 21.8042 18.4302C21.8042 18.6862 21.7295 18.8863 21.5054 19.177L21.3801 19.333L21.2467 19.4837L20.8933 19.8705L20.7119 20.0798C20.1998 20.6893 19.9985 21.1374 19.9985 21.8268C19.9985 22.0037 20.0687 22.1733 20.1938 22.2983C20.3188 22.4234 20.4884 22.4936 20.6653 22.4936C20.8421 22.4936 21.0117 22.4234 21.1368 22.2983C21.2618 22.1733 21.3321 22.0037 21.3321 21.8268C21.3321 21.5561 21.4107 21.3481 21.6508 21.04L21.7641 20.9013L21.8975 20.7466L22.2536 20.3599L22.4323 20.1532C22.9364 19.5531 23.1377 19.109 23.1377 18.4288C23.1377 16.9579 22.0402 15.8283 20.6653 15.8283V15.8297ZM10.6634 0C12.4318 0 14.1278 0.702513 15.3783 1.95299C16.6288 3.20347 17.3313 4.89949 17.3313 6.66794C17.3313 8.43638 16.6288 10.1324 15.3783 11.3829C14.1278 12.6334 12.4318 13.3359 10.6634 13.3359C8.89492 13.3359 7.1989 12.6334 5.94842 11.3829C4.69794 10.1324 3.99543 8.43638 3.99543 6.66794C3.99543 4.89949 4.69794 3.20347 5.94842 1.95299C7.1989 0.702513 8.89492 0 10.6634 0Z" fill="white"/>
</svg>
