<svg width="17" height="18" viewBox="0 0 17 18" fill="none" xmlns="http://www.w3.org/2000/svg">
<path d="M7.01071 0.488888C7.3875 0.173161 7.86439 0 8.35714 0C8.84989 0 9.32679 0.173161 9.70357 0.488888L15.9714 5.74675C16.4431 6.14097 16.7143 6.72169 16.7143 7.33472V16.3843C16.7143 16.8128 16.5431 17.2238 16.2383 17.5268C15.9336 17.8298 15.5203 18 15.0893 18H12.3036C11.8726 18 11.4593 17.8298 11.1545 17.5268C10.8498 17.2238 10.6786 16.8128 10.6786 16.3843V11.7681C10.6786 11.5845 10.6052 11.4084 10.4746 11.2785C10.344 11.1486 10.1668 11.0757 9.98214 11.0757H6.73214C6.54744 11.0757 6.3703 11.1486 6.23969 11.2785C6.10909 11.4084 6.03571 11.5845 6.03571 11.7681V16.3843C6.03571 16.8128 5.86451 17.2238 5.55976 17.5268C5.25502 17.8298 4.84169 18 4.41071 18H1.625C1.4116 18 1.20029 17.9582 1.00314 17.877C0.805985 17.7958 0.626847 17.6768 0.475952 17.5268C0.325056 17.3768 0.20536 17.1986 0.123696 17.0026C0.0420319 16.8066 0 16.5965 0 16.3843V7.3338C0 6.72169 0.271143 6.14097 0.742857 5.74582L7.01071 0.488888Z" fill="white"/>
</svg>
