<svg width="25" height="25" viewBox="0 0 25 25" fill="none" xmlns="http://www.w3.org/2000/svg">
<path fill-rule="evenodd" clip-rule="evenodd" d="M7.77353 9.0217L7.68599 9.13812H9.65354C9.79535 9.13812 9.93132 9.19434 10.0316 9.29438C10.1318 9.39441 10.1881 9.53005 10.1881 9.67146C10.1881 9.81286 10.1318 9.94851 10.0316 10.0485C9.93132 10.1486 9.79535 10.2048 9.65354 10.2048H6.61711C6.4753 10.2048 6.33933 10.1486 6.23909 10.0485C6.13886 9.94851 6.08257 9.81286 6.08257 9.67146V6.64116C6.08257 6.49975 6.13886 6.36411 6.23909 6.26408C6.33933 6.16405 6.4753 6.10783 6.61711 6.10783C6.75892 6.10783 6.89489 6.16405 6.99513 6.26408C7.09536 6.36411 7.15165 6.49975 7.15165 6.64116V8.08182L7.27892 7.93779C8.37709 6.69506 9.87117 5.86834 11.5091 5.59712C13.1471 5.3259 14.8287 5.62679 16.2702 6.44902C17.7117 7.27124 18.8249 8.56447 19.422 10.1105C20.0191 11.6566 20.0636 13.3608 19.5481 14.9358C19.0325 16.5108 17.9884 17.8602 16.5918 18.7563C15.1952 19.6524 13.5316 20.0403 11.8817 19.8546C10.2318 19.669 8.69655 18.9211 7.53497 17.7372C6.37339 16.5533 5.65662 15.0057 5.50541 13.3557L5.505 13.3527C5.4954 13.2813 5.50037 13.2088 5.5196 13.1394C5.53884 13.0701 5.57195 13.0053 5.61694 12.9491C5.66193 12.8928 5.71787 12.8462 5.78141 12.8121C5.84494 12.7779 5.91475 12.757 5.98662 12.7505C6.05848 12.744 6.13093 12.7521 6.19957 12.7743C6.26822 12.7965 6.33164 12.8323 6.38602 12.8796C6.44041 12.9269 6.48463 12.9847 6.51603 13.0495C6.54742 13.1143 6.56528 13.1848 6.56866 13.2567L6.56895 13.2599C6.69931 14.6863 7.3258 16.0222 8.33976 17.0359C9.35371 18.0496 10.6912 18.6772 12.1202 18.8098C13.5492 18.9424 14.9796 18.5717 16.1635 17.762C17.3473 16.9522 18.2099 15.7545 18.6015 14.3765C18.9932 12.9985 18.8892 11.5272 18.3077 10.2177C17.7262 8.90817 16.7037 7.84311 15.4178 7.20718C14.1318 6.57124 12.6634 6.40454 11.2671 6.73595C9.87092 7.06737 8.63492 7.87602 7.77353 9.0217ZM12.6172 9.67146V12.7745H14.5118C14.6536 12.7745 14.7896 12.8307 14.8899 12.9307C14.9901 13.0308 15.0464 13.1664 15.0464 13.3078C15.0464 13.4492 14.9901 13.5849 14.8899 13.6849C14.7896 13.7849 14.6536 13.8411 14.5118 13.8411H12.0827C11.9409 13.8411 11.8049 13.7849 11.7047 13.6849C11.6044 13.5849 11.5482 13.4492 11.5482 13.3078V9.67146C11.5482 9.53005 11.6044 9.39441 11.7047 9.29438C11.8049 9.19434 11.9409 9.13812 12.0827 9.13812C12.2245 9.13812 12.3605 9.19434 12.4607 9.29438C12.5609 9.39441 12.6172 9.53005 12.6172 9.67146Z" fill="white"/>
<circle cx="12.5" cy="12.5" r="11.25" stroke="white" stroke-width="1.5"/>
</svg>
