<svg width="17" height="16" viewBox="0 0 17 16" fill="none" xmlns="http://www.w3.org/2000/svg">
<path fill-rule="evenodd" clip-rule="evenodd" d="M2.5368 3.91202L2.43957 4.04138H4.62505C4.78257 4.04138 4.9336 4.10385 5.04494 4.215C5.15627 4.32614 5.2188 4.47685 5.2188 4.63397C5.2188 4.79109 5.15627 4.94181 5.04494 5.05295C4.9336 5.1641 4.78257 5.22657 4.62505 5.22657H1.25229C1.09478 5.22657 0.94374 5.1641 0.832402 5.05295C0.721069 4.94181 0.658547 4.79109 0.658547 4.63397V1.26698C0.658547 1.10986 0.721069 0.959143 0.832402 0.848C0.94374 0.736852 1.09478 0.674385 1.25229 0.674385C1.40981 0.674385 1.56084 0.736852 1.67218 0.848C1.78351 0.959143 1.84604 1.10986 1.84604 1.26698V2.86771L1.98741 2.70768C3.20721 1.32687 4.86678 0.408287 6.68617 0.106934C8.50557 -0.19442 10.3734 0.139902 11.9746 1.05349C13.5757 1.96707 14.8122 3.40399 15.4755 5.12182C16.1388 6.83965 16.1882 8.73328 15.6155 10.4833C15.0429 12.2333 13.8831 13.7326 12.3318 14.7282C10.7805 15.7239 8.93265 16.1549 7.09999 15.9486C5.26734 15.7424 3.56206 14.9114 2.27182 13.5959C0.981582 12.2804 0.185414 10.561 0.0174582 8.7276L0.0170011 8.7242C0.00633799 8.64495 0.0118549 8.56437 0.033221 8.4873C0.0545873 8.41023 0.0913622 8.33827 0.141337 8.27575C0.191313 8.21324 0.253455 8.16146 0.324026 8.12354C0.394598 8.08562 0.472134 8.06236 0.551963 8.05515C0.631792 8.04794 0.712256 8.05694 0.788505 8.0816C0.864753 8.10626 0.935202 8.14608 0.995611 8.19863C1.05602 8.25119 1.10514 8.3154 1.14001 8.3874C1.17489 8.4594 1.19472 8.53769 1.19848 8.61756L1.1988 8.62112C1.34359 10.2061 2.03948 11.6904 3.16575 12.8167C4.29201 13.9431 5.77761 14.6404 7.3649 14.7877C8.95219 14.935 10.5411 14.5232 11.8561 13.6234C13.171 12.7237 14.1291 11.3929 14.5642 9.86184C14.9992 8.33072 14.8837 6.6959 14.2378 5.24089C13.5918 3.78588 12.4562 2.60248 11.0277 1.89589C9.59933 1.18929 7.96826 1.00406 6.41738 1.37231C4.8665 1.74055 3.4936 2.63905 2.5368 3.91202ZM7.917 4.63397V8.08178H10.0215C10.179 8.08178 10.33 8.14425 10.4414 8.25539C10.5527 8.36654 10.6152 8.51725 10.6152 8.67437C10.6152 8.83149 10.5527 8.98221 10.4414 9.09335C10.33 9.2045 10.179 9.26696 10.0215 9.26696H7.32326C7.16575 9.26696 7.01471 9.2045 6.90337 9.09335C6.79204 8.98221 6.72952 8.83149 6.72952 8.67437V4.63397C6.72952 4.47685 6.79204 4.32614 6.90337 4.215C7.01471 4.10385 7.16575 4.04138 7.32326 4.04138C7.48078 4.04138 7.63181 4.10385 7.74315 4.215C7.85448 4.32614 7.917 4.47685 7.917 4.63397Z" fill="white"/>
</svg>
