<svg width="22" height="22" viewBox="0 0 22 22" fill="none" xmlns="http://www.w3.org/2000/svg">
<path fill-rule="evenodd" clip-rule="evenodd" d="M2.25884 4.32252L0.587051 2.65074C0.538981 2.60254 0.477683 2.56971 0.41093 2.5564C0.344176 2.54308 0.274973 2.54989 0.212093 2.57596C0.149213 2.60202 0.095488 2.64617 0.0577294 2.7028C0.0199708 2.75944 -0.000121235 2.82601 5.50378e-07 2.89408V7.9067C5.50378e-07 8.09642 0.153981 8.2504 0.343707 8.2504H5.35632C5.42439 8.25053 5.49096 8.23043 5.5476 8.19267C5.60424 8.15492 5.64838 8.10119 5.67445 8.03831C5.70051 7.97543 5.70732 7.90623 5.69401 7.83947C5.6807 7.77272 5.64786 7.71142 5.59967 7.66335L3.73265 5.79634C4.9497 4.09657 6.72415 2.87728 8.74728 2.35062C10.7704 1.82396 12.9141 2.02326 14.8055 2.91384C16.6969 3.80443 18.2161 5.32993 19.099 7.22492C19.9818 9.11992 20.1724 11.2645 19.6374 13.2854C19.1025 15.3064 17.876 17.0758 16.1712 18.2859C14.4665 19.496 12.3915 20.0701 10.3072 19.9084C8.2229 19.7466 6.26128 18.8593 4.76364 17.4007C3.26599 15.9421 2.32711 14.0046 2.11036 11.9253C2.08228 11.6531 1.94723 11.4032 1.73491 11.2306C1.52258 11.058 1.25038 10.9768 0.97819 11.0049C0.705996 11.0329 0.456104 11.168 0.283486 11.3803C0.110869 11.5926 0.029667 11.8648 0.0577433 12.137C0.322244 14.6822 1.46578 17.0555 3.29148 18.8484C5.11718 20.6413 7.51082 21.7416 10.0603 21.9599C12.6098 22.1782 15.1557 21.5008 17.2596 20.0444C19.3636 18.588 20.8939 16.4437 21.5873 13.9806C22.2806 11.5175 22.0936 8.88968 21.0583 6.54961C20.0231 4.20955 18.2044 2.30361 15.9154 1.15992C13.6263 0.0162179 11.0102 -0.293681 8.51732 0.283568C6.02444 0.860817 3.81079 2.2891 2.25747 4.32252H2.25884ZM10.6549 5.50075C10.9284 5.50075 11.1906 5.60939 11.384 5.80276C11.5774 5.99613 11.686 6.2584 11.686 6.53187V10.6454L14.4742 11.7617C14.7199 11.8688 14.9142 12.0674 15.016 12.3153C15.1178 12.5633 15.119 12.8411 15.0195 13.09C14.9199 13.3388 14.7273 13.5391 14.4826 13.6484C14.2378 13.7577 13.9602 13.7674 13.7084 13.6755L10.2713 12.3006C10.0802 12.224 9.91636 12.092 9.80095 11.9214C9.68554 11.7509 9.62383 11.5497 9.62379 11.3438V6.53187C9.62379 6.2584 9.73242 5.99613 9.92579 5.80276C10.1192 5.60939 10.3814 5.50075 10.6549 5.50075V5.50075Z" fill="#DFEEF7"/>
</svg>
