<svg width="12" height="13" viewBox="0 0 12 13" fill="none" xmlns="http://www.w3.org/2000/svg">
<path d="M6 0.993164C2.6916 0.993164 0 3.68476 0 6.99316C0 10.3016 2.6916 12.9932 6 12.9932C9.3084 12.9932 12 10.3016 12 6.99316C12 3.68476 9.3084 0.993164 6 0.993164ZM6 11.7932C3.3534 11.7932 1.2 9.63976 1.2 6.99316C1.2 4.34656 3.3534 2.19316 6 2.19316C8.6466 2.19316 10.8 4.34656 10.8 6.99316C10.8 9.63976 8.6466 11.7932 6 11.7932Z" fill="white"/>
<path d="M6.5999 3.99316H5.3999V7.24156L7.3757 9.21736L8.2241 8.36896L6.5999 6.74476V3.99316Z" fill="white"/>
</svg>
