<svg width="16" height="20" viewBox="0 0 16 20" fill="none" xmlns="http://www.w3.org/2000/svg">
<path d="M11.9676 3.54912C10.8645 2.27548 9.62326 1.12843 8.26669 0.129127C8.14664 0.0450812 8.00364 0 7.85709 0C7.71054 0 7.56754 0.0450812 7.44749 0.129127C6.09095 1.12844 4.84972 2.27548 3.74669 3.54912C1.29562 6.36787 0 9.33965 0 12.1429C0 14.2267 0.827803 16.2252 2.3013 17.6987C3.7748 19.1722 5.77329 20 7.85713 20C9.94098 20 11.9395 19.1722 13.413 17.6987C14.8865 16.2252 15.7143 14.2267 15.7143 12.1429C15.7143 9.33965 14.4187 6.36787 11.9676 3.54912ZM7.85713 18.5714C6.15276 18.5695 4.51874 17.8916 3.31357 16.6864C2.10839 15.4813 1.43048 13.8472 1.42857 12.1429C1.42857 7.03278 6.38124 2.76654 7.85713 1.60895C9.33329 2.76671 14.2857 7.03278 14.2857 12.1429C14.2838 13.8472 13.6059 15.4813 12.4007 16.6864C11.1955 17.8916 9.56151 18.5695 7.85713 18.5714ZM12.7868 12.9818C12.6133 14.0019 12.1268 14.9428 11.3946 15.6741C10.6625 16.4053 9.72096 16.8907 8.70062 17.0629C8.60791 17.079 8.51295 17.0766 8.42118 17.0558C8.32941 17.0351 8.24265 16.9964 8.16588 16.942C8.08911 16.8876 8.02383 16.8186 7.97381 16.7389C7.92379 16.6592 7.89 16.5704 7.87439 16.4777C7.85877 16.3849 7.86165 16.2899 7.88283 16.1983C7.90402 16.1066 7.94311 16.02 7.99786 15.9435C8.05261 15.867 8.12193 15.802 8.20185 15.7524C8.28177 15.7027 8.37071 15.6694 8.46356 15.6542C9.19139 15.5314 9.86297 15.1851 10.3852 14.6635C10.9075 14.1419 11.2545 13.4708 11.3783 12.7431C11.4106 12.557 11.5154 12.3913 11.6697 12.2822C11.8239 12.1731 12.0151 12.1296 12.2014 12.1612C12.3876 12.1927 12.5538 12.2968 12.6635 12.4506C12.7732 12.6044 12.8176 12.7954 12.7868 12.9818Z" fill="white"/>
</svg>
