<svg width="23" height="23" viewBox="0 0 23 23" fill="none" xmlns="http://www.w3.org/2000/svg">
<path fill-rule="evenodd" clip-rule="evenodd" d="M21.5 11.5C21.5 17.0228 17.0228 21.5 11.5 21.5C5.97715 21.5 1.5 17.0228 1.5 11.5C1.5 5.97715 5.97715 1.5 11.5 1.5C17.0228 1.5 21.5 5.97715 21.5 11.5ZM23 11.5C23 17.8513 17.8513 23 11.5 23C5.14873 23 0 17.8513 0 11.5C0 5.14873 5.14873 0 11.5 0C17.8513 0 23 5.14873 23 11.5ZM18.0033 14.8521C18.1103 14.9072 18.1889 14.9968 18.2226 15.102C18.2522 15.2075 18.2344 15.3192 18.1729 15.4135C18.1114 15.5078 18.011 15.5775 17.8926 15.608L14.9042 16.308L14.6651 13.5922C14.6447 13.5321 14.6398 13.4687 14.6507 13.4066C14.6616 13.3445 14.6882 13.2854 14.7283 13.2336C14.7685 13.1817 14.8212 13.1384 14.8828 13.1068C14.9443 13.0753 15.0131 13.0562 15.0841 13.0511C15.1551 13.0459 15.2264 13.0549 15.293 13.0772C15.3596 13.0995 15.4196 13.1346 15.4688 13.18C15.518 13.2254 15.5551 13.2799 15.5774 13.3395C15.5996 13.3992 15.6065 13.4625 15.5975 13.5248L15.717 14.5833C16.2624 13.8606 16.5914 13.0278 16.6733 12.1627C16.7579 11.3413 16.6219 10.5139 16.2763 9.74755C15.9307 8.98118 15.3853 8.2974 14.6842 7.75162C14.5892 7.67774 14.5313 7.57364 14.5233 7.46216C14.5152 7.35068 14.5576 7.24094 14.6412 7.15701C14.7243 7.07814 14.8384 7.03027 14.9602 7.02322C15.082 7.01616 15.2022 7.05045 15.2963 7.11906C16.1099 7.75351 16.7429 8.54786 17.1441 9.43794C17.5453 10.328 17.7034 11.2888 17.6057 12.2428C17.5047 13.2624 17.1097 14.2423 16.4582 15.0893L17.6488 14.8068C17.7692 14.7808 17.8962 14.7971 18.0033 14.8521ZM6.33309 10.6719C6.38503 10.7047 6.44378 10.7257 6.50503 10.7333C6.60702 10.7464 6.71017 10.7196 6.7921 10.6585C6.87404 10.5975 6.92815 10.5072 6.94271 10.4072C7.10418 9.2367 7.71006 8.1693 8.63904 7.41874C9.56802 6.66817 10.7515 6.28986 11.9525 6.35956L11.0772 6.94656C11.0152 6.99237 10.9686 7.05524 10.9431 7.12716C10.9177 7.19908 10.9146 7.2768 10.9343 7.35044C10.954 7.42407 10.9956 7.49029 11.0537 7.54066C11.1119 7.59104 11.1839 7.62329 11.2608 7.63332C11.3489 7.64122 11.437 7.61958 11.5109 7.57193L13.5938 6.16773L11.8118 4.41055C11.7801 4.36285 11.738 4.32268 11.6885 4.29295C11.639 4.26323 11.5834 4.24469 11.5257 4.2387C11.468 4.23271 11.4096 4.23941 11.3549 4.2583C11.3002 4.2772 11.2504 4.30783 11.2092 4.34797C11.1681 4.3881 11.1365 4.43673 11.1169 4.49033C11.0972 4.54393 11.09 4.60115 11.0957 4.65784C11.1014 4.71453 11.1198 4.76927 11.1497 4.81807C11.1797 4.86688 11.2203 4.90853 11.2686 4.94001L11.933 5.59223C10.546 5.52713 9.18461 5.97489 8.1175 6.84712C7.05039 7.71936 6.35512 8.95268 6.16896 10.3036C6.15895 10.3739 6.16898 10.4455 6.19796 10.5106C6.22693 10.5756 6.27371 10.6314 6.33309 10.6719ZM11.0118 16.4123C11.7059 16.478 12.4069 16.4077 13.0714 16.206L13.0757 16.1979C13.1796 16.1759 13.2884 16.1917 13.3807 16.2423C13.4729 16.2928 13.5419 16.3744 13.574 16.4709C13.606 16.5674 13.5989 16.6719 13.5539 16.7636C13.5089 16.8554 13.4294 16.9277 13.331 16.9665C12.5583 17.2026 11.7428 17.2852 10.9352 17.2092C9.96913 17.1176 9.04016 16.8076 8.22584 16.3052C7.41152 15.8028 6.73548 15.1224 6.25418 14.321L6.07545 15.2918C6.05643 15.3853 6.00333 15.4694 5.92549 15.5293C5.84765 15.5893 5.75006 15.6212 5.64991 15.6194H5.57756C5.47053 15.5988 5.37593 15.5399 5.31335 15.4548C5.25078 15.3697 5.22501 15.265 5.24138 15.1623L5.71374 12.5937L6.33929 12.8081L8.29254 13.4958C8.37727 13.5447 8.44137 13.6202 8.47379 13.7092C8.5062 13.7983 8.50489 13.8953 8.47008 13.9835C8.43528 14.0718 8.36915 14.1457 8.28313 14.1925C8.19711 14.2394 8.09659 14.2562 7.99891 14.2401L6.93931 13.8639C7.34962 14.5709 7.9348 15.1724 8.64431 15.6163C9.35383 16.0603 10.1664 16.3335 11.0118 16.4123Z" fill="#42A9AF"/>
</svg>
