<svg width="20" height="20" viewBox="0 0 20 20" fill="none" xmlns="http://www.w3.org/2000/svg">
<path fill-rule="evenodd" clip-rule="evenodd" d="M17.3411 11.7197C17.9238 11.7197 18.4827 11.9511 18.8947 12.3632C19.3068 12.7753 19.5383 13.3341 19.5383 13.9169V14.8137C19.5384 15.3743 19.3631 15.9208 19.0371 16.3768C17.5277 18.49 15.0608 19.5354 11.7196 19.5354C9.6688 19.5354 7.94831 19.141 6.57689 18.3479H9.2218C9.67751 18.3479 10.0839 18.1804 10.3733 17.873C10.6525 17.5766 10.7801 17.1954 10.7799 16.8328C10.7796 16.4701 10.6514 16.089 10.3717 15.7928C10.0817 15.4858 9.67502 15.3189 9.21926 15.3193C8.70088 15.3197 7.02166 15.3197 5.47151 15.3196L4.3672 15.3195C4.56859 15.0512 4.67615 14.7221 4.67018 14.3837C4.66326 13.9914 4.50433 13.6171 4.22689 13.3396C4.16739 13.2801 4.10344 13.2261 4.03582 13.1778C4.14417 12.8745 4.31894 12.5957 4.55101 12.3635C4.96261 11.9518 5.52083 11.7202 6.10305 11.7197H17.3411ZM11.7196 0C13.0152 0 14.2576 0.514649 15.1737 1.43073C16.0898 2.34681 16.6044 3.58928 16.6044 4.88482C16.6044 6.18035 16.0898 7.42283 15.1737 8.33891C14.2576 9.25499 13.0152 9.76964 11.7196 9.76964C10.4241 9.76964 9.18161 9.25499 8.26553 8.33891C7.34944 7.42283 6.8348 6.18035 6.8348 4.88482C6.8348 3.58928 7.34944 2.34681 8.26553 1.43073C9.18161 0.514649 10.4241 0 11.7196 0ZM3.69228 14.9097C3.82171 14.7708 3.89217 14.5871 3.88882 14.3973C3.88547 14.2075 3.80857 14.0264 3.67432 13.8921C3.54008 13.7579 3.35896 13.681 3.16914 13.6776C2.97931 13.6743 2.7956 13.7447 2.6567 13.8742L0.214288 16.3166C0.0770726 16.4539 0 16.6402 0 16.8344C0 17.0285 0.0770726 17.2148 0.214288 17.3521L2.6567 19.7946C2.79495 19.928 2.98008 20.0017 3.17219 20C3.36431 19.9982 3.54805 19.9211 3.68384 19.7851C3.81963 19.6492 3.8966 19.4654 3.89818 19.2733C3.89976 19.0812 3.82582 18.8961 3.69228 18.758L2.50038 17.5661H9.2219C10.2575 17.5661 10.2575 16.0999 9.21994 16.1007C8.18236 16.1014 2.50136 16.1007 2.50136 16.1007L3.69228 14.9097Z" fill="white"/>
</svg>
