<svg width="18" height="18" viewBox="0 0 18 18" fill="none" xmlns="http://www.w3.org/2000/svg">
<rect width="18" height="18" rx="2" fill="#03396C"/>
<path d="M3 5.18492C3 4.42536 3.49813 4 4.16748 4C4.83684 4 5.33497 4.42536 5.33497 5.18492V13.8151C5.33497 14.5751 4.83684 15 4.16748 15C3.49813 15 3 14.5751 3 13.8151V5.18492ZM6.73595 5.26137C6.73595 4.56208 7.23408 4.09115 7.93457 4.09115H10.5196C14.007 4.09115 16 6.27919 16 9.65216C15.9995 12.8428 13.8825 14.9093 10.6748 14.9093H7.9657C7.45201 14.9093 6.73595 14.6354 6.73595 13.77V5.26137ZM9.07092 12.8124H10.6436C12.6522 12.8124 13.5701 11.3693 13.5701 9.54582C13.5701 7.60084 12.6366 6.18804 10.4875 6.18804H9.07042V12.8124H9.07092Z" fill="#DFEEF7"/>
</svg>
