<svg width="28" height="28" viewBox="0 0 28 28" fill="none" xmlns="http://www.w3.org/2000/svg">
<path d="M13.9805 0C21.7127 0 28 6.28731 28 14.0195C28 21.7517 21.7127 28 13.9805 28C6.24826 28 0 21.7517 0 14.0195C0 6.28731 6.24826 0 13.9805 0ZM13.8243 5.15481C13.4338 5.62343 13.2385 6.17015 13.2385 6.75593C13.2385 7.22455 13.3947 7.61506 13.629 7.88842C13.9024 8.16179 14.2929 8.31799 14.6834 8.31799C15.2301 8.31799 15.7378 8.08368 16.1283 7.61506C16.4798 7.18549 16.675 6.56067 16.675 5.89679C16.675 5.50628 16.5579 5.15481 16.2845 4.88145C16.0112 4.60809 15.6206 4.45188 15.2301 4.45188C14.7225 4.45188 14.2148 4.68619 13.8243 5.15481ZM10.2706 13.2385L10.7392 13.7462C11.0907 13.3556 11.4421 13.0432 11.6764 12.848C11.9107 12.6918 12.106 12.6137 12.2622 12.6137C12.3794 12.6137 12.4965 12.6527 12.5746 12.7308C12.6137 12.848 12.6527 12.9651 12.6527 13.1604C12.6527 14.1367 12.5356 14.7615 12.0279 17.1046C11.5202 19.4477 11.2469 21.166 11.2469 22.2985C11.2469 22.728 11.325 23.0404 11.4812 23.2357C11.5983 23.431 11.8326 23.5872 12.145 23.5872C12.6527 23.5872 13.3947 23.1967 14.2538 22.5328C15.113 21.8298 15.9721 20.8536 16.9093 19.6039L16.4017 19.1743C16.0893 19.5649 15.7768 19.8382 15.5425 20.0335C15.3082 20.1897 15.113 20.3459 14.9568 20.3459C14.8396 20.3459 14.7225 20.2287 14.6444 20.1506C14.6053 20.0335 14.5662 19.8773 14.5662 19.643C14.5662 19.4867 14.6053 18.9791 14.7615 18.0809C14.8787 17.1827 14.8396 17.1827 15.0739 15.855C15.113 15.4644 15.2301 14.9177 15.3473 14.2538C15.6597 12.2622 15.855 11.0516 15.855 10.6611C15.855 10.3096 15.7378 9.99721 15.6206 9.80195C15.4644 9.60669 15.2301 9.52859 14.9568 9.52859C14.4881 9.52859 13.8633 9.88006 13.0042 10.5049C12.145 11.1688 11.2859 12.0669 10.2706 13.2385Z" fill="white"/>
</svg>
