<svg width="17" height="16" viewBox="0 0 17 16" fill="none" xmlns="http://www.w3.org/2000/svg">
<path fill-rule="evenodd" clip-rule="evenodd" d="M5.86658 2C5.86658 1.86739 5.91926 1.74021 6.01302 1.64645C6.10679 1.55268 6.23397 1.5 6.36658 1.5C7.22858 1.5 7.93958 1.787 8.42658 2.066C8.60058 2.165 8.74758 2.264 8.86658 2.352C8.98558 2.264 9.13258 2.165 9.30658 2.066C9.93236 1.70144 10.6424 1.50636 11.3666 1.5C11.4992 1.5 11.6264 1.55268 11.7201 1.64645C11.8139 1.74021 11.8666 1.86739 11.8666 2C11.8666 2.13261 11.8139 2.25979 11.7201 2.35355C11.6264 2.44732 11.4992 2.5 11.3666 2.5C10.7286 2.5 10.1896 2.713 9.80258 2.934C9.65006 3.0209 9.50431 3.11917 9.36658 3.228V7.5H9.86658C9.99919 7.5 10.1264 7.55268 10.2201 7.64645C10.3139 7.74021 10.3666 7.86739 10.3666 8C10.3666 8.13261 10.3139 8.25979 10.2201 8.35355C10.1264 8.44732 9.99919 8.5 9.86658 8.5H9.36658V12.772C9.46658 12.852 9.61458 12.959 9.80258 13.066C10.1896 13.287 10.7286 13.5 11.3666 13.5C11.4992 13.5 11.6264 13.5527 11.7201 13.6464C11.8139 13.7402 11.8666 13.8674 11.8666 14C11.8666 14.1326 11.8139 14.2598 11.7201 14.3536C11.6264 14.4473 11.4992 14.5 11.3666 14.5C10.6424 14.4936 9.93236 14.2986 9.30658 13.934C9.15459 13.8478 9.00768 13.753 8.86658 13.65C8.7255 13.7534 8.57859 13.8485 8.42658 13.935C7.8008 14.2996 7.09077 14.4946 6.36658 14.501C6.23397 14.501 6.10679 14.4483 6.01302 14.3546C5.91926 14.2608 5.86658 14.1336 5.86658 14.001C5.86658 13.8684 5.91926 13.7412 6.01302 13.6474C6.10679 13.5537 6.23397 13.501 6.36658 13.501C7.00458 13.501 7.54358 13.288 7.93058 13.067C8.11858 12.96 8.26558 12.853 8.36658 12.773V8.5H7.86658C7.73397 8.5 7.60679 8.44732 7.51302 8.35355C7.41926 8.25979 7.36658 8.13261 7.36658 8C7.36658 7.86739 7.41926 7.74021 7.51302 7.64645C7.60679 7.55268 7.73397 7.5 7.86658 7.5H8.36658V3.228C8.22884 3.11917 8.0831 3.0209 7.93058 2.934C7.45581 2.65589 6.91677 2.5063 6.36658 2.5C6.23397 2.5 6.10679 2.44732 6.01302 2.35355C5.91926 2.25979 5.86658 2.13261 5.86658 2Z" fill="#F8F8F8"/>
<path d="M10.8666 5H14.8666C15.1318 5 15.3861 5.10536 15.5737 5.29289C15.7612 5.48043 15.8666 5.73478 15.8666 6V10C15.8666 10.2652 15.7612 10.5196 15.5737 10.7071C15.3861 10.8946 15.1318 11 14.8666 11H10.8666V12H14.8666C15.397 12 15.9057 11.7893 16.2808 11.4142C16.6559 11.0391 16.8666 10.5304 16.8666 10V6C16.8666 5.46957 16.6559 4.96086 16.2808 4.58579C15.9057 4.21071 15.397 4 14.8666 4H10.8666V5ZM6.86658 5V4H2.86658C2.33614 4 1.82744 4.21071 1.45236 4.58579C1.07729 4.96086 0.866577 5.46957 0.866577 6L0.866577 10C0.866577 10.5304 1.07729 11.0391 1.45236 11.4142C1.82744 11.7893 2.33614 12 2.86658 12H6.86658V11H2.86658C2.60136 11 2.34701 10.8946 2.15947 10.7071C1.97193 10.5196 1.86658 10.2652 1.86658 10V6C1.86658 5.73478 1.97193 5.48043 2.15947 5.29289C2.34701 5.10536 2.60136 5 2.86658 5H6.86658Z" fill="#F8F8F8"/>
</svg>
