<svg width="28" height="25" viewBox="0 0 28 25" fill="none" xmlns="http://www.w3.org/2000/svg">
<path d="M26.1333 0.348145H1.86667C1.3716 0.348145 0.896802 0.544811 0.546734 0.894878C0.196666 1.24495 0 1.71974 0 2.21481V22.7481C0 23.2432 0.196666 23.718 0.546734 24.0681C0.896802 24.4181 1.3716 24.6148 1.86667 24.6148H26.1333C26.6284 24.6148 27.1032 24.4181 27.4533 24.0681C27.8033 23.718 28 23.2432 28 22.7481V2.21481C28 1.71974 27.8033 1.24495 27.4533 0.894878C27.1032 0.544811 26.6284 0.348145 26.1333 0.348145ZM9.33333 22.7481H1.86667V2.21481H9.33333V22.7481ZM18.6667 22.7481H11.2V2.21481H18.6667V22.7481Z" fill="white"/>
</svg>
