<svg width="16" height="16" viewBox="0 0 16 16" fill="none" xmlns="http://www.w3.org/2000/svg">
<path d="M15.5129 7.66197C15.8376 7.98748 16 8.36933 16 8.80751C16 9.2457 15.8376 9.61502 15.5129 9.91549L9.92974 15.5493C9.605 15.8498 9.22404 16 8.78689 16C8.34973 16 7.98126 15.8498 7.6815 15.5493L0.487119 8.33803C0.162373 8.01252 0 7.63693 0 7.21127V1.57746C0 1.1518 0.156128 0.782473 0.468384 0.469484C0.78064 0.156495 1.16159 0 1.61124 0H7.19438C7.64403 0 8.01873 0.150235 8.3185 0.450704L15.5129 7.66197ZM2.79157 3.98122C3.12881 3.98122 3.41608 3.86854 3.6534 3.64319C3.89071 3.41784 4.00937 3.13615 4.00937 2.79812C4.00937 2.46009 3.89071 2.17214 3.6534 1.93427C3.41608 1.6964 3.12881 1.57746 2.79157 1.57746C2.45433 1.57746 2.1733 1.6964 1.94848 1.93427C1.72365 2.17214 1.61124 2.46009 1.61124 2.79812C1.61124 3.13615 1.72365 3.41784 1.94848 3.64319C2.1733 3.86854 2.45433 3.98122 2.79157 3.98122Z" fill="white"/>
</svg>
