<svg width="13" height="13" viewBox="0 0 13 13" fill="none" xmlns="http://www.w3.org/2000/svg">
<path d="M11.7273 4.1883L9.99384 5.92297C9.34873 6.56839 8.43567 6.77635 7.61531 6.55318L9.06173 5.10889C9.08332 5.08987 9.10618 5.07592 9.1265 5.05563L10.8599 3.32097C11.3387 2.84166 11.3387 2.06562 10.8599 1.58631C10.3812 1.10699 9.60525 1.10699 9.1265 1.58631L7.39562 3.32097L7.39435 3.3197L5.89586 4.81598C5.67997 3.99937 5.88951 3.09272 6.52954 2.45237L8.26169 0.718973C9.2192 -0.239658 10.7698 -0.239658 11.7273 0.718973C12.6835 1.6776 12.6835 3.22967 11.7273 4.1883ZM4.60055 8.7418L4.59801 8.74053C4.48499 8.85465 4.32879 8.92566 4.15482 8.92566C3.81067 8.92566 3.53256 8.64796 3.53256 8.30433C3.53256 8.12427 3.61003 7.96323 3.73321 7.85037L7.85151 3.73688C7.96453 3.61515 8.12581 3.53654 8.30614 3.53654C8.65028 3.53654 8.92839 3.8155 8.92839 4.15787C8.92839 4.32779 8.85982 4.48122 8.74934 4.59407L8.75188 4.59534L4.60055 8.7418ZM3.31668 7.38881L1.58326 9.12347C1.1045 9.60279 1.1045 10.3788 1.58326 10.8581C2.06201 11.3375 2.83792 11.3375 3.31541 10.8581L5.04883 9.12347C5.06153 9.11079 5.06915 9.09685 5.08058 9.08417L6.54732 7.61959C6.76574 8.43874 6.55748 9.34792 5.91491 9.99081L4.18275 11.7255C3.22524 12.6841 1.67342 12.6841 0.71718 11.7255C-0.23906 10.7681 -0.23906 9.21477 0.71718 8.25614L2.4506 6.52148C3.09317 5.87859 4.00243 5.66936 4.82025 5.88873L3.32938 7.37867C3.3243 7.38247 3.32049 7.38501 3.31668 7.38881Z" fill="white"/>
</svg>
