<svg width="15" height="14" viewBox="0 0 15 14" fill="none" xmlns="http://www.w3.org/2000/svg">
<path d="M4.36062 2.87557C4.44255 2.95761 4.48857 3.0688 4.48857 3.18474C4.48857 3.30068 4.44255 3.41188 4.36062 3.49391C3.90018 3.95433 3.53494 4.50094 3.28575 5.10253C3.03656 5.70411 2.9083 6.34888 2.9083 7.00003C2.9083 7.65118 3.03656 8.29596 3.28575 8.89754C3.53494 9.49912 3.90018 10.0457 4.36062 10.5062C4.44027 10.5887 4.48432 10.6992 4.48327 10.814C4.48222 10.9287 4.43616 11.0384 4.355 11.1195C4.27385 11.2005 4.16409 11.2465 4.04938 11.2474C3.93467 11.2484 3.82418 11.2042 3.7417 11.1245C1.46379 8.84657 1.46379 5.15349 3.7417 2.87557C3.82373 2.79365 3.93493 2.74763 4.05087 2.74763C4.16681 2.74763 4.278 2.79365 4.36003 2.87557H4.36062ZM11.9912 2.87557C14.2691 5.15349 14.2691 8.84657 11.9912 11.1251C11.9083 11.2024 11.7986 11.2444 11.6852 11.2424C11.5719 11.2404 11.4637 11.1945 11.3836 11.1144C11.3034 11.0342 11.2575 10.9261 11.2555 10.8127C11.2535 10.6994 11.2956 10.5897 11.3729 10.5067C11.8334 10.0463 12.1987 9.49966 12.448 8.89802C12.6972 8.29639 12.8255 7.65154 12.8255 7.00032C12.8255 6.3491 12.6972 5.70426 12.448 5.10263C12.1987 4.50099 11.8334 3.95434 11.3729 3.49391C11.3299 3.45386 11.2954 3.40555 11.2715 3.35189C11.2476 3.29822 11.2347 3.24029 11.2337 3.18155C11.2327 3.1228 11.2435 3.06445 11.2655 3.00998C11.2875 2.9555 11.3202 2.90601 11.3618 2.86447C11.4033 2.82292 11.4528 2.79017 11.5073 2.76817C11.5617 2.74617 11.6201 2.73536 11.6788 2.7364C11.7376 2.73743 11.7955 2.75029 11.8492 2.7742C11.9028 2.79811 11.9511 2.83259 11.9912 2.87557V2.87557ZM6.01028 4.52524C6.09221 4.60727 6.13823 4.71847 6.13823 4.83441C6.13823 4.95035 6.09221 5.06154 6.01028 5.14357C5.76644 5.38734 5.57301 5.67676 5.44104 5.99529C5.30906 6.31383 5.24114 6.65524 5.24114 7.00003C5.24114 7.34483 5.30906 7.68624 5.44104 8.00478C5.57301 8.32331 5.76644 8.61273 6.01028 8.85649C6.08756 8.93943 6.12964 9.04912 6.12764 9.16246C6.12564 9.27581 6.07972 9.38395 5.99956 9.4641C5.91941 9.54426 5.81127 9.59018 5.69792 9.59218C5.58458 9.59418 5.47489 9.5521 5.39195 9.47482C4.73562 8.81845 4.36691 7.92825 4.36691 7.00003C4.36691 6.07182 4.73562 5.18161 5.39195 4.52524C5.47398 4.44331 5.58518 4.39729 5.70112 4.39729C5.81706 4.39729 5.92825 4.44331 6.01028 4.52524ZM10.3415 4.52524C10.9979 5.18161 11.3666 6.07182 11.3666 7.00003C11.3666 7.92825 10.9979 8.81845 10.3415 9.47482C10.3012 9.51663 10.2529 9.54998 10.1996 9.57293C10.1462 9.59589 10.0888 9.60798 10.0307 9.60852C9.97262 9.60905 9.91501 9.59801 9.86123 9.57603C9.80745 9.55406 9.75859 9.5216 9.71749 9.48054C9.67639 9.43948 9.64389 9.39065 9.62186 9.33689C9.59984 9.28314 9.58874 9.22553 9.58922 9.16744C9.5897 9.10935 9.60174 9.05194 9.62464 8.99855C9.64755 8.94516 9.68085 8.89687 9.72262 8.85649C9.96638 8.61274 10.1597 8.32336 10.2917 8.00488C10.4236 7.68639 10.4915 7.34505 10.4915 7.00032C10.4915 6.6556 10.4236 6.31426 10.2917 5.99577C10.1597 5.67729 9.96638 5.38791 9.72262 5.14416C9.64534 5.06122 9.60327 4.95153 9.60527 4.83819C9.60727 4.72484 9.65318 4.6167 9.73334 4.53655C9.8135 4.45639 9.92164 4.41047 10.035 4.40847C10.1483 4.40647 10.258 4.44854 10.341 4.52582L10.3415 4.52524ZM7.86645 6.12532C8.09852 6.12532 8.32108 6.21751 8.48517 6.38161C8.64926 6.5457 8.74145 6.76826 8.74145 7.00032C8.74145 7.23239 8.64926 7.45495 8.48517 7.61904C8.32108 7.78314 8.09852 7.87532 7.86645 7.87532C7.63439 7.87532 7.41183 7.78314 7.24773 7.61904C7.08364 7.45495 6.99145 7.23239 6.99145 7.00032C6.99145 6.76826 7.08364 6.5457 7.24773 6.38161C7.41183 6.21751 7.63439 6.12532 7.86645 6.12532Z" fill="#F8F8F8"/>
</svg>
