<svg width="27" height="24" viewBox="0 0 27 24" fill="none" xmlns="http://www.w3.org/2000/svg">
<path d="M16.125 6.5V3.75C16.125 3.02065 15.8353 2.32118 15.3195 1.80546C14.8038 1.28973 14.1043 1 13.375 1H3.75C3.02065 1 2.32118 1.28973 1.80546 1.80546C1.28973 2.32118 1 3.02065 1 3.75V20.25C1 20.9793 1.28973 21.6788 1.80546 22.1945C2.32118 22.7103 3.02065 23 3.75 23H13.375C14.1043 23 14.8038 22.7103 15.3195 22.1945C15.8353 21.6788 16.125 20.9793 16.125 20.25V17.5" stroke="white" stroke-width="2" stroke-linecap="round" stroke-linejoin="round"/>
<path d="M6.5 12H25.75M25.75 12L21.625 7.875M25.75 12L21.625 16.125" stroke="white" stroke-width="2" stroke-linecap="round" stroke-linejoin="round"/>
</svg>
