<svg width="29" height="33" viewBox="0 0 29 33" fill="none" xmlns="http://www.w3.org/2000/svg">
<path fill-rule="evenodd" clip-rule="evenodd" d="M25.7301 10.4036C26.1377 10.1683 26.6612 10.3366 26.8512 10.7594C29.7643 17.2265 27.3626 24.974 21.0979 28.591C17.0095 30.9514 12.2195 31.0066 8.24087 29.1691L6.73352 28.4729L8.66349 31.8157C8.88021 32.1911 8.74961 32.6785 8.37423 32.8952C7.99886 33.1119 7.51143 32.9813 7.2947 32.606L4.66047 28.0433C4.44375 27.668 4.57436 27.1805 4.94973 26.9638L9.51235 24.3296C9.88773 24.1129 10.3752 24.2435 10.5919 24.6188C10.8086 24.9942 10.678 25.4816 10.3026 25.6984L7.76094 27.1658L8.64482 27.6018C12.2196 29.3651 16.5901 29.3685 20.3076 27.2222C25.8709 24.0102 28.0091 17.1218 25.3968 11.3855C25.2403 11.0376 25.375 10.6086 25.7301 10.4036ZM1.38105 22.2359C-1.52902 15.7696 0.873142 8.02518 7.13648 4.40904C9.0759 3.28854 11.2566 2.65097 13.4942 2.55032C15.7317 2.44966 17.9607 2.88878 19.9929 3.83063L21.5028 4.53039L19.5709 1.1843C19.3542 0.808928 19.4848 0.321495 19.8602 0.104773C20.2355 -0.11195 20.723 0.0186573 20.9397 0.394031L23.5739 4.95666C23.7906 5.33203 23.66 5.81946 23.2847 6.03619L18.722 8.67042C18.3467 8.88714 17.8592 8.75653 17.6425 8.38116C17.4258 8.00578 17.5564 7.51835 17.9318 7.30163L20.4735 5.83419L19.5896 5.39821C16.0148 3.63492 11.6443 3.63152 7.92675 5.77783C2.36351 8.98977 0.225296 15.8782 2.83755 21.6145C2.99407 21.9624 2.85937 22.3914 2.50424 22.5964C2.10535 22.8267 1.58544 22.6662 1.38105 22.2359Z" fill="white"/>
<path fill-rule="evenodd" clip-rule="evenodd" d="M13.1723 11.2853C13.3573 11.2285 13.5329 11.3766 13.5273 11.5701L13.2703 20.3926C13.2634 20.6281 13.5183 20.7792 13.7216 20.6602L14.7258 20.0727C14.8189 20.0182 14.8756 19.918 14.8743 19.8101L14.7742 11.5489C14.7719 11.3634 14.9387 11.22 15.1198 11.2604C19.5418 12.2486 20.2024 18.3703 20.4144 21.4394C20.4249 21.5921 20.548 21.7119 20.7009 21.7187L21.7015 21.763C21.8741 21.7706 22.0176 21.629 22.0123 21.4564C21.7983 14.48 18.2205 10.469 15.0339 10.0703C14.8777 10.0507 14.7545 9.92267 14.7526 9.76529L14.7439 9.04766C14.7413 8.83348 14.5215 8.69094 14.3249 8.7759L13.7749 9.01353C13.6679 9.05975 13.5974 9.16372 13.594 9.28019L13.577 9.86302C13.5728 10.0087 13.4627 10.1298 13.3193 10.1557C8.49658 11.0253 6.55484 16.361 6.23196 21.335C6.22116 21.5013 6.34993 21.6425 6.51636 21.6499L7.48972 21.693C7.65998 21.7005 7.80214 21.5616 7.80523 21.3912C7.92599 14.7269 11.0348 11.942 13.1723 11.2853Z" fill="white"/>
<path d="M7.48972 21.693L7.47866 21.9427L7.48972 21.693ZM6.51636 21.6499L6.52742 21.4001L6.51636 21.6499ZM13.577 9.86302L13.3272 9.85574L13.577 9.86302ZM13.7749 9.01353L13.6758 8.78404L13.7749 9.01353ZM13.594 9.28019L13.8439 9.28747L13.594 9.28019ZM14.7439 9.04766L14.4939 9.05069L14.7439 9.04766ZM15.0339 10.0703L15.0028 10.3183L15.0339 10.0703ZM21.7015 21.763L21.7126 21.5132L21.7015 21.763ZM22.0123 21.4564L21.7624 21.464L22.0123 21.4564ZM20.4144 21.4394L20.165 21.4566L20.4144 21.4394ZM20.7009 21.7187L20.6898 21.9684L20.7009 21.7187ZM14.7742 11.5489L14.5242 11.5519L14.7742 11.5489ZM15.1198 11.2604L15.1743 11.0165L15.1198 11.2604ZM14.7258 20.0727L14.5996 19.8569L14.7258 20.0727ZM14.8743 19.8101L14.6243 19.8132L14.8743 19.8101ZM13.2703 20.3926L13.0204 20.3853L13.2703 20.3926ZM13.7216 20.6602L13.5954 20.4445L13.7216 20.6602ZM13.5201 20.3998L13.7772 11.5773L13.2774 11.5628L13.0204 20.3853L13.5201 20.3998ZM14.5996 19.8569L13.5954 20.4445L13.8479 20.876L14.8521 20.2885L14.5996 19.8569ZM14.5242 11.5519L14.6243 19.8132L15.1243 19.8071L15.0242 11.5458L14.5242 11.5519ZM15.0653 11.5044C17.1548 11.9713 18.3792 13.652 19.111 15.6553C19.8424 17.6572 20.0591 19.9242 20.165 21.4566L20.6638 21.4222C20.5576 19.8855 20.3381 17.5571 19.5807 15.4838C18.8237 13.4119 17.5068 11.5377 15.1743 11.0165L15.0653 11.5044ZM20.6898 21.9684L21.6904 22.0127L21.7126 21.5132L20.7119 21.4689L20.6898 21.9684ZM22.2622 21.4487C22.0464 14.4142 18.4287 10.2431 15.0649 9.8222L15.0028 10.3183C18.0124 10.6949 21.5503 14.5458 21.7624 21.464L22.2622 21.4487ZM14.4939 9.05069L14.5026 9.76832L15.0025 9.76226L14.9938 9.04463L14.4939 9.05069ZM13.8741 9.24302L14.4241 9.00539L14.2257 8.5464L13.6758 8.78404L13.8741 9.24302ZM13.8269 9.8703L13.8439 9.28747L13.3441 9.27291L13.3272 9.85574L13.8269 9.8703ZM13.275 9.90962C10.7701 10.3613 9.02326 11.9748 7.86884 14.0863C6.71703 16.193 6.14537 18.8095 5.98248 21.3188L6.48143 21.3512C6.64142 18.8865 7.20208 16.3482 8.30755 14.3261C9.41041 12.3089 11.0459 10.8197 13.3637 10.4017L13.275 9.90962ZM6.5053 21.8996L7.47866 21.9427L7.50078 21.4432L6.52742 21.4001L6.5053 21.8996ZM8.05519 21.3957C8.17448 14.8121 11.2356 12.1419 13.2458 11.5243L13.0989 11.0463C10.8341 11.7422 7.67749 14.6417 7.55527 21.3867L8.05519 21.3957ZM7.47866 21.9427C7.79521 21.9567 8.04966 21.7009 8.05519 21.3957L7.55527 21.3867C7.55498 21.4027 7.54822 21.4177 7.53677 21.4287C7.52564 21.4395 7.51307 21.4438 7.50078 21.4432L7.47866 21.9427ZM5.98248 21.3188C5.96245 21.6274 6.20143 21.8862 6.5053 21.8996L6.52742 21.4001C6.49844 21.3988 6.47987 21.3752 6.48143 21.3512L5.98248 21.3188ZM13.3272 9.85574C13.3265 9.87649 13.3088 9.90352 13.275 9.90962L13.3637 10.4017C13.6167 10.3561 13.8191 10.1408 13.8269 9.8703L13.3272 9.85574ZM13.6758 8.78404C13.4797 8.86876 13.3504 9.05938 13.3441 9.27291L13.8439 9.28747C13.8445 9.26806 13.8562 9.25073 13.8741 9.24302L13.6758 8.78404ZM14.9938 9.04463C14.9891 8.65197 14.5862 8.39065 14.2257 8.5464L14.4241 9.00539C14.4568 8.99123 14.4935 9.01499 14.4939 9.05069L14.9938 9.04463ZM15.0649 9.8222C15.0228 9.81693 15.0028 9.78506 15.0025 9.76226L14.5026 9.76832C14.5061 10.0603 14.7326 10.2845 15.0028 10.3183L15.0649 9.8222ZM21.6904 22.0127C22.0084 22.0268 22.2719 21.7667 22.2622 21.4487L21.7624 21.464C21.7633 21.4913 21.7398 21.5144 21.7126 21.5132L21.6904 22.0127ZM20.165 21.4566C20.1843 21.7364 20.4102 21.9561 20.6898 21.9684L20.7119 21.4689C20.6858 21.4678 20.6655 21.4477 20.6638 21.4222L20.165 21.4566ZM15.0242 11.5458C15.024 11.5305 15.0304 11.5186 15.0393 11.5111C15.0476 11.5041 15.0558 11.5023 15.0653 11.5044L15.1743 11.0165C14.8261 10.9386 14.5201 11.2152 14.5242 11.5519L15.0242 11.5458ZM14.8521 20.2885C15.0228 20.1886 15.1267 20.0048 15.1243 19.8071L14.6243 19.8132C14.6246 19.8311 14.6151 19.8478 14.5996 19.8569L14.8521 20.2885ZM13.7772 11.5773C13.7873 11.2321 13.4656 10.9337 13.0989 11.0463L13.2458 11.5243C13.2514 11.5226 13.2541 11.523 13.2552 11.5233C13.2568 11.5236 13.2597 11.5247 13.2633 11.5276C13.2705 11.5335 13.2779 11.5451 13.2774 11.5628L13.7772 11.5773ZM13.0204 20.3853C13.0078 20.8171 13.475 21.0942 13.8479 20.876L13.5954 20.4445C13.5615 20.4643 13.519 20.4391 13.5201 20.3998L13.0204 20.3853Z" fill="white"/>
</svg>
