<svg width="21" height="21" viewBox="0 0 21 21" fill="none" xmlns="http://www.w3.org/2000/svg">
<path d="M5.55882 2.54763e-07C5.17548 -0.000200711 4.80151 0.118499 4.48845 0.339741C4.1754 0.560982 3.93866 0.873874 3.81088 1.23529H1.85294C1.36151 1.23529 0.890208 1.43051 0.542714 1.77801C0.19522 2.1255 0 2.59681 0 3.08824V17.9118C0 18.4032 0.19522 18.8745 0.542714 19.222C0.890208 19.5695 1.36151 19.7647 1.85294 19.7647H10.1998C9.8852 19.3837 9.61306 18.9694 9.38824 18.5294H1.85294C1.68913 18.5294 1.53203 18.4643 1.4162 18.3485C1.30037 18.2327 1.23529 18.0756 1.23529 17.9118V3.08824C1.23529 2.92443 1.30037 2.76732 1.4162 2.65149C1.53203 2.53566 1.68913 2.47059 1.85294 2.47059H3.81088C3.93866 2.83201 4.1754 3.1449 4.48845 3.36614C4.80151 3.58738 5.17548 3.70608 5.55882 3.70588H9.26471C9.64805 3.70608 10.022 3.58738 10.3351 3.36614C10.6481 3.1449 10.8849 2.83201 11.0126 2.47059H12.9706C13.1344 2.47059 13.2915 2.53566 13.4073 2.65149C13.5232 2.76732 13.5882 2.92443 13.5882 3.08824V8.90276C13.992 8.78846 14.4056 8.71196 14.8235 8.67424V3.08824C14.8235 2.59681 14.6283 2.1255 14.2808 1.77801C13.9333 1.43051 13.462 1.23529 12.9706 1.23529H11.0126C10.8849 0.873874 10.6481 0.560982 10.3351 0.339741C10.022 0.118499 9.64805 -0.000200711 9.26471 2.54763e-07H5.55882ZM4.94118 1.85294C4.94118 1.68913 5.00625 1.53203 5.12208 1.4162C5.23791 1.30037 5.39501 1.23529 5.55882 1.23529H9.26471C9.42852 1.23529 9.58562 1.30037 9.70145 1.4162C9.81728 1.53203 9.88235 1.68913 9.88235 1.85294C9.88235 2.01675 9.81728 2.17385 9.70145 2.28968C9.58562 2.40551 9.42852 2.47059 9.26471 2.47059H5.55882C5.39501 2.47059 5.23791 2.40551 5.12208 2.28968C5.00625 2.17385 4.94118 2.01675 4.94118 1.85294ZM10.9373 9.702C11.0533 9.58602 11.1184 9.42872 11.1184 9.26471C11.1184 9.10069 11.0533 8.94339 10.9373 8.82741C10.8213 8.71143 10.664 8.64628 10.5 8.64628C10.336 8.64628 10.1787 8.71143 10.0627 8.82741L6.17647 12.7149L4.76082 11.298C4.7034 11.2406 4.63522 11.195 4.56019 11.1639C4.48516 11.1329 4.40474 11.1169 4.32353 11.1169C4.24232 11.1169 4.1619 11.1329 4.08687 11.1639C4.01184 11.195 3.94366 11.2406 3.88624 11.298C3.82881 11.3554 3.78326 11.4236 3.75218 11.4986C3.7211 11.5737 3.7051 11.6541 3.7051 11.7353C3.7051 11.8165 3.7211 11.8969 3.75218 11.972C3.78326 12.047 3.82881 12.1152 3.88624 12.1726L5.73918 14.0255C5.79655 14.083 5.86471 14.1287 5.93975 14.1598C6.01478 14.191 6.09523 14.207 6.17647 14.207C6.25771 14.207 6.33816 14.191 6.41319 14.1598C6.48823 14.1287 6.55639 14.083 6.61376 14.0255L10.9373 9.702ZM21 15.4412C21 16.9155 20.4143 18.3294 19.3719 19.3719C18.3294 20.4143 16.9155 21 15.4412 21C13.9669 21 12.553 20.4143 11.5105 19.3719C10.468 18.3294 9.88235 16.9155 9.88235 15.4412C9.88235 13.9669 10.468 12.553 11.5105 11.5105C12.553 10.468 13.9669 9.88235 15.4412 9.88235C16.9155 9.88235 18.3294 10.468 19.3719 11.5105C20.4143 12.553 21 13.9669 21 15.4412ZM16.0588 12.9706C16.0588 12.8068 15.9938 12.6497 15.8779 12.5338C15.7621 12.418 15.605 12.3529 15.4412 12.3529C15.2774 12.3529 15.1203 12.418 15.0044 12.5338C14.8886 12.6497 14.8235 12.8068 14.8235 12.9706V14.8235H12.9706C12.8068 14.8235 12.6497 14.8886 12.5338 15.0044C12.418 15.1203 12.3529 15.2774 12.3529 15.4412C12.3529 15.605 12.418 15.7621 12.5338 15.8779C12.6497 15.9938 12.8068 16.0588 12.9706 16.0588H14.8235V17.9118C14.8235 18.0756 14.8886 18.2327 15.0044 18.3485C15.1203 18.4643 15.2774 18.5294 15.4412 18.5294C15.605 18.5294 15.7621 18.4643 15.8779 18.3485C15.9938 18.2327 16.0588 18.0756 16.0588 17.9118V16.0588H17.9118C18.0756 16.0588 18.2327 15.9938 18.3485 15.8779C18.4643 15.7621 18.5294 15.605 18.5294 15.4412C18.5294 15.2774 18.4643 15.1203 18.3485 15.0044C18.2327 14.8886 18.0756 14.8235 17.9118 14.8235H16.0588V12.9706Z" fill="white"/>
</svg>
