<svg width="20" height="20" viewBox="0 0 20 20" fill="none" xmlns="http://www.w3.org/2000/svg">
<path d="M19.9365 16.8352C18.9396 15.2143 16.966 14.1177 14.7063 14.1177C12.4465 14.1177 10.4724 15.2151 9.47607 16.8354C9.43402 16.9047 9.41211 16.9813 9.41211 17.059C9.41211 17.1366 9.43402 17.2132 9.47607 17.2825C10.473 18.9034 12.4465 20.0001 14.7063 20.0001C16.966 20.0001 18.9401 18.9026 19.9365 17.2824C19.9785 17.2131 20.0004 17.1365 20.0004 17.0588C20.0004 16.9811 19.9785 16.9045 19.9365 16.8352V16.8352ZM14.7063 19.2648C14.1827 19.2648 13.6709 19.1354 13.2356 18.893C12.8003 18.6506 12.461 18.3061 12.2607 17.903C12.0603 17.5 12.0079 17.0564 12.11 16.6285C12.2122 16.2006 12.4643 15.8076 12.8345 15.4991C13.2047 15.1906 13.6764 14.9805 14.1899 14.8954C14.7033 14.8102 15.2356 14.8539 15.7193 15.0209C16.203 15.1879 16.6164 15.4706 16.9072 15.8333C17.1981 16.1961 17.3534 16.6226 17.3534 17.0589C17.3535 17.3486 17.2852 17.6355 17.1522 17.9032C17.0192 18.1709 16.8243 18.4141 16.5784 18.619C16.3326 18.8239 16.0407 18.9863 15.7195 19.0972C15.3982 19.208 15.0539 19.2649 14.7063 19.2648V19.2648ZM14.7063 15.5883C14.5488 15.5901 14.3923 15.6096 14.241 15.6463C14.3657 15.7875 14.4255 15.9613 14.4096 16.1361C14.3938 16.3109 14.3033 16.4751 14.1545 16.5991C14.0058 16.723 13.8087 16.7985 13.5989 16.8117C13.3891 16.8249 13.1806 16.7751 13.0112 16.6712C12.9147 16.9674 12.9322 17.2813 13.061 17.5688C13.1899 17.8564 13.4237 18.103 13.7295 18.274C14.0354 18.4449 14.3979 18.5317 14.766 18.522C15.1341 18.5123 15.4893 18.4067 15.7816 18.2199C16.0739 18.0332 16.2886 17.7748 16.3954 17.4811C16.5022 17.1873 16.4958 16.8731 16.3771 16.5826C16.2584 16.292 16.0333 16.0398 15.7336 15.8615C15.4339 15.6831 15.0746 15.5876 14.7063 15.5883V15.5883Z" fill="white"/>
<path d="M3.52979 4.70592C3.52979 3.45784 4.02559 2.26086 4.90812 1.37833C5.79065 0.495801 6.98762 0 8.23571 0C9.4838 0 10.6808 0.495801 11.5633 1.37833C12.4458 2.26086 12.9416 3.45784 12.9416 4.70592C12.9416 5.95401 12.4458 7.15098 11.5633 8.03352C10.6808 8.91605 9.4838 9.41185 8.23571 9.41185C6.98762 9.41185 5.79065 8.91605 4.90812 8.03352C4.02559 7.15098 3.52979 5.95401 3.52979 4.70592V4.70592ZM8.23571 1.17648C7.77222 1.17648 7.31326 1.26777 6.88505 1.44514C6.45684 1.62252 6.06776 1.88249 5.74002 2.21023C5.41228 2.53797 5.1523 2.92705 4.97493 3.35526C4.79756 3.78348 4.70627 4.24243 4.70627 4.70592C4.70627 5.16942 4.79756 5.62837 4.97493 6.05658C5.1523 6.4848 5.41228 6.87388 5.74002 7.20162C6.06776 7.52936 6.45684 7.78933 6.88505 7.9667C7.31326 8.14408 7.77222 8.23537 8.23571 8.23537C9.17178 8.23537 10.0695 7.86352 10.7314 7.20162C11.3933 6.53972 11.7652 5.64199 11.7652 4.70592C11.7652 3.76986 11.3933 2.87213 10.7314 2.21023C10.0695 1.54833 9.17178 1.17648 8.23571 1.17648V1.17648Z" fill="white"/>
<path fill-rule="evenodd" clip-rule="evenodd" d="M2.36355 10.5884C1.06236 10.5884 0 11.6319 0 12.9413C0 14.9296 0.980009 16.432 2.51179 17.4084C4.02004 18.3696 6.05299 18.8237 8.23537 18.8237C8.56631 18.8237 8.89381 18.8133 9.21657 18.7922C8.90168 18.4407 8.62487 18.0571 8.39254 17.6464C8.34032 17.647 8.28793 17.6473 8.23537 17.6473C6.19417 17.6473 4.40357 17.219 3.14473 16.4155C1.90825 15.6284 1.17648 14.4814 1.17648 12.9413C1.17648 12.2907 1.70354 11.7649 2.36355 11.7649H14.1178C14.4298 11.7649 14.729 11.8888 14.9497 12.1094C15.1703 12.3301 15.2943 12.6293 15.2943 12.9413C15.2943 12.9487 15.2942 12.956 15.2942 12.9634C15.6946 12.9937 16.0867 13.0547 16.4673 13.1441C16.4696 13.0771 16.4707 13.0095 16.4707 12.9413C16.4707 12.3173 16.2228 11.7188 15.7816 11.2775C15.3403 10.8363 14.7418 10.5884 14.1178 10.5884H2.36355Z" fill="white"/>
</svg>
