<svg width="24" height="24" viewBox="0 0 24 24" fill="none" xmlns="http://www.w3.org/2000/svg">
<circle cx="12" cy="12" r="12" fill="#03396C"/>
<path fill-rule="evenodd" clip-rule="evenodd" d="M7.47057 8.29412C7.47057 7.42046 7.81763 6.58259 8.43539 5.96482C9.05316 5.34706 9.89103 5 10.7647 5C11.6383 5 12.4762 5.34706 13.094 5.96482C13.7117 6.58259 14.0588 7.42046 14.0588 8.29412C14.0588 9.16777 13.7117 10.0056 13.094 10.6234C12.4762 11.2412 11.6383 11.5882 10.7647 11.5882C9.89103 11.5882 9.05316 11.2412 8.43539 10.6234C7.81763 10.0056 7.47057 9.16777 7.47057 8.29412ZM10.7647 5.82353C10.4402 5.82353 10.119 5.88743 9.81923 6.01159C9.51949 6.13575 9.24713 6.31773 9.01772 6.54715C8.7883 6.77656 8.60632 7.04892 8.48216 7.34866C8.358 7.64841 8.2941 7.96968 8.2941 8.29412C8.2941 8.61856 8.358 8.93983 8.48216 9.23957C8.60632 9.53932 8.7883 9.81167 9.01772 10.0411C9.24713 10.2705 9.51949 10.4525 9.81923 10.5766C10.119 10.7008 10.4402 10.7647 10.7647 10.7647C11.4199 10.7647 12.0483 10.5044 12.5117 10.0411C12.975 9.57776 13.2353 8.94936 13.2353 8.29412C13.2353 7.63888 12.975 7.01047 12.5117 6.54715C12.0483 6.08382 11.4199 5.82353 10.7647 5.82353ZM18.9552 16.7845C18.2574 15.6499 16.8759 14.8823 15.2941 14.8823C13.7123 14.8823 12.3304 15.6505 11.633 16.7847C11.6035 16.8332 11.5882 16.8868 11.5882 16.9412C11.5882 16.9955 11.6035 17.0491 11.633 17.0977C12.3308 18.2323 13.7123 18.9999 15.2941 18.9999C16.8759 18.9999 18.2578 18.2317 18.9552 17.0976C18.9846 17.049 19 16.9954 19 16.941C19 16.8867 18.9846 16.8331 18.9552 16.7845ZM15.2941 18.4852C14.9276 18.4852 14.5694 18.3947 14.2647 18.225C13.9599 18.0553 13.7224 17.8142 13.5822 17.532C13.442 17.2499 13.4053 16.9394 13.4768 16.6399C13.5483 16.3403 13.7247 16.0652 13.9839 15.8492C14.243 15.6333 14.5732 15.4862 14.9326 15.4267C15.292 15.3671 15.6646 15.3977 16.0032 15.5145C16.3418 15.6314 16.6312 15.8293 16.8348 16.0832C17.0384 16.3372 17.147 16.6357 17.147 16.9411C17.1472 17.1439 17.0993 17.3447 17.0062 17.5321C16.9132 17.7195 16.7767 17.8898 16.6046 18.0332C16.4325 18.1766 16.2282 18.2903 16.0033 18.3679C15.7785 18.4454 15.5375 18.4853 15.2941 18.4852ZM15.2941 15.9117C15.1838 15.913 15.0743 15.9266 14.9684 15.9523C15.0557 16.0512 15.0976 16.1728 15.0865 16.2951C15.0753 16.4175 15.012 16.5325 14.9079 16.6193C14.8038 16.706 14.6658 16.7588 14.5189 16.7681C14.3721 16.7773 14.2262 16.7424 14.1076 16.6697C14.04 16.877 14.0522 17.0968 14.1424 17.2981C14.2326 17.4993 14.3963 17.672 14.6104 17.7916C14.8245 17.9113 15.0782 17.9721 15.3359 17.9653C15.5936 17.9585 15.8422 17.8845 16.0468 17.7538C16.2514 17.6231 16.4017 17.4422 16.4765 17.2366C16.5513 17.031 16.5468 16.8111 16.4637 16.6077C16.3806 16.4043 16.223 16.2278 16.0132 16.1029C15.8034 15.9781 15.5519 15.9112 15.2941 15.9117ZM5 14.0591C5 13.1425 5.74365 12.412 6.65447 12.412H14.8824C15.3192 12.412 15.7381 12.5855 16.047 12.8944C16.3559 13.2033 16.5294 13.6223 16.5294 14.0591C16.5294 14.1067 16.5286 14.154 16.527 14.2008C16.2606 14.1382 15.9861 14.0955 15.7058 14.0743L15.7059 14.0591C15.7059 13.8407 15.6191 13.6312 15.4647 13.4768C15.3102 13.3223 15.1008 13.2355 14.8824 13.2355H6.65447C6.19247 13.2355 5.82353 13.6037 5.82353 14.0591C5.82353 15.1371 6.33576 15.94 7.20129 16.491C8.08247 17.0534 9.33588 17.3532 10.7647 17.3532C10.8015 17.3532 10.8382 17.353 10.8748 17.3526C11.0375 17.6401 11.2313 17.9086 11.4517 18.1547C11.2257 18.1694 10.9964 18.1767 10.7647 18.1767C9.23706 18.1767 7.814 17.8588 6.75824 17.186C5.686 16.5025 5 15.4508 5 14.0591Z" fill="#DFEEF7"/>
<circle cx="12" cy="12" r="10.5" stroke="#DFEEF7"/>
</svg>
