<svg width="28" height="28" viewBox="0 0 28 28" fill="none" xmlns="http://www.w3.org/2000/svg">
<path d="M0 4.77273C0 3.50692 0.502839 2.29296 1.3979 1.3979C2.29296 0.502839 3.50692 0 4.77273 0H23.2273C24.4931 0 25.707 0.502839 26.6021 1.3979C27.4972 2.29296 28 3.50692 28 4.77273V15.2727H20.0455C18.7796 15.2727 17.5657 15.7756 16.6706 16.6706C15.7756 17.5657 15.2727 18.7796 15.2727 20.0455V28H4.77273C3.50692 28 2.29296 27.4972 1.3979 26.6021C0.502839 25.707 0 24.4931 0 23.2273V4.77273ZM17.1818 28H17.2582L28 17.2582V17.1818H20.0455C19.286 17.1818 18.5576 17.4835 18.0206 18.0206C17.4835 18.5576 17.1818 19.286 17.1818 20.0455V28Z" fill="white"/>
</svg>
