<svg width="18" height="18" viewBox="0 0 18 18" fill="none" xmlns="http://www.w3.org/2000/svg">
<path d="M1.28571 0C0.944722 0 0.617695 0.135459 0.376577 0.376577C0.135459 0.617695 0 0.944722 0 1.28571V16.7143C0 17.0553 0.135459 17.3823 0.376577 17.6234C0.617695 17.8645 0.944722 18 1.28571 18H3.85714C4.19814 18 4.52516 17.8645 4.76628 17.6234C5.0074 17.3823 5.14286 17.0553 5.14286 16.7143V1.28571C5.14286 0.944722 5.0074 0.617695 4.76628 0.376577C4.52516 0.135459 4.19814 0 3.85714 0H1.28571ZM7.71429 0C7.37329 0 7.04627 0.135459 6.80515 0.376577C6.56403 0.617695 6.42857 0.944722 6.42857 1.28571V16.7143C6.42857 17.0553 6.56403 17.3823 6.80515 17.6234C7.04627 17.8645 7.37329 18 7.71429 18H10.2857C10.6267 18 10.9537 17.8645 11.1949 17.6234C11.436 17.3823 11.5714 17.0553 11.5714 16.7143V1.28571C11.5714 0.944722 11.436 0.617695 11.1949 0.376577C10.9537 0.135459 10.6267 0 10.2857 0H7.71429Z" fill="#03396C"/>
<path fill-rule="evenodd" clip-rule="evenodd" d="M14.1429 1.28571L14.1429 16.7143L16.7143 16.7143L16.7143 1.28571L14.1429 1.28571ZM14.1429 0C13.8019 0 13.4749 0.135459 13.2338 0.376577C12.9926 0.617695 12.8572 0.944722 12.8572 1.28571V16.7143C12.8572 17.0553 12.9926 17.3823 13.2338 17.6234C13.4749 17.8645 13.8019 18 14.1429 18H16.7143C17.0553 18 17.3823 17.8645 17.6235 17.6234C17.8646 17.3823 18 17.0553 18 16.7143V1.28571C18 0.944722 17.8646 0.617695 17.6235 0.376577C17.3823 0.135459 17.0553 0 16.7143 0H14.1429Z" fill="#03396C"/>
</svg>
