<svg width="18" height="18" viewBox="0 0 18 18" fill="none" xmlns="http://www.w3.org/2000/svg">
<path d="M16.7143 18C17.0553 18 17.3823 17.8645 17.6234 17.6234C17.8645 17.3823 18 17.0553 18 16.7143V1.28571C18 0.944722 17.8645 0.617694 17.6234 0.376576C17.3823 0.135458 17.0553 2.38419e-07 16.7143 2.38419e-07H14.1429C13.8019 2.38419e-07 13.4748 0.135458 13.2337 0.376576C12.9926 0.617694 12.8571 0.944722 12.8571 1.28571V16.7143C12.8571 17.0553 12.9926 17.3823 13.2337 17.6234C13.4748 17.8645 13.8019 18 14.1429 18H16.7143ZM10.2857 18C10.6267 18 10.9537 17.8645 11.1949 17.6234C11.436 17.3823 11.5714 17.0553 11.5714 16.7143V1.28571C11.5714 0.944722 11.436 0.617694 11.1949 0.376576C10.9537 0.135458 10.6267 2.38419e-07 10.2857 2.38419e-07H7.71429C7.37329 2.38419e-07 7.04627 0.135458 6.80515 0.376576C6.56403 0.617694 6.42857 0.944722 6.42857 1.28571V16.7143C6.42857 17.0553 6.56403 17.3823 6.80515 17.6234C7.04627 17.8645 7.37329 18 7.71429 18H10.2857Z" fill="white"/>
<path fill-rule="evenodd" clip-rule="evenodd" d="M3.85711 16.7143L3.85711 1.28571L1.28568 1.28571L1.28568 16.7143L3.85711 16.7143ZM3.85711 18C4.1981 18 4.52513 17.8645 4.76625 17.6234C5.00736 17.3823 5.14282 17.0553 5.14282 16.7143V1.28571C5.14282 0.944721 5.00736 0.617694 4.76625 0.376576C4.52513 0.135458 4.1981 2.38419e-07 3.85711 2.38419e-07H1.28568C0.944687 2.38419e-07 0.61766 0.135458 0.376541 0.376576C0.135423 0.617694 -3.48091e-05 0.944721 -3.48091e-05 1.28571V16.7143C-3.48091e-05 17.0553 0.135423 17.3823 0.376541 17.6234C0.61766 17.8645 0.944687 18 1.28568 18H3.85711Z" fill="white"/>
</svg>
