<svg width="19" height="18" viewBox="0 0 19 18" fill="none" xmlns="http://www.w3.org/2000/svg">
<path fill-rule="evenodd" clip-rule="evenodd" d="M4.0605 4.23537C4.0605 3.11208 4.50673 2.0348 5.30101 1.24051C6.0953 0.446225 7.17258 0 8.29587 0C9.41916 0 10.4964 0.446225 11.2907 1.24051C12.085 2.0348 12.5312 3.11208 12.5312 4.23537C12.5312 5.35866 12.085 6.43594 11.2907 7.23023C10.4964 8.02451 9.41916 8.47074 8.29587 8.47074C7.17258 8.47074 6.0953 8.02451 5.30101 7.23023C4.50673 6.43594 4.0605 5.35866 4.0605 4.23537ZM8.29587 1.05884C7.87872 1.05884 7.46566 1.14101 7.08027 1.30064C6.69487 1.46028 6.3447 1.69426 6.04973 1.98923C5.75476 2.28419 5.52078 2.63437 5.36114 3.01976C5.20151 3.40516 5.11935 3.81822 5.11935 4.23537C5.11935 4.65252 5.20151 5.06558 5.36114 5.45097C5.52078 5.83637 5.75476 6.18654 6.04973 6.48151C6.3447 6.77648 6.69487 7.01046 7.08027 7.1701C7.46566 7.32973 7.87872 7.4119 8.29587 7.4119C9.13834 7.4119 9.9463 7.07723 10.542 6.48151C11.1377 5.8858 11.4724 5.07784 11.4724 4.23537C11.4724 3.3929 11.1377 2.58494 10.542 1.98923C9.9463 1.39351 9.13834 1.05884 8.29587 1.05884ZM18.827 15.1519C17.9298 13.6931 16.1536 12.7061 14.1198 12.7061C12.086 12.7061 10.3093 13.6938 9.41255 15.152C9.3747 15.2144 9.35498 15.2833 9.35498 15.3532C9.35498 15.4231 9.3747 15.4921 9.41255 15.5545C10.3098 17.0133 12.086 18.0003 14.1198 18.0003C16.1536 18.0003 17.9303 17.0126 18.827 15.5543C18.8648 15.4919 18.8846 15.423 18.8846 15.3531C18.8846 15.2832 18.8648 15.2143 18.827 15.1519ZM14.1198 17.3385C13.6486 17.3385 13.188 17.2221 12.7962 17.0039C12.4044 16.7857 12.099 16.4757 11.9187 16.1129C11.7384 15.7501 11.6912 15.351 11.7831 14.9658C11.8751 14.5807 12.102 14.227 12.4352 13.9493C12.7683 13.6717 13.1928 13.4826 13.655 13.406C14.1171 13.3294 14.5961 13.3687 15.0315 13.519C15.4668 13.6692 15.8389 13.9237 16.1007 14.2502C16.3624 14.5767 16.5022 14.9605 16.5022 15.3532C16.5023 15.6139 16.4408 15.8721 16.3211 16.1131C16.2015 16.354 16.026 16.5729 15.8047 16.7573C15.5835 16.9417 15.3208 17.0879 15.0317 17.1876C14.7425 17.2873 14.4327 17.3386 14.1198 17.3385ZM14.1198 14.0296C13.978 14.0313 13.8372 14.0488 13.701 14.0819C13.8132 14.2089 13.8671 14.3653 13.8528 14.5226C13.8385 14.6799 13.7571 14.8278 13.6232 14.9393C13.4893 15.0509 13.3119 15.1188 13.1231 15.1307C12.9343 15.1426 12.7467 15.0977 12.5942 15.0042C12.5074 15.2708 12.5231 15.5534 12.639 15.8121C12.755 16.0709 12.9654 16.2929 13.2407 16.4467C13.516 16.6006 13.8422 16.6787 14.1735 16.67C14.5048 16.6613 14.8245 16.5662 15.0876 16.3981C15.3507 16.2301 15.5439 15.9975 15.64 15.7331C15.7362 15.4688 15.7304 15.1859 15.6235 14.9245C15.5167 14.663 15.3141 14.436 15.0444 14.2755C14.7746 14.1149 14.4512 14.029 14.1198 14.0296ZM0.884033 11.6475C0.884033 10.469 1.84017 9.52979 3.01125 9.52979H13.5901C14.1518 9.52979 14.6904 9.7529 15.0876 10.15C15.4847 10.5472 15.7078 11.0858 15.7078 11.6475C15.7078 11.7088 15.7068 11.7697 15.7047 11.83C15.3622 11.7496 15.0093 11.6947 14.6489 11.6674L14.649 11.6475C14.649 11.3666 14.5374 11.0973 14.3389 10.8988C14.1403 10.7002 13.871 10.5886 13.5901 10.5886H3.01125C2.41724 10.5886 1.94288 11.0619 1.94288 11.6475C1.94288 13.0335 2.60148 14.0659 3.71432 14.7742C4.84728 15.4974 6.45884 15.8828 8.29593 15.8828C8.34325 15.8828 8.39042 15.8826 8.43744 15.8821C8.64651 16.2517 8.89564 16.5969 9.17902 16.9133C8.88854 16.9323 8.59378 16.9417 8.29593 16.9417C6.33178 16.9417 4.5021 16.533 3.14466 15.6679C1.76605 14.7891 0.884033 13.4369 0.884033 11.6475Z" fill="white"/>
</svg>
