<svg width="21" height="18" viewBox="0 0 21 18" fill="none" xmlns="http://www.w3.org/2000/svg">
<path fill-rule="evenodd" clip-rule="evenodd" d="M6.04135 17.1014C5.46595 16.526 5.1427 15.7456 5.1427 14.9318V13.6606H6.91081V14.9464C6.91089 15.3596 7.03348 15.7636 7.26306 16.1071C7.49264 16.4506 7.81892 16.7184 8.20063 16.8765C8.58235 17.0346 9.00237 17.0759 9.4076 16.9954C9.81283 16.9148 10.1852 16.7158 10.4774 16.4236L13.8525 13.0486C14.2441 12.6568 14.4643 12.1253 14.4643 11.5713C14.4643 11.0173 14.2442 10.486 13.8526 10.0942L10.4774 6.71897C10.1852 6.42686 9.81283 6.22784 9.4076 6.14726C9.00238 6.06668 8.58235 6.10806 8.20063 6.26616C7.81892 6.42426 7.49264 6.69198 7.26306 7.03549C7.03348 7.37899 6.91089 7.78285 6.91081 8.19601V9.48199H5.1427V3.06818C5.1427 2.25445 5.46595 1.47405 6.04135 0.89865C6.61675 0.323254 7.39715 0 8.21088 0H12.3895V5.11364C12.3895 5.92737 12.7127 6.70777 13.2881 7.28317C13.8635 7.85856 14.6439 8.18182 15.4576 8.18182H20.5713V14.9318C20.5713 15.7456 20.248 16.526 19.6726 17.1014C19.0972 17.6767 18.3168 18 17.5031 18H8.21088C7.39715 18 6.61675 17.6767 6.04135 17.1014ZM13.6658 0H13.6167V5.11364C13.6167 5.60188 13.8107 6.07012 14.1559 6.41536C14.5012 6.76059 14.9694 6.95455 15.4576 6.95455H20.5713V6.90546L13.6658 0Z" fill="#03396C"/>
<path fill-rule="evenodd" clip-rule="evenodd" d="M9.79564 15.7418C9.6383 15.8991 9.43786 16.0062 9.21966 16.0496C9.00146 16.093 8.77529 16.0707 8.56975 15.9856C8.3642 15.9004 8.18851 15.7563 8.06489 15.5713C7.94127 15.3863 7.87526 15.1689 7.87521 14.9464V12.6963H1.12503C0.826657 12.6963 0.540503 12.5778 0.329518 12.3668C0.118534 12.1558 4.76837e-06 11.8697 4.76837e-06 11.5713C4.76837e-06 11.2729 0.118534 10.9868 0.329518 10.7758C0.540503 10.5648 0.826657 10.4463 1.12503 10.4463H7.87521L7.87521 8.19623C7.87526 7.97375 7.94127 7.75629 8.06489 7.57132C8.18851 7.38635 8.3642 7.24219 8.56975 7.15706C8.77529 7.07193 9.00146 7.04965 9.21966 7.09304C9.43786 7.13643 9.6383 7.24354 9.79564 7.40083L13.1707 10.7759C13.3816 10.9869 13.5001 11.273 13.5001 11.5713C13.5001 11.8696 13.3816 12.1557 13.1707 12.3667L9.79564 15.7418Z" fill="#03396C"/>
</svg>
