<svg width="19" height="18" viewBox="0 0 19 18" fill="none" xmlns="http://www.w3.org/2000/svg">
<path d="M8.25059 7.0715C8.93257 7.0715 9.58661 6.80058 10.0688 6.31835C10.5511 5.83612 10.822 5.18208 10.822 4.5001C10.822 3.81813 10.5511 3.16408 10.0688 2.68185C9.58661 2.19962 8.93257 1.92871 8.25059 1.92871C7.56862 1.92871 6.91457 2.19962 6.43234 2.68185C5.95011 3.16408 5.6792 3.81813 5.6792 4.5001C5.6792 5.18208 5.95011 5.83612 6.43234 6.31835C6.91457 6.80058 7.56862 7.0715 8.25059 7.0715ZM8.25059 5.7858C7.9096 5.7858 7.58258 5.65034 7.34147 5.40923C7.10035 5.16811 6.9649 4.84109 6.9649 4.5001C6.9649 4.15912 7.10035 3.83209 7.34147 3.59098C7.58258 3.34986 7.9096 3.21441 8.25059 3.21441C8.59158 3.21441 8.9186 3.34986 9.15972 3.59098C9.40083 3.83209 9.53629 4.15912 9.53629 4.5001C9.53629 4.84109 9.40083 5.16811 9.15972 5.40923C8.9186 5.65034 8.59158 5.7858 8.25059 5.7858Z" fill="white"/>
<path d="M5.03646 7.71436C4.52497 7.71436 4.03444 7.91754 3.67277 8.27921C3.3111 8.64089 3.10791 9.13142 3.10791 9.6429C3.10791 10.0646 3.15934 10.9903 3.9089 11.8016C4.6636 12.6154 5.9943 13.1786 8.24813 13.1786C10.4994 13.1786 11.8326 12.6206 12.5874 11.8106C13.3421 11.0019 13.3935 10.0749 13.3935 9.6429C13.3935 9.38964 13.3436 9.13886 13.2467 8.90488C13.1498 8.6709 13.0077 8.45829 12.8286 8.27921C12.6495 8.10013 12.4369 7.95808 12.203 7.86116C11.969 7.76424 11.7182 7.71436 11.4649 7.71436H5.03646ZM4.39361 9.6429C4.39361 9.47241 4.46134 9.3089 4.58189 9.18834C4.70245 9.06778 4.86596 9.00005 5.03646 9.00005H11.4649C11.6354 9.00005 11.7989 9.06778 11.9195 9.18834C12.0401 9.3089 12.1078 9.47241 12.1078 9.6429C12.1078 9.9669 12.0654 10.485 11.6475 10.9337C11.2309 11.3812 10.3117 11.8929 8.24813 11.8929C6.18587 11.8929 5.26917 11.3773 4.85389 10.9286C4.43475 10.476 4.39361 9.95661 4.39361 9.6429Z" fill="white"/>
<path d="M0.536621 3.85709C0.536621 2.83413 0.942992 1.85306 1.66634 1.12972C2.38968 0.406371 3.37075 0 4.39371 0H12.1079C13.1309 0 14.1119 0.406371 14.8353 1.12972C15.5586 1.85306 15.965 2.83413 15.965 3.85709V11.5713C15.965 12.5942 15.5586 13.5753 14.8353 14.2986C14.1119 15.022 13.1309 15.4284 12.1079 15.4284H4.39371C3.37075 15.4284 2.38968 15.022 1.66634 14.2986C0.942992 13.5753 0.536621 12.5942 0.536621 11.5713V3.85709ZM4.39371 1.2857C3.71174 1.2857 3.05769 1.55661 2.57546 2.03884C2.09323 2.52107 1.82232 3.17511 1.82232 3.85709V11.5713C1.82232 12.2532 2.09323 12.9073 2.57546 13.3895C3.05769 13.8717 3.71174 14.1427 4.39371 14.1427H12.1079C12.7899 14.1427 13.4439 13.8717 13.9261 13.3895C14.4084 12.9073 14.6793 12.2532 14.6793 11.5713V3.85709C14.6793 3.17511 14.4084 2.52107 13.9261 2.03884C13.4439 1.55661 12.7899 1.2857 12.1079 1.2857H4.39371Z" fill="white"/>
<path d="M6.96539 17.9998C6.42262 18.0004 5.88587 17.8862 5.39039 17.6646C4.89491 17.443 4.45194 17.1191 4.09058 16.7141H12.751C13.9445 16.7141 15.0891 16.24 15.933 15.3961C16.7769 14.5522 17.251 13.4076 17.251 12.2142V3.55371C18.0404 4.26084 18.5367 5.28683 18.5367 6.42853V12.2142C18.5367 13.7486 17.9271 15.2202 16.8421 16.3052C15.7571 17.3902 14.2855 17.9998 12.751 17.9998H6.96539Z" fill="white"/>
</svg>
