<svg width="18" height="18" viewBox="0 0 18 18" fill="none" xmlns="http://www.w3.org/2000/svg">
<rect width="18" height="18" rx="2" fill="white"/>
<path d="M11.1875 2.875C10.5726 2.87486 9.96629 3.01875 9.41704 3.29514C8.8678 3.57152 8.39094 3.97272 8.02466 4.46659C7.65839 4.96045 7.4129 5.53325 7.30785 6.13907C7.2028 6.7449 7.24113 7.3669 7.41975 7.95525L2.875 12.5V15.125H5.5L10.0448 10.5802C10.5863 10.7446 11.157 10.7903 11.7178 10.7142C12.2787 10.6381 12.8165 10.442 13.2947 10.1393C13.7729 9.8365 14.1802 9.43421 14.4889 8.9598C14.7975 8.48538 15.0003 7.95 15.0833 7.39014C15.1663 6.83029 15.1277 6.25911 14.97 5.71553C14.8123 5.17196 14.5393 4.66876 14.1696 4.24025C13.7998 3.81173 13.3421 3.46795 12.8275 3.23235C12.3128 2.99676 11.7535 2.87487 11.1875 2.875V2.875ZM11.1875 9.875C10.8863 9.87483 10.5867 9.83032 10.2985 9.74287L9.79669 9.59063L9.42613 9.96119L8.03444 11.3529L7.43112 10.75L6.8125 11.3686L7.41581 11.9719L6.72194 12.6658L6.11862 12.0625L5.5 12.6811L6.10331 13.2844L5.13775 14.25H3.75V12.8622L8.03838 8.57388L8.40937 8.20331L8.25713 7.7015C8.07013 7.08506 8.08228 6.42535 8.29184 5.81621C8.5014 5.20707 8.89771 4.67952 9.42439 4.30861C9.95107 3.9377 10.5813 3.74231 11.2254 3.75023C11.8696 3.75816 12.4948 3.96899 13.0122 4.35275C13.5296 4.73651 13.9128 5.27365 14.1073 5.88776C14.3018 6.50187 14.2977 7.16168 14.0956 7.77333C13.8935 8.38498 13.5037 8.91733 12.9816 9.29466C12.4595 9.67198 11.8317 9.87505 11.1875 9.875V9.875Z" fill="#03396C"/>
<path d="M11.625 7.25C12.1082 7.25 12.5 6.85825 12.5 6.375C12.5 5.89175 12.1082 5.5 11.625 5.5C11.1418 5.5 10.75 5.89175 10.75 6.375C10.75 6.85825 11.1418 7.25 11.625 7.25Z" fill="#03396C"/>
</svg>
