<svg width="18" height="16" viewBox="0 0 18 16" fill="none" xmlns="http://www.w3.org/2000/svg">
<path d="M16.4348 3.80952H13.9539L12.5217 2.28571H7.82609V3.80952H11.833L13.2652 5.33333H16.4348V14.4762H3.91304V7.61905H2.34783V14.4762C2.34783 15.3143 3.05217 16 3.91304 16H16.4348C17.2957 16 18 15.3143 18 14.4762V5.33333C18 4.49524 17.2957 3.80952 16.4348 3.80952ZM6.26087 9.90476C6.26087 12.0076 8.01391 13.7143 10.1739 13.7143C12.3339 13.7143 14.087 12.0076 14.087 9.90476C14.087 7.8019 12.3339 6.09524 10.1739 6.09524C8.01391 6.09524 6.26087 7.8019 6.26087 9.90476ZM10.1739 7.61905C11.4652 7.61905 12.5217 8.64762 12.5217 9.90476C12.5217 11.1619 11.4652 12.1905 10.1739 12.1905C8.88261 12.1905 7.82609 11.1619 7.82609 9.90476C7.82609 8.64762 8.88261 7.61905 10.1739 7.61905ZM3.91304 3.80952H6.26087V2.28571H3.91304V0H2.34783V2.28571H0V3.80952H2.34783V6.09524H3.91304V3.80952Z" fill="white"/>
</svg>
