<svg width="23" height="23" viewBox="0 0 23 23" fill="none" xmlns="http://www.w3.org/2000/svg">
<circle cx="11.5" cy="11.5" r="10.75" stroke="#E08E00" stroke-width="1.5"/>
<path fill-rule="evenodd" clip-rule="evenodd" d="M11.6362 5.5C11.9124 5.5 12.1362 5.72386 12.1362 6V17C12.1362 17.2761 11.9124 17.5 11.6362 17.5C11.3601 17.5 11.1362 17.2761 11.1362 17V6C11.1362 5.72386 11.3601 5.5 11.6362 5.5Z" fill="#E08E00" stroke="#E08E00" stroke-width="0.7"/>
<path fill-rule="evenodd" clip-rule="evenodd" d="M5.79321 11.3433C5.79321 11.6194 6.01707 11.8433 6.29321 11.8433H17.2932C17.5694 11.8433 17.7932 11.6194 17.7932 11.3433C17.7932 11.0671 17.5694 10.8433 17.2932 10.8433H6.29321C6.01707 10.8433 5.79321 11.0671 5.79321 11.3433Z" fill="#E08E00" stroke="#E08E00" stroke-width="0.7"/>
</svg>
