<svg width="15" height="18" viewBox="0 0 15 18" fill="none" xmlns="http://www.w3.org/2000/svg">
<path d="M6.28535 9.38711L7.22843 8.67107L8.16278 9.37838C8.50333 9.63161 8.96614 9.30852 8.84389 8.8981L8.47713 7.71053L9.525 6.88097C9.84809 6.63647 9.66471 6.11253 9.24557 6.11253H8.02306L7.64758 4.94242C7.61886 4.85507 7.56331 4.77901 7.48883 4.72509C7.41435 4.67117 7.32475 4.64214 7.2328 4.64214C7.14085 4.64214 7.05125 4.67117 6.97677 4.72509C6.90229 4.77901 6.84673 4.85507 6.81802 4.94242L6.4338 6.11253H5.20256C4.79215 6.11253 4.60877 6.63647 4.93186 6.8897L5.971 7.71926L5.60424 8.90684C5.48199 9.31725 5.9448 9.64034 6.28535 9.38711ZM1.98911 17.1238C1.98911 17.7176 2.57417 18.1368 3.14176 17.9534L7.22843 16.5912L11.3151 17.9534C11.4466 17.9982 11.587 18.011 11.7245 17.9905C11.862 17.9701 11.9925 17.917 12.1054 17.8359C12.2182 17.7547 12.3099 17.6477 12.373 17.5238C12.436 17.4 12.4685 17.2628 12.4677 17.1238V11.5964C13.5937 10.3245 14.215 8.68439 14.2142 6.98575C14.2142 3.12613 11.0881 0 7.22843 0C3.3688 0 0.242676 3.12613 0.242676 6.98575C0.242676 8.75839 0.906322 10.3651 1.98911 11.5964V17.1238ZM7.22843 1.74644C10.1188 1.74644 12.4677 4.0954 12.4677 6.98575C12.4677 9.87611 10.1188 12.2251 7.22843 12.2251C4.33807 12.2251 1.98911 9.87611 1.98911 6.98575C1.98911 4.0954 4.33807 1.74644 7.22843 1.74644Z" fill="white"/>
</svg>
