<svg width="16" height="16" viewBox="0 0 16 16" fill="none" xmlns="http://www.w3.org/2000/svg">
<path d="M15 15L14.4896 10.6M14.4896 10.6C13.9057 12.044 12.8602 13.2533 11.517 14.0384C10.1737 14.8236 8.60849 15.1404 7.06634 14.9392C5.52418 14.738 4.09215 14.0302 2.99444 12.9265C1.89674 11.8229 1.19532 10.3857 1 8.84006M14.4896 10.6H10.608" stroke="white" stroke-width="1.5" stroke-linecap="round" stroke-linejoin="round"/>
<path d="M1.00002 0.99998L1.51037 5.39995M1.51037 5.39995C2.09434 3.95596 3.13978 2.74673 4.48303 1.96156C5.82628 1.17638 7.39151 0.859604 8.93366 1.06081C10.4758 1.26201 11.9078 1.96985 13.0056 3.07349C14.1033 4.17713 14.8047 5.61428 15 7.15994M1.51037 5.39995L5.39203 5.39995" stroke="white" stroke-width="1.5" stroke-linecap="round" stroke-linejoin="round"/>
</svg>
