<svg width="23" height="23" viewBox="0 0 23 23" fill="none" xmlns="http://www.w3.org/2000/svg">
<circle cx="11.5" cy="11.5" r="10.75" stroke="#4AA9AF" stroke-width="1.5"/>
<path d="M18.3188 15.0746L18.3188 15.0746C18.3564 15.2088 18.3334 15.35 18.2566 15.4677C18.1803 15.5848 18.0579 15.6683 17.9176 15.7045L17.9154 15.705L17.9154 15.705L14.9269 16.4051L14.8146 16.4314L14.8045 16.3165L14.5664 13.6119C14.544 13.5396 14.539 13.4635 14.5522 13.3889C14.566 13.3102 14.5995 13.2362 14.6492 13.172C14.6988 13.1079 14.7632 13.0554 14.8371 13.0175C14.9109 12.9796 14.9928 12.9571 15.0768 12.951C15.1608 12.9449 15.2454 12.9554 15.3247 12.982C15.404 13.0086 15.4765 13.0507 15.5366 13.1061C15.5967 13.1616 15.643 13.2291 15.671 13.3042C15.6975 13.3752 15.7068 13.4505 15.6982 13.5252L15.7871 14.313C16.2322 13.6552 16.5014 12.9165 16.5737 12.1529L16.5738 12.1521C16.6565 11.3486 16.5236 10.5389 16.1851 9.78831C15.8466 9.03764 15.3117 8.36659 14.6228 7.83022L18.3188 15.0746ZM18.3188 15.0746L18.3178 15.0712C18.2753 14.9383 18.1773 14.8289 18.049 14.7629C17.9208 14.697 17.7701 14.678 17.6276 14.7087L17.6276 14.7086L17.6256 14.7091L16.6996 14.9289M18.3188 15.0746L16.6996 14.9289M16.6996 14.9289C17.2656 14.12 17.6109 13.2037 17.7052 12.2525C17.8046 11.2807 17.6434 10.3023 17.2352 9.3965C16.8269 8.49077 16.1834 7.68371 15.3577 7.03986L15.3577 7.03982L15.3551 7.03793C15.2414 6.95498 15.098 6.91472 14.9543 6.92305C14.8106 6.93137 14.6736 6.9879 14.5723 7.08415L14.5722 7.08412L14.5703 7.08611C14.4676 7.18916 14.4132 7.32677 14.4234 7.46904C14.4337 7.61111 14.5073 7.74042 14.6227 7.83019L16.6996 14.9289Z" fill="#4AA9AF" stroke="#4AA9AF" stroke-width="0.2"/>
<path d="M6.49263 10.8323C6.62006 10.8486 6.74914 10.8151 6.85194 10.7385C6.95488 10.6618 7.02333 10.5479 7.04176 10.4214L7.04186 10.4206C7.19981 9.27563 7.79255 8.23104 8.70198 7.49628C9.53119 6.82632 10.5678 6.45913 11.6359 6.45128L11.0215 6.86327L11.0215 6.86318L11.0178 6.86592C10.94 6.92347 10.8811 7.00265 10.8489 7.09357C10.8168 7.18451 10.8129 7.28287 10.8378 7.37603C10.8627 7.46917 10.9152 7.55266 10.9883 7.616C11.0614 7.67932 11.1518 7.71969 11.248 7.73224L11.248 7.73232L11.252 7.73268C11.3621 7.74256 11.4725 7.71552 11.5652 7.65573L11.5652 7.65575L11.5669 7.65461L13.6498 6.2504L13.7511 6.18209L13.6641 6.09628L11.889 4.34593C11.8498 4.28973 11.799 4.2424 11.7401 4.20698C11.678 4.16968 11.6083 4.14649 11.5361 4.13899C11.4639 4.13149 11.3909 4.13987 11.3224 4.16354C11.2538 4.18721 11.1913 4.22562 11.1395 4.27611C11.0877 4.32661 11.0479 4.38793 11.0231 4.45568C10.9982 4.52343 10.9891 4.59583 10.9963 4.66758C11.0035 4.73933 11.0268 4.80851 11.0646 4.87009C11.1005 4.92867 11.1485 4.97895 11.2054 5.01772L11.6821 5.48579C10.3599 5.48251 9.07501 5.93514 8.0543 6.76945C6.96793 7.65743 6.25972 8.91334 6.07002 10.2895C6.0574 10.3784 6.07012 10.4689 6.10671 10.551C6.14331 10.6332 6.20229 10.7035 6.27685 10.7543L6.27682 10.7544L6.2798 10.7562C6.34419 10.7969 6.41691 10.8228 6.49263 10.8323ZM6.49263 10.8323C6.49253 10.8323 6.49244 10.8323 6.49235 10.8323L6.50512 10.7331L6.49278 10.8323C6.49273 10.8323 6.49268 10.8323 6.49263 10.8323ZM13.5939 6.16748L13.5236 6.23869L13.5093 6.22451L13.5939 6.16748ZM13.5939 6.16748L13.538 6.08457L13.5212 6.09585L13.5939 6.16748ZM11.8271 5.48797L11.933 5.59199C11.8837 5.58968 11.8344 5.58801 11.7852 5.58699L11.8271 5.48797Z" fill="#4AA9AF" stroke="#4AA9AF" stroke-width="0.2"/>
<path d="M8.69736 15.5311C8.08309 15.1467 7.56423 14.6423 7.17453 14.053L7.96545 14.3338L7.97385 14.3368L7.98264 14.3383C8.10203 14.358 8.22514 14.3375 8.33095 14.2799C8.43684 14.2222 8.51939 14.1306 8.56311 14.0198C8.60687 13.9088 8.60853 13.7866 8.56775 13.6746C8.52702 13.5627 8.44691 13.469 8.34253 13.4087L8.3345 13.4041L8.32574 13.401L6.3725 12.7133L6.3725 12.7133L6.37171 12.7131L5.74616 12.4987L5.63638 12.461L5.61539 12.5752L5.14303 15.1438L5.14301 15.1438L5.14263 15.1461C5.12197 15.2757 5.15465 15.4073 5.2328 15.5136C5.3108 15.6196 5.42777 15.6919 5.55864 15.7172L5.56802 15.719H5.57756H5.64908C5.7711 15.7209 5.89056 15.682 5.9865 15.6081C6.08278 15.534 6.14948 15.4291 6.17344 15.3113L6.17346 15.3113L6.1738 15.3094L6.3062 14.5903C6.78375 15.3112 7.42062 15.9254 8.17333 16.3898C9.0009 16.9005 9.94464 17.2153 10.9257 17.3082L10.9258 17.3083C11.7464 17.3856 12.575 17.3016 13.3602 17.0616L13.3603 17.0619L13.3676 17.059C13.4883 17.0115 13.5873 16.9222 13.6437 16.8072C13.7001 16.692 13.7092 16.5604 13.6689 16.4389C13.6285 16.3175 13.5423 16.2163 13.4287 16.1541C13.3153 16.0919 13.182 16.0727 13.0549 16.0996L13.009 16.1093L13.0025 16.1218C12.3623 16.3106 11.6886 16.3754 11.0212 16.3123L11.021 16.3122C10.1909 16.2349 9.39344 15.9667 8.69736 15.5311Z" fill="#4AA9AF" stroke="#4AA9AF" stroke-width="0.2"/>
</svg>
