<svg width="23" height="23" viewBox="0 0 23 23" fill="none" xmlns="http://www.w3.org/2000/svg">
<circle cx="11.5" cy="11.5" r="10.75" stroke="#011726" stroke-width="1.5"/>
<path d="M15.5424 10.7531L13.3766 12.8813C13.2478 13.0076 13.1724 13.1771 13.1656 13.3559C13.1587 13.5346 13.221 13.7092 13.3398 13.8447C13.4586 13.9801 13.6252 14.0664 13.806 14.086C13.9868 14.1056 14.1685 14.0572 14.3146 13.9505L14.3952 13.8826L17.7888 10.5455L17.855 10.4709L17.8934 10.4153L17.9414 10.3265L17.9722 10.2397L17.9875 10.1755L17.9971 10.117L18 10.0293L17.9962 9.97263L17.9808 9.88486L17.952 9.79049L17.9078 9.698L17.8742 9.64515C17.849 9.60928 17.8204 9.57579 17.7888 9.54511L17.855 9.61872C17.8347 9.59269 17.8126 9.56809 17.7888 9.54511L14.3952 6.208C14.2667 6.08136 14.0942 6.00722 13.9124 6.0005C13.7306 5.99378 13.553 6.05497 13.4152 6.17177C13.2774 6.28858 13.1897 6.45233 13.1697 6.6301C13.1498 6.80788 13.199 6.9865 13.3075 7.13005L13.3766 7.20932L15.5424 9.33654H12C8.49504 9.33654 6.11232 11.2977 6.00384 14.0912L6 14.2922C6 14.4799 6.07586 14.6599 6.21088 14.7927C6.34591 14.9254 6.52904 15 6.72 15C6.91096 15 7.09409 14.9254 7.22912 14.7927C7.36414 14.6599 7.44 14.4799 7.44 14.2922C7.44 12.2829 9.06432 10.8399 11.7523 10.7569L12 10.7531H15.5424Z" fill="#011726"/>
</svg>
