<svg width="19" height="18" viewBox="0 0 19 18" fill="none" xmlns="http://www.w3.org/2000/svg">
<path fill-rule="evenodd" clip-rule="evenodd" d="M9.31437 3.84167C6.10554 3.84167 3.50427 6.44294 3.50427 9.65178C3.50427 12.8606 6.10554 15.4619 9.31437 15.4619C12.5232 15.4619 15.1245 12.8606 15.1245 9.65178C15.1245 6.44294 12.5232 3.84167 9.31437 3.84167ZM1.84424 9.65178C1.84424 5.52613 5.18873 2.18164 9.31437 2.18164C13.44 2.18164 16.7845 5.52613 16.7845 9.65178C16.7845 13.7774 13.44 17.1219 9.31437 17.1219C5.18873 17.1219 1.84424 13.7774 1.84424 9.65178Z" fill="white"/>
<path fill-rule="evenodd" clip-rule="evenodd" d="M9.31512 5.50146C9.77353 5.50146 10.1451 5.87308 10.1451 6.33148V9.30774L11.5621 10.7247C11.8862 11.0488 11.8862 11.5743 11.5621 11.8985C11.2379 12.2226 10.7124 12.2226 10.3882 11.8985L8.72821 10.2384C8.57256 10.0828 8.48511 9.87167 8.48511 9.65154V6.33148C8.48511 5.87308 8.85672 5.50146 9.31512 5.50146Z" fill="white"/>
<path fill-rule="evenodd" clip-rule="evenodd" d="M4.09154 0.76459C4.41568 1.08873 4.41568 1.61427 4.09154 1.93841L1.60149 4.42845C1.27735 4.75259 0.751817 4.75259 0.427676 4.42845C0.103535 4.10431 0.103535 3.57878 0.427676 3.25464L2.91772 0.76459C3.24186 0.440449 3.7674 0.440449 4.09154 0.76459Z" fill="white"/>
<path fill-rule="evenodd" clip-rule="evenodd" d="M14.5385 0.76459C14.8627 0.440449 15.3882 0.440449 15.7123 0.76459L18.2024 3.25464C18.5265 3.57878 18.5265 4.10431 18.2024 4.42845C17.8782 4.75259 17.3527 4.75259 17.0286 4.42845L14.5385 1.93841C14.2144 1.61427 14.2144 1.08873 14.5385 0.76459Z" fill="white"/>
<path fill-rule="evenodd" clip-rule="evenodd" d="M4.92119 14.0449C5.24533 14.369 5.24533 14.8945 4.92119 15.2187L3.26116 16.8787C2.93702 17.2029 2.41149 17.2029 2.08734 16.8787C1.7632 16.5546 1.7632 16.029 2.08734 15.7049L3.74737 14.0449C4.07151 13.7207 4.59705 13.7207 4.92119 14.0449Z" fill="white"/>
<path fill-rule="evenodd" clip-rule="evenodd" d="M13.7075 14.0449C14.0316 13.7207 14.5571 13.7207 14.8813 14.0449L16.5413 15.7049C16.8655 16.029 16.8655 16.5546 16.5413 16.8787C16.2172 17.2029 15.6916 17.2029 15.3675 16.8787L13.7075 15.2187C13.3833 14.8945 13.3833 14.369 13.7075 14.0449Z" fill="white"/>
</svg>
