<svg width="18" height="18" viewBox="0 0 18 18" fill="none" xmlns="http://www.w3.org/2000/svg">
<path d="M7.18271 4.73152e-07C6.05853 0.000601345 4.95016 0.264928 3.9467 0.771736C2.94323 1.27854 2.07266 2.0137 1.40495 2.91811C0.737242 3.82252 0.291021 4.87096 0.102151 5.97917C-0.0867195 7.08738 -0.0129699 8.22444 0.317472 9.29896C0.647914 10.3735 1.22583 11.3555 2.00477 12.1661C2.78372 12.9767 3.74196 13.5932 4.80249 13.9661C5.86301 14.3391 6.99624 14.458 8.11108 14.3134C9.22593 14.1688 10.2913 13.7646 11.2216 13.1334L15.6628 17.5711C15.7862 17.7035 15.935 17.8097 16.1003 17.8833C16.2656 17.957 16.444 17.9966 16.6249 17.9998C16.8058 18.003 16.9855 17.9697 17.1533 17.9019C17.3211 17.8342 17.4735 17.7333 17.6015 17.6053C17.7294 17.4774 17.8303 17.325 17.8981 17.1572C17.9659 16.9894 17.9991 16.8097 17.9959 16.6287C17.9928 16.4478 17.9532 16.2694 17.8795 16.1041C17.8059 15.9388 17.6997 15.7901 17.5673 15.6667L13.1296 11.2254C13.8638 10.1449 14.2895 8.88465 14.3611 7.58026C14.4327 6.27587 14.1473 4.97665 13.5358 3.82228C12.9242 2.66791 12.0096 1.70207 10.8902 1.02861C9.77084 0.35514 8.48907 -0.000473488 7.18271 4.73152e-07ZM2.69112 7.18656C2.69112 5.99531 3.16434 4.85285 4.00668 4.01052C4.84901 3.16818 5.99147 2.69496 7.18271 2.69496C8.37396 2.69496 9.51641 3.16818 10.3588 4.01052C11.2011 4.85285 11.6743 5.99531 11.6743 7.18656C11.6743 8.3778 11.2011 9.52026 10.3588 10.3626C9.51641 11.2049 8.37396 11.6782 7.18271 11.6782C5.99147 11.6782 4.84901 11.2049 4.00668 10.3626C3.16434 9.52026 2.69112 8.3778 2.69112 7.18656Z" fill="white"/>
</svg>
