<svg width="28" height="28" viewBox="0 0 28 28" fill="none" xmlns="http://www.w3.org/2000/svg">
<path fill-rule="evenodd" clip-rule="evenodd" d="M12.8864 28C11.8658 28 10.8481 27.875 9.85539 27.6281C9.57221 27.5579 9.31668 27.3985 9.12359 27.1715C8.9305 26.9445 8.80923 26.6609 8.77631 26.3595L8.5509 24.2342C8.52642 24.0034 8.45032 23.7818 8.32873 23.5872C8.20714 23.3926 8.04345 23.2305 7.85081 23.1138C7.65818 22.9971 7.44196 22.9292 7.21955 22.9154C6.99714 22.9017 6.77473 22.9425 6.5702 23.0346L4.695 23.8933C4.51564 23.9743 4.32284 24.0153 4.12813 24.0153C3.93444 24.0166 3.7426 23.9759 3.56478 23.8959C3.38695 23.8159 3.22701 23.6982 3.09509 23.5504C1.70749 21.9927 0.671861 20.1312 0.0640891 18.1022C-0.0235749 17.8088 -0.0212532 17.4943 0.0707309 17.2024C0.162715 16.9105 0.339779 16.6558 0.57725 16.4737L2.23183 15.1991C2.41207 15.0609 2.5586 14.8804 2.65959 14.6723C2.76058 14.4642 2.81319 14.2342 2.81319 14.001C2.81319 13.7678 2.76058 13.5378 2.65959 13.3297C2.5586 13.1216 2.41207 12.9411 2.23183 12.8029L0.57725 11.5313C0.340483 11.3495 0.163807 11.0955 0.0716936 10.8045C-0.0204202 10.5134 -0.0234128 10.1997 0.06313 9.90682C0.671182 7.87915 1.70681 6.01897 3.09413 4.46257C3.29486 4.24067 3.55598 4.08819 3.84237 4.02563C4.12875 3.96308 4.42665 3.99346 4.69596 4.11268L6.56253 4.9694C6.76798 5.06138 6.99124 5.10193 7.21444 5.08782C7.43763 5.0737 7.65455 5.00531 7.84783 4.88812C8.04111 4.77094 8.20537 4.6082 8.32746 4.41296C8.44955 4.21772 8.52607 3.99539 8.5509 3.76379L8.77823 1.64247C8.80947 1.3358 8.93255 1.04716 9.13002 0.817486C9.3275 0.587812 9.58933 0.428759 9.87841 0.362883C10.8696 0.134125 11.8808 0.0125209 12.896 0C13.9052 0.0118927 14.9104 0.133512 15.8953 0.362883C16.1844 0.429905 16.446 0.589696 16.6433 0.819772C16.8407 1.04985 16.9639 1.33863 16.9955 1.64547L17.2219 3.76479C17.2459 3.99604 17.3217 4.21817 17.4434 4.41321C17.565 4.60825 17.7289 4.77072 17.9219 4.88751C18.1149 5.00429 18.3316 5.0721 18.5544 5.08546C18.7772 5.09882 18.9999 5.05735 19.2045 4.9644L21.0711 4.10868C21.3401 3.98605 21.6389 3.95337 21.9265 4.01514C22.2141 4.0769 22.4762 4.23008 22.6767 4.45357C24.0637 6.00817 25.0985 7.86722 25.7049 9.89382C25.793 10.1875 25.7907 10.5025 25.6983 10.7947C25.6059 11.087 25.4281 11.3417 25.1898 11.5233L23.54 12.7939C23.3585 12.931 23.2108 13.1109 23.1088 13.3189C23.0068 13.5269 22.9535 13.7571 22.9532 13.9907C22.9529 14.2243 23.0057 14.4547 23.1072 14.663C23.2086 14.8712 23.356 15.0515 23.5371 15.1891L25.1955 16.4637C25.4325 16.6457 25.6092 16.9001 25.7012 17.1916C25.7796 17.4401 25.7931 17.705 25.7414 17.9593C25.6312 18.0408 25.5281 18.1319 25.4332 18.2319L20.2249 23.4862L20.0346 23.3993L18.3515 21.7013L18.3323 21.6833C17.8861 21.2638 17.2958 21.0354 16.6859 21.0462C16.076 21.0571 15.4941 21.3064 15.0628 21.7415C14.6314 22.1766 14.3844 22.7637 14.3736 23.379C14.3629 23.9943 14.5892 24.5897 15.0051 25.04L15.023 25.0593L16.8361 26.8885C16.7847 26.9878 16.7223 27.0812 16.6497 27.1666C16.4556 27.395 16.1985 27.5551 15.9136 27.6251C14.922 27.8726 13.906 27.9984 12.8864 28ZM9.38236 10.4644C10.3119 9.52658 11.5727 8.99973 12.8872 8.99973C14.2018 8.99973 15.4626 9.52658 16.3921 10.4644C17.3217 11.4022 17.8439 12.6741 17.8439 14.0003C17.8439 15.3265 17.3217 16.5984 16.3921 17.5362C15.4626 18.474 14.2018 19.0008 12.8872 19.0008C11.5727 19.0008 10.3119 18.474 9.38236 17.5362C8.45281 16.5984 7.93059 15.3265 7.93059 14.0003C7.93059 12.6741 8.45281 11.4022 9.38236 10.4644ZM10.7843 11.8787C10.2266 12.4414 9.91325 13.2046 9.91325 14.0003C9.91325 14.796 10.2266 15.5592 10.7843 16.1218C11.342 16.6845 12.0985 17.0006 12.8872 17.0006C13.676 17.0006 14.4324 16.6845 14.9902 16.1218C15.5479 15.5592 15.8612 14.796 15.8612 14.0003C15.8612 13.2046 15.5479 12.4414 14.9902 11.8787C14.4324 11.3161 13.676 11 12.8872 11C12.0985 11 11.342 11.3161 10.7843 11.8787ZM27.7247 20.5166L20.7854 27.5174C20.6227 27.6813 20.4023 27.7733 20.1724 27.7733C19.9425 27.7733 19.7221 27.6813 19.5594 27.5174L16.0921 24.0194C15.9389 23.8535 15.8554 23.6341 15.8594 23.4074C15.8634 23.1806 15.9544 22.9643 16.1133 22.804C16.2723 22.6437 16.4867 22.5518 16.7114 22.5478C16.9361 22.5438 17.1536 22.628 17.318 22.7826L20.1724 25.6622L26.4987 19.2798C26.5781 19.1939 26.6739 19.1249 26.7803 19.0771C26.8867 19.0292 27.0016 19.0035 27.118 19.0015C27.2345 18.9994 27.3502 19.021 27.4582 19.065C27.5662 19.109 27.6643 19.1745 27.7467 19.2576C27.8291 19.3407 27.894 19.4397 27.9376 19.5487C27.9812 19.6576 28.0027 19.7744 28.0006 19.8919C27.9986 20.0094 27.9731 20.1252 27.9257 20.2326C27.8782 20.3399 27.8099 20.4365 27.7247 20.5166Z" fill="white"/>
</svg>
