<svg width="18" height="18" viewBox="0 0 18 18" fill="none" xmlns="http://www.w3.org/2000/svg">
<rect width="18" height="18" rx="2" fill="white"/>
<path d="M4.9375 1.375C4.67399 1.37494 4.41412 1.43661 4.17873 1.55506C3.94334 1.67351 3.73897 1.84545 3.582 2.05711C3.42502 2.26877 3.31981 2.51425 3.27479 2.77389C3.22977 3.03353 3.2462 3.3001 3.32275 3.55225L1.375 5.5V6.625H2.5L4.44775 4.67725C4.67986 4.7477 4.92442 4.76729 5.16479 4.73468C5.40515 4.70206 5.63565 4.61801 5.84059 4.48826C6.04553 4.3585 6.22009 4.18609 6.35237 3.98277C6.48465 3.77945 6.57155 3.55 6.60713 3.31006C6.64272 3.07012 6.62616 2.82533 6.55858 2.59237C6.491 2.35941 6.374 2.14376 6.21554 1.96011C6.05708 1.77645 5.86089 1.62912 5.64034 1.52815C5.41979 1.42718 5.18006 1.37494 4.9375 1.375V1.375ZM4.9375 4.375C4.80841 4.37493 4.68003 4.35585 4.5565 4.31837L4.34144 4.25313L4.18262 4.41194L3.58619 5.00838L3.32762 4.75L3.0625 5.01512L3.32106 5.27369L3.02369 5.57106L2.76512 5.3125L2.5 5.57762L2.75856 5.83619L2.34475 6.25H1.75V5.65525L3.58787 3.81738L3.74687 3.65856L3.68162 3.4435C3.60148 3.17931 3.60669 2.89658 3.6965 2.63552C3.78632 2.37446 3.95616 2.14837 4.18188 1.9894C4.4076 1.83044 4.6777 1.7467 4.95375 1.7501C5.22981 1.7535 5.49777 1.84385 5.71951 2.00832C5.94125 2.17279 6.10548 2.40299 6.18884 2.66618C6.27221 2.92937 6.27046 3.21215 6.18384 3.47428C6.09722 3.73642 5.93015 3.96457 5.70639 4.12628C5.48263 4.28799 5.21358 4.37502 4.9375 4.375V4.375Z" fill="#03396C"/>
<path d="M5.125 3.25C5.33211 3.25 5.5 3.08211 5.5 2.875C5.5 2.66789 5.33211 2.5 5.125 2.5C4.91789 2.5 4.75 2.66789 4.75 2.875C4.75 3.08211 4.91789 3.25 5.125 3.25Z" fill="#03396C"/>
<path d="M10.1667 10C9.52792 10 9 9.47208 9 8.83333C9 8.62683 9.06008 8.43492 9.15633 8.26575C9.10383 8.26167 9.05367 8.25 9 8.25C8.53682 8.25306 8.09347 8.43841 7.76594 8.76594C7.43841 9.09347 7.25306 9.53682 7.25 10C7.25 10.9578 8.04217 11.75 9 11.75C9.95725 11.75 10.75 10.9578 10.75 10C10.75 9.94633 10.7383 9.89617 10.7342 9.84367C10.5651 9.93992 10.3732 10 10.1667 10Z" fill="#03396C"/>
<path d="M8.99996 5.91667C4.54738 5.91667 3.20922 9.77659 3.19697 9.81567L3.13513 10L3.19638 10.1843C3.20922 10.2234 4.54738 14.0833 8.99996 14.0833C13.4525 14.0833 14.7907 10.2234 14.803 10.1843L14.8648 10L14.8035 9.81567C14.7907 9.77659 13.4525 5.91667 8.99996 5.91667ZM8.99996 12.9167C5.87855 12.9167 4.6693 10.6732 4.37647 10C4.67046 9.3245 5.8803 7.08334 8.99996 7.08334C12.1214 7.08334 13.3306 9.32684 13.6235 10C13.3295 10.6755 12.1196 12.9167 8.99996 12.9167V12.9167Z" fill="#03396C"/>
</svg>
