<svg width="23" height="23" viewBox="0 0 23 23" fill="none" xmlns="http://www.w3.org/2000/svg">
<circle cx="11.5" cy="11.5" r="10.75" stroke="#2EBBF7" stroke-width="1.5"/>
<path d="M16.2143 12.4295H13.4286V10.9896C13.4414 10.3553 13.6275 9.73666 13.9667 9.20052C14.3078 8.62756 14.4311 7.9509 14.314 7.29446C14.1968 6.63803 13.8471 6.04576 13.3288 5.62614C12.9546 5.32117 12.5076 5.1187 12.0315 5.0386C11.5555 4.95851 11.0668 5.00353 10.6134 5.16925C10.16 5.33497 9.75753 5.61571 9.44541 5.9839C9.13329 6.35209 8.92227 6.79509 8.83307 7.26943C8.70512 7.93601 8.82885 8.62635 9.18036 9.20702C9.51364 9.7254 9.69831 10.3253 9.71429 10.9413V12.4295H6.92857C6.68237 12.4298 6.44633 12.5277 6.27224 12.7017C6.09816 12.8758 6.00025 13.1118 6 13.3579V15.2148C6.00025 15.4609 6.09816 15.6969 6.27224 15.871C6.44633 16.045 6.68237 16.1429 6.92857 16.1432V17.0716C6.92882 17.3177 7.02673 17.5537 7.20082 17.7278C7.3749 17.9019 7.61095 17.9998 7.85714 18H15.2857C15.5319 17.9998 15.768 17.9019 15.942 17.7278C16.1161 17.5537 16.214 17.3177 16.2143 17.0716V16.1432C16.4605 16.1429 16.6965 16.045 16.8706 15.871C17.0447 15.6969 17.1426 15.4609 17.1429 15.2148V13.3579C17.1426 13.1118 17.0447 12.8758 16.8706 12.7017C16.6965 12.5277 16.4605 12.4298 16.2143 12.4295ZM9.74679 7.43654C9.79651 7.16986 9.90408 6.9173 10.0619 6.69665C10.2198 6.476 10.424 6.29261 10.6604 6.15938C10.8967 6.02615 11.1594 5.94632 11.43 5.9255C11.7005 5.90468 11.9723 5.94338 12.2262 6.03888C12.4802 6.13438 12.7101 6.28435 12.8999 6.47825C13.0897 6.67216 13.2346 6.90527 13.3246 7.16121C13.4145 7.41714 13.4473 7.68968 13.4206 7.95964C13.3939 8.2296 13.3083 8.49043 13.17 8.72378C12.8247 9.28619 12.6065 9.91721 12.5306 10.5727H10.615C10.5419 9.91795 10.3236 9.28773 9.97614 8.72796C9.7425 8.34069 9.66078 7.88056 9.74679 7.43654ZM12.5 11.5011V12.4295H10.6429V11.5011H12.5ZM15.2857 17.0716H7.85714V16.1432H15.2857V17.0716ZM6.92857 15.2148V13.3579H16.2143V15.2148H6.92857Z" fill="#2EBBF7"/>
</svg>
