<svg width="26" height="30" viewBox="0 0 26 30" fill="none" xmlns="http://www.w3.org/2000/svg">
<path fill-rule="evenodd" clip-rule="evenodd" d="M11.1496 0.566864L5.42229 4.69199L1.20423 7.7312C0.423027 8.29351 6.67572e-05 9.11308 6.67572e-05 10.067C6.67572e-05 11.0208 0.423027 11.8427 1.20423 12.405L2.96079 13.6685L3.45078 13.3088L9.85759 8.69419C11.6789 7.38289 14.0918 7.38289 15.9108 8.69419L19.1281 11.0117C19.3731 11.187 19.5048 11.4443 19.5048 11.7402C19.5048 12.0385 19.3731 12.2957 19.1281 12.471L18.8322 12.685C18.504 12.9218 18.0764 12.9218 17.7482 12.685L14.6188 10.4312C13.5695 9.67539 12.1989 9.67539 11.1496 10.4312L5.42229 14.5563L4.81211 15.0025L5.42229 15.4419L11.1496 19.567C12.1989 20.3251 13.5695 20.3251 14.6188 19.567L20.3461 15.4419L24.5641 12.405C25.3453 11.8427 25.7683 11.0208 25.7683 10.067C25.7683 9.11308 25.3453 8.29351 24.5641 7.7312L20.3461 4.69199L14.6188 0.566864C13.5695 -0.188955 12.1989 -0.188955 11.1496 0.566864Z" fill="white"/>
<path fill-rule="evenodd" clip-rule="evenodd" d="M2.95641 16.3344L1.20448 17.5933C0.423271 18.1579 0.000310898 18.9774 0.000310898 19.9313C0.000310898 20.8852 0.423271 21.707 1.20448 22.2694L5.42253 25.3063L11.1498 29.4314C12.1991 30.1895 13.5697 30.1895 14.619 29.4314L20.3463 25.3063L24.5644 22.2694C25.3456 21.707 25.7686 20.8852 25.7686 19.9313C25.7686 18.9774 25.3456 18.1579 24.5644 17.5933L22.8148 16.3344L15.911 21.3064C14.0921 22.6154 11.6791 22.6154 9.85784 21.3064L2.95641 16.3344Z" fill="white"/>
</svg>
