<svg width="20" height="18" viewBox="0 0 20 18" fill="none" xmlns="http://www.w3.org/2000/svg">
<path d="M16.0495 17.1529C15.9599 17.2618 15.8473 17.3494 15.7198 17.4095C15.5923 17.4696 15.453 17.5006 15.312 17.5004C15.1893 17.5011 15.0678 17.4771 14.9546 17.4299C14.8415 17.3826 14.7389 17.3131 14.6532 17.2254L10.8981 13.4653C10.7226 13.2895 10.624 13.0512 10.624 12.8028C10.624 12.5543 10.7226 12.316 10.8981 12.1403C10.985 12.053 11.0883 11.9838 11.202 11.9366C11.3156 11.8894 11.4375 11.865 11.5607 11.865C11.6838 11.865 11.8057 11.8894 11.9194 11.9366C12.0331 11.9838 12.1363 12.053 12.2232 12.1403L14.3745 14.3053V0.937534C14.3745 0.688889 14.4732 0.450427 14.6491 0.274608C14.8249 0.0987895 15.0633 1.55485e-05 15.312 1.55485e-05C15.5606 1.55485e-05 15.7991 0.0987895 15.9749 0.274608C16.1507 0.450427 16.2495 0.688889 16.2495 0.937534V14.2928L18.402 12.1453C18.4889 12.0582 18.5921 11.9892 18.7056 11.942C18.8192 11.8949 18.941 11.8707 19.0639 11.8707C19.1869 11.8707 19.3086 11.8949 19.4222 11.942C19.5358 11.9892 19.639 12.0582 19.7258 12.1453C19.9014 12.321 20 12.5593 20 12.8078C20 13.0562 19.9014 13.2945 19.7258 13.4703L16.0482 17.1529H16.0495ZM5.42428 0.347523C5.33473 0.238627 5.22212 0.150969 5.09458 0.0908745C4.96705 0.0307798 4.82776 -0.000253013 4.68677 1.55485e-05C4.56413 -0.000699875 4.4426 0.0232803 4.32942 0.0705269C4.21624 0.117773 4.11374 0.18732 4.02801 0.275021L0.274181 4.0351C0.098614 4.21088 0 4.44917 0 4.69761C0 4.94605 0.098614 5.18434 0.274181 5.36012C0.361055 5.44735 0.4643 5.51657 0.577992 5.5638C0.691683 5.61103 0.813583 5.63534 0.936694 5.63534C1.05981 5.63534 1.1817 5.61103 1.2954 5.5638C1.40909 5.51657 1.51233 5.44735 1.59921 5.36012L3.74925 3.19633V16.5628C3.74925 16.8115 3.84802 17.05 4.02384 17.2258C4.19966 17.4016 4.43812 17.5004 4.68677 17.5004C4.93541 17.5004 5.17388 17.4016 5.34969 17.2258C5.52551 17.05 5.62429 16.8115 5.62429 16.5628V3.20758L7.77683 5.35512C7.86368 5.44217 7.96685 5.51122 8.08043 5.55834C8.194 5.60546 8.31576 5.62971 8.43872 5.62971C8.56168 5.62971 8.68344 5.60546 8.79701 5.55834C8.91059 5.51122 9.01376 5.44217 9.10061 5.35512C9.27617 5.17934 9.37479 4.94105 9.37479 4.69261C9.37479 4.44417 9.27617 4.20588 9.10061 4.0301L5.42303 0.346272L5.42428 0.347523Z" fill="white"/>
</svg>
