<svg width="19" height="18" viewBox="0 0 19 18" fill="none" xmlns="http://www.w3.org/2000/svg">
<path d="M5.96239 16.5112H8.2758C7.84635 15.8375 7.55627 15.0845 7.42267 14.2967C7.28906 13.509 7.31466 12.7025 7.49794 11.9248H5.96239V16.5112ZM16.5112 5.96239V8.2758C15.8375 7.84635 15.0845 7.55627 14.2967 7.42267C13.509 7.28906 12.7025 7.31466 11.9248 7.49794V5.96239H16.5112ZM10.5488 5.96239V8.00979C9.46276 8.57657 8.57657 9.46276 8.00979 10.5488H5.96239V5.96239H10.5488ZM16.5112 4.58645V2.9812C16.5112 2.19053 16.1971 1.43225 15.6381 0.873172C15.079 0.314089 14.3207 0 13.53 0H11.9248V4.58645H16.5112ZM10.5488 0H5.96239V4.58645H10.5488V0ZM4.58645 0H2.9812C2.19053 0 1.43225 0.314089 0.873172 0.873172C0.314089 1.43225 0 2.19053 0 2.9812V4.58645H4.58645V0ZM0 5.96239V10.5488H4.58645V5.96239H0ZM0 11.9248V13.53C0 14.3207 0.314089 15.079 0.873172 15.6381C1.43225 16.1971 2.19053 16.5112 2.9812 16.5112H4.58645V11.9248H0ZM10.3452 10.0673C10.4138 10.3045 10.4338 10.5531 10.404 10.7982C10.3742 11.0434 10.2952 11.28 10.1718 11.4938C10.0484 11.7077 9.88303 11.8945 9.6857 12.0429C9.48837 12.1914 9.2631 12.2984 9.02339 12.3577L8.48769 12.4898C8.40183 13.0392 8.40369 13.5986 8.4932 14.1474L8.98853 14.2666C9.23031 14.3249 9.45773 14.4317 9.65696 14.5805C9.85619 14.7294 10.0231 14.9172 10.1475 15.1325C10.2719 15.3478 10.3512 15.5862 10.3806 15.8332C10.41 16.0801 10.3889 16.3305 10.3186 16.569L10.1471 17.1488C10.5507 17.5028 11.0093 17.7899 11.5083 17.9936L11.9615 17.5184C12.1329 17.3382 12.3391 17.1946 12.5677 17.0965C12.7962 16.9985 13.0424 16.9479 13.2911 16.9479C13.5398 16.9479 13.7859 16.9985 14.0145 17.0965C14.2431 17.1946 14.4493 17.3382 14.6207 17.5184L15.0775 18C15.5742 17.798 16.0339 17.515 16.4379 17.1625L16.2562 16.5333C16.1878 16.2961 16.1679 16.0476 16.1978 15.8025C16.2276 15.5575 16.3066 15.321 16.4301 15.1073C16.5535 14.8935 16.7188 14.7068 16.916 14.5584C17.1133 14.4101 17.3384 14.303 17.578 14.2437L18.1137 14.1116C18.1999 13.562 18.198 13.0022 18.1082 12.4531L17.6129 12.3339C17.3711 12.2757 17.1437 12.1689 16.9445 12.02C16.7452 11.8712 16.5784 11.6834 16.454 11.468C16.3296 11.2527 16.2502 11.0143 16.2208 10.7673C16.1914 10.5204 16.2125 10.27 16.2828 10.0315L16.4544 9.4536C16.0508 9.0977 15.5908 8.81156 15.0931 8.60694L14.6409 9.08302C14.4695 9.26342 14.2632 9.40708 14.0345 9.50524C13.8059 9.60341 13.5596 9.65403 13.3108 9.65403C13.062 9.65403 12.8157 9.60341 12.5871 9.50524C12.3584 9.40708 12.1521 9.26342 11.9807 9.08302L11.5239 8.60144C11.0249 8.80324 10.5663 9.0876 10.1636 9.43801L10.3452 10.0673ZM13.3007 14.6767C12.5669 14.6767 11.9706 14.0602 11.9706 13.3007C11.9706 12.5403 12.5669 11.9248 13.3007 11.9248C14.0346 11.9248 14.6308 12.5403 14.6308 13.3007C14.6308 14.0602 14.0346 14.6767 13.3007 14.6767Z" fill="white"/>
</svg>
