<svg width="15" height="15" viewBox="0 0 15 15" fill="none" xmlns="http://www.w3.org/2000/svg">
<path d="M11.8396 14.7021C11.768 14.7955 11.6779 14.8706 11.5758 14.9221C11.4738 14.9736 11.3624 15.0002 11.2496 15C11.1515 15.0006 11.0542 14.98 10.9637 14.9396C10.8732 14.8991 10.7912 14.8394 10.7226 14.7643L7.71851 11.5414C7.57806 11.3908 7.49917 11.1865 7.49917 10.9736C7.49917 10.7606 7.57806 10.5564 7.71851 10.4057C7.78801 10.3309 7.87061 10.2716 7.96156 10.2311C8.05252 10.1907 8.15004 10.1698 8.24852 10.1698C8.34701 10.1698 8.44453 10.1907 8.53549 10.2311C8.62644 10.2716 8.70904 10.3309 8.77854 10.4057L10.4996 12.2614V0.803583C10.4996 0.590463 10.5786 0.386072 10.7192 0.235373C10.8599 0.0846748 11.0507 1.3327e-05 11.2496 1.3327e-05C11.4485 1.3327e-05 11.6393 0.0846748 11.7799 0.235373C11.9206 0.386072 11.9996 0.590463 11.9996 0.803583V12.2507L13.7216 10.41C13.7911 10.3354 13.8736 10.2762 13.9645 10.2358C14.0554 10.1954 14.1528 10.1746 14.2511 10.1746C14.3495 10.1746 14.4469 10.1954 14.5378 10.2358C14.6286 10.2762 14.7112 10.3354 14.7807 10.41C14.9211 10.5607 15 10.7649 15 10.9779C15 11.1908 14.9211 11.395 14.7807 11.5457L11.8386 14.7021H11.8396ZM4.33943 0.29787C4.26779 0.204533 4.1777 0.129399 4.07567 0.0778907C3.97364 0.0263821 3.86221 -0.000216864 3.74942 1.3327e-05C3.6513 -0.00059988 3.55408 0.0199541 3.46354 0.0604503C3.373 0.100946 3.29099 0.160556 3.2224 0.235727L0.219344 3.45858C0.0788912 3.60925 0 3.81349 0 4.02643C0 4.23938 0.0788912 4.44362 0.219344 4.59429C0.288844 4.66906 0.37144 4.72839 0.462393 4.76887C0.553347 4.80935 0.650866 4.83019 0.749355 4.83019C0.847844 4.83019 0.945364 4.80935 1.03632 4.76887C1.12727 4.72839 1.20987 4.66906 1.27937 4.59429L2.9994 2.73965V14.1964C2.9994 14.4095 3.07842 14.6139 3.21907 14.7646C3.35973 14.9153 3.5505 15 3.74942 15C3.94833 15 4.1391 14.9153 4.27976 14.7646C4.42041 14.6139 4.49943 14.4095 4.49943 14.1964V2.74929L6.22146 4.59001C6.29095 4.66461 6.37348 4.7238 6.46434 4.76419C6.5552 4.80458 6.65261 4.82536 6.75098 4.82536C6.84935 4.82536 6.94675 4.80458 7.03761 4.76419C7.12847 4.7238 7.21101 4.66461 7.28049 4.59001C7.42094 4.43934 7.49983 4.2351 7.49983 4.02215C7.49983 3.8092 7.42094 3.60496 7.28049 3.45429L4.33843 0.296798L4.33943 0.29787Z" fill="white"/>
</svg>
