<svg width="36" height="35" viewBox="0 0 36 35" fill="none" xmlns="http://www.w3.org/2000/svg">
<path d="M15.4147 2.21579C16.3712 -0.0838246 19.6288 -0.0838184 20.5853 2.2158L23.4268 9.04759C23.83 10.017 24.7417 10.6794 25.7883 10.7633L33.1638 11.3546C35.6465 11.5537 36.6531 14.6519 34.7616 16.2722L29.1423 21.0857C28.3449 21.7688 27.9966 22.8406 28.2403 23.8619L29.9571 31.0591C30.5349 33.4817 27.8994 35.3965 25.774 34.0983L19.4595 30.2415C18.5635 29.6942 17.4365 29.6942 16.5405 30.2415L10.226 34.0983C8.10056 35.3965 5.46506 33.4817 6.04295 31.0591L7.75975 23.8619C8.00337 22.8406 7.65513 21.7688 6.85772 21.0857L1.23837 16.2722C-0.653131 14.6519 0.353547 11.5537 2.83618 11.3546L10.2117 10.7633C11.2583 10.6794 12.17 10.017 12.5732 9.04758L15.4147 2.21579Z" fill="#ECC12A"/>
</svg>
