<svg width="16" height="16" viewBox="0 0 16 16" fill="none" xmlns="http://www.w3.org/2000/svg">
<path fill-rule="evenodd" clip-rule="evenodd" d="M0.65 0C0.291015 0 0 0.291015 0 0.65C0 1.00899 0.291015 1.3 0.65 1.3H4.94521C5.3042 1.3 5.59521 1.00899 5.59521 0.65C5.59521 0.291015 5.3042 0 4.94521 0H0.65ZM2.14785 12.9006C2.14785 13.8119 2.88658 14.5506 3.79785 14.5506H6.56698C6.9522 15.0087 7.52957 15.2998 8.17495 15.2998H13.7666C14.9264 15.2998 15.8666 14.3596 15.8666 13.1998C15.8666 12.04 14.9264 11.0998 13.7666 11.0998H8.17495C7.01515 11.0998 6.07495 12.04 6.07495 13.1998C6.07495 13.2168 6.07515 13.2337 6.07555 13.2506H3.79785C3.60455 13.2506 3.44785 13.0939 3.44785 12.9006V7.60059V6.90059H6.19472C6.48323 7.71581 7.26089 8.2998 8.17495 8.2998H13.7666C14.9264 8.2998 15.8666 7.3596 15.8666 6.1998C15.8666 5.04001 14.9264 4.0998 13.7666 4.0998H8.17495C7.22336 4.0998 6.4196 4.73274 6.16168 5.60059H3.44785V1.3006H2.14785V7.60059V12.9006ZM8.17495 12.0998H13.7666C14.3741 12.0998 14.8666 12.5923 14.8666 13.1998C14.8666 13.8073 14.3741 14.2998 13.7666 14.2998H8.17495C7.56744 14.2998 7.07495 13.8073 7.07495 13.1998C7.07495 12.5923 7.56744 12.0998 8.17495 12.0998Z" fill="white"/>
</svg>
