<svg width="16" height="16" viewBox="0 0 16 16" fill="none" xmlns="http://www.w3.org/2000/svg">
<path fill-rule="evenodd" clip-rule="evenodd" d="M0.65 0.700195C0.291015 0.700195 0 0.99121 0 1.3502C0 1.70918 0.291015 2.0002 0.65 2.0002H4.94521C5.3042 2.0002 5.59521 1.70918 5.59521 1.3502C5.59521 0.99121 5.3042 0.700195 4.94521 0.700195H0.65ZM2.14785 13.6008C2.14785 14.5121 2.88658 15.2508 3.79785 15.2508H6.56698C6.9522 15.7089 7.52957 16 8.17495 16H13.7666C14.9264 16 15.8666 15.0598 15.8666 13.9C15.8666 12.7402 14.9264 11.8 13.7666 11.8H8.17495C7.01515 11.8 6.07495 12.7402 6.07495 13.9C6.07495 13.917 6.07515 13.9339 6.07555 13.9508H3.79785C3.60455 13.9508 3.44785 13.7941 3.44785 13.6008V8.30079V7.60078H6.19472C6.48323 8.41601 7.26089 9 8.17495 9H13.7666C14.9264 9 15.8666 8.0598 15.8666 6.9C15.8666 5.7402 14.9264 4.8 13.7666 4.8H8.17495C7.22336 4.8 6.4196 5.43293 6.16168 6.30078H3.44785V2.00079H2.14785V8.30079V13.6008ZM8.17495 12.8H13.7666C14.3741 12.8 14.8666 13.2925 14.8666 13.9C14.8666 14.5075 14.3741 15 13.7666 15H8.17495C7.56744 15 7.07495 14.5075 7.07495 13.9C7.07495 13.2925 7.56744 12.8 8.17495 12.8Z" fill="#03396C"/>
</svg>
