<svg width="26" height="19" viewBox="0 0 26 19" fill="none" xmlns="http://www.w3.org/2000/svg">
<path fill-rule="evenodd" clip-rule="evenodd" d="M3.3913 0V4.52173H1.13043V0H3.3913ZM1.13043 18.0869V13.5652H3.3913V18.0869H1.13043ZM4.52173 9.04346C4.52173 10.2982 3.51565 11.3043 2.26087 11.3043C1.81371 11.3043 1.37659 11.1717 1.0048 10.9233C0.633 10.6749 0.343219 10.3218 0.172099 9.90866C0.000979589 9.49554 -0.0437931 9.04096 0.0434429 8.60239C0.130679 8.16383 0.346006 7.76098 0.662193 7.44479C0.978381 7.1286 1.38123 6.91328 1.81979 6.82604C2.25836 6.7388 2.71294 6.78358 3.12606 6.9547C3.53918 7.12582 3.89228 7.4156 4.14071 7.7874C4.38914 8.15919 4.52173 8.59631 4.52173 9.04346ZM26 15.8261C26 17.0808 24.9939 18.0869 23.7391 18.0869H10.1739C9.57428 18.0869 8.99922 17.8487 8.57523 17.4247C8.15123 17.0007 7.91303 16.4257 7.91303 15.8261V11.3043L5.65217 9.04346L7.91303 6.7826V2.26087C7.91303 1.66125 8.15123 1.08619 8.57523 0.662192C8.99922 0.238198 9.57428 0 10.1739 0H23.7391C24.9939 0 26 1.00609 26 2.26087V15.8261ZM16.9563 13.6956C19.5256 13.6956 21.6085 11.6128 21.6085 9.04346C21.6085 6.47414 19.5256 4.3913 16.9563 4.3913C14.387 4.3913 12.3041 6.47414 12.3041 9.04346C12.3041 11.6128 14.387 13.6956 16.9563 13.6956ZM16.9563 14.6956C20.0779 14.6956 22.6085 12.1651 22.6085 9.04346C22.6085 5.92186 20.0779 3.3913 16.9563 3.3913C13.8347 3.3913 11.3041 5.92186 11.3041 9.04346C11.3041 12.1651 13.8347 14.6956 16.9563 14.6956ZM17.2108 5.84876C17.2108 5.57262 16.9869 5.34876 16.7108 5.34876C16.4346 5.34876 16.2108 5.57262 16.2108 5.84876V10.0265V10.3095L16.4535 10.4552L18.911 11.9297C19.1478 12.0717 19.4549 11.995 19.597 11.7582C19.739 11.5214 19.6623 11.2143 19.4255 11.0722L17.2108 9.74336V5.84876Z" fill="#03396C"/>
</svg>
