<svg width="13" height="14" viewBox="0 0 13 14" fill="none" xmlns="http://www.w3.org/2000/svg">
<path d="M1.89679 0C1.39373 0 0.911273 0.199739 0.555556 0.555277C0.199839 0.910814 0 1.39303 0 1.89583V12.1042C0 12.607 0.199839 13.0892 0.555556 13.4447C0.911273 13.8003 1.39373 14 1.89679 14H7.48093L6.22205 12.7417C6.10011 12.6199 6.00338 12.4752 5.93739 12.3159C5.8714 12.1567 5.83743 11.986 5.83743 11.8137C5.83743 11.6413 5.8714 11.4706 5.93739 11.3114C6.00338 11.1522 6.10011 11.0075 6.22205 10.8856C6.34399 10.7637 6.48875 10.667 6.64807 10.6011C6.80739 10.5351 6.97815 10.5012 7.1506 10.5012C7.32305 10.5012 7.4938 10.5351 7.65313 10.6011C7.81245 10.667 7.95721 10.7637 8.07915 10.8856L8.90031 11.7063L11.4735 9.13442C11.5354 9.07258 11.6019 9.01775 11.6725 8.97108V1.89583C11.6725 1.39303 11.4727 0.910814 11.117 0.555277C10.7613 0.199739 10.2788 0 9.77575 0H1.89679ZM3.79358 3.9375C3.79358 4.13089 3.71671 4.31635 3.5799 4.4531C3.44309 4.58984 3.25753 4.66667 3.06404 4.66667C2.87056 4.66667 2.685 4.58984 2.54818 4.4531C2.41137 4.31635 2.33451 4.13089 2.33451 3.9375C2.33451 3.74411 2.41137 3.55865 2.54818 3.4219C2.685 3.28516 2.87056 3.20833 3.06404 3.20833C3.25753 3.20833 3.44309 3.28516 3.5799 3.4219C3.71671 3.55865 3.79358 3.74411 3.79358 3.9375ZM3.06404 7.72917C2.87056 7.72917 2.685 7.65234 2.54818 7.5156C2.41137 7.37885 2.33451 7.19339 2.33451 7C2.33451 6.80661 2.41137 6.62115 2.54818 6.4844C2.685 6.34766 2.87056 6.27083 3.06404 6.27083C3.25753 6.27083 3.44309 6.34766 3.5799 6.4844C3.71671 6.62115 3.79358 6.80661 3.79358 7C3.79358 7.19339 3.71671 7.37885 3.5799 7.5156C3.44309 7.65234 3.25753 7.72917 3.06404 7.72917ZM3.06404 10.7917C2.87056 10.7917 2.685 10.7148 2.54818 10.5781C2.41137 10.4414 2.33451 10.2559 2.33451 10.0625C2.33451 9.86911 2.41137 9.68365 2.54818 9.5469C2.685 9.41016 2.87056 9.33333 3.06404 9.33333C3.25753 9.33333 3.44309 9.41016 3.5799 9.5469C3.71671 9.68365 3.79358 9.86911 3.79358 10.0625C3.79358 10.2559 3.71671 10.4414 3.5799 10.5781C3.44309 10.7148 3.25753 10.7917 3.06404 10.7917ZM5.10674 3.5H8.90031C9.0164 3.5 9.12774 3.54609 9.20983 3.62814C9.29191 3.71019 9.33803 3.82147 9.33803 3.9375C9.33803 4.05353 9.29191 4.16481 9.20983 4.24686C9.12774 4.32891 9.0164 4.375 8.90031 4.375H5.10674C4.99065 4.375 4.87931 4.32891 4.79722 4.24686C4.71513 4.16481 4.66902 4.05353 4.66902 3.9375C4.66902 3.82147 4.71513 3.71019 4.79722 3.62814C4.87931 3.54609 4.99065 3.5 5.10674 3.5ZM4.66902 7C4.66902 6.88397 4.71513 6.77269 4.79722 6.69064C4.87931 6.60859 4.99065 6.5625 5.10674 6.5625H8.90031C9.0164 6.5625 9.12774 6.60859 9.20983 6.69064C9.29191 6.77269 9.33803 6.88397 9.33803 7C9.33803 7.11603 9.29191 7.22731 9.20983 7.30936C9.12774 7.39141 9.0164 7.4375 8.90031 7.4375H5.10674C4.99065 7.4375 4.87931 7.39141 4.79722 7.30936C4.71513 7.22731 4.66902 7.11603 4.66902 7ZM5.10674 9.625H8.90031C9.0164 9.625 9.12774 9.67109 9.20983 9.75314C9.29191 9.83519 9.33803 9.94647 9.33803 10.0625C9.33803 10.1785 9.29191 10.2898 9.20983 10.3719C9.12774 10.4539 9.0164 10.5 8.90031 10.5H5.10674C4.99065 10.5 4.87931 10.4539 4.79722 10.3719C4.71513 10.2898 4.66902 10.1785 4.66902 10.0625C4.66902 9.94647 4.71513 9.83519 4.79722 9.75314C4.87931 9.67109 4.99065 9.625 5.10674 9.625Z" fill="#03396C"/>
<path d="M9.20972 13.8718L12.7115 10.3718C12.7545 10.3318 12.789 10.2835 12.8129 10.2298C12.8368 10.1762 12.8497 10.1182 12.8507 10.0595C12.8518 10.0007 12.841 9.94238 12.8189 9.88791C12.7969 9.83343 12.7642 9.78394 12.7226 9.7424C12.681 9.70085 12.6315 9.6681 12.577 9.6461C12.5225 9.6241 12.4641 9.61329 12.4054 9.61433C12.3466 9.61536 12.2886 9.62822 12.2349 9.65213C12.1812 9.67604 12.1329 9.71052 12.0928 9.7535L8.90039 12.9443L7.46 11.5047C7.37702 11.4274 7.26727 11.3853 7.15387 11.3873C7.04048 11.3893 6.93228 11.4352 6.85208 11.5154C6.77188 11.5955 6.72595 11.7037 6.72395 11.817C6.72194 11.9304 6.76404 12.0401 6.84136 12.123L8.59107 13.8718C8.67314 13.9538 8.7844 13.9998 8.90039 13.9998C9.01639 13.9998 9.12764 13.9538 9.20972 13.8718Z" fill="#03396C"/>
</svg>
