<svg width="62" height="67" viewBox="0 0 62 67" fill="none" xmlns="http://www.w3.org/2000/svg">
<path d="M9.33627 0C6.92878 0 4.61988 0.955894 2.91752 2.6574C1.21516 4.3589 0.258789 6.66663 0.258789 9.07292V57.9271C0.258789 60.3334 1.21516 62.6411 2.91752 64.3426C4.61988 66.0441 6.92878 67 9.33627 67H36.0604L30.0357 60.9784C29.4522 60.3951 28.9893 59.7027 28.6734 58.9406C28.3576 58.1785 28.1951 57.3617 28.1951 56.5368C28.1951 55.712 28.3576 54.8952 28.6734 54.1331C28.9893 53.371 29.4522 52.6786 30.0357 52.0953C30.6193 51.512 31.3121 51.0493 32.0746 50.7337C32.837 50.418 33.6542 50.2555 34.4795 50.2555C35.3048 50.2555 36.122 50.418 36.8845 50.7337C37.6469 51.0493 38.3397 51.512 38.9233 52.0953L42.8531 56.0232L55.1678 43.7147C55.4639 43.4188 55.7823 43.1564 56.1202 42.933V9.07292C56.1202 6.66663 55.1639 4.3589 53.4615 2.6574C51.7591 0.955894 49.4502 0 47.0427 0H9.33627ZM18.4138 18.8438C18.4138 19.7692 18.0459 20.6568 17.3912 21.3113C16.7364 21.9657 15.8484 22.3333 14.9224 22.3333C13.9965 22.3333 13.1084 21.9657 12.4537 21.3113C11.7989 20.6568 11.4311 19.7692 11.4311 18.8438C11.4311 17.9183 11.7989 17.0307 12.4537 16.3762C13.1084 15.7218 13.9965 15.3542 14.9224 15.3542C15.8484 15.3542 16.7364 15.7218 17.3912 16.3762C18.0459 17.0307 18.4138 17.9183 18.4138 18.8438ZM14.9224 36.9896C13.9965 36.9896 13.1084 36.6219 12.4537 35.9675C11.7989 35.3131 11.4311 34.4255 11.4311 33.5C11.4311 32.5745 11.7989 31.6869 12.4537 31.0325C13.1084 30.3781 13.9965 30.0104 14.9224 30.0104C15.8484 30.0104 16.7364 30.3781 17.3912 31.0325C18.0459 31.6869 18.4138 32.5745 18.4138 33.5C18.4138 34.4255 18.0459 35.3131 17.3912 35.9675C16.7364 36.6219 15.8484 36.9896 14.9224 36.9896V36.9896ZM14.9224 51.6458C13.9965 51.6458 13.1084 51.2782 12.4537 50.6238C11.7989 49.9693 11.4311 49.0817 11.4311 48.1563C11.4311 47.2308 11.7989 46.3432 12.4537 45.6887C13.1084 45.0343 13.9965 44.6667 14.9224 44.6667C15.8484 44.6667 16.7364 45.0343 17.3912 45.6887C18.0459 46.3432 18.4138 47.2308 18.4138 48.1563C18.4138 49.0817 18.0459 49.9693 17.3912 50.6238C16.7364 51.2782 15.8484 51.6458 14.9224 51.6458V51.6458ZM24.6982 16.75H42.8531C43.4087 16.75 43.9415 16.9706 44.3344 17.3632C44.7272 17.7559 44.9479 18.2885 44.9479 18.8438C44.9479 19.399 44.7272 19.9316 44.3344 20.3243C43.9415 20.7169 43.4087 20.9375 42.8531 20.9375H24.6982C24.1426 20.9375 23.6098 20.7169 23.2169 20.3243C22.8241 19.9316 22.6034 19.399 22.6034 18.8438C22.6034 18.2885 22.8241 17.7559 23.2169 17.3632C23.6098 16.9706 24.1426 16.75 24.6982 16.75V16.75ZM22.6034 33.5C22.6034 32.9447 22.8241 32.4122 23.2169 32.0195C23.6098 31.6268 24.1426 31.4063 24.6982 31.4063H42.8531C43.4087 31.4063 43.9415 31.6268 44.3344 32.0195C44.7272 32.4122 44.9479 32.9447 44.9479 33.5C44.9479 34.0553 44.7272 34.5879 44.3344 34.9805C43.9415 35.3732 43.4087 35.5938 42.8531 35.5938H24.6982C24.1426 35.5938 23.6098 35.3732 23.2169 34.9805C22.8241 34.5879 22.6034 34.0553 22.6034 33.5V33.5ZM24.6982 46.0625H42.8531C43.4087 46.0625 43.9415 46.2831 44.3344 46.6757C44.7272 47.0684 44.9479 47.601 44.9479 48.1563C44.9479 48.7115 44.7272 49.2441 44.3344 49.6368C43.9415 50.0294 43.4087 50.25 42.8531 50.25H24.6982C24.1426 50.25 23.6098 50.0294 23.2169 49.6368C22.8241 49.2441 22.6034 48.7115 22.6034 48.1563C22.6034 47.601 22.8241 47.0684 23.2169 46.6757C23.6098 46.2831 24.1426 46.0625 24.6982 46.0625Z" fill="#03396C" fill-opacity="0.5"/>
<path d="M44.3335 66.3858L61.092 49.6358C61.2978 49.4441 61.4628 49.213 61.5773 48.9562C61.6918 48.6993 61.7534 48.4221 61.7584 48.1409C61.7633 47.8598 61.7116 47.5806 61.6062 47.3199C61.5009 47.0591 61.3441 46.8223 61.1451 46.6235C60.9462 46.4247 60.7093 46.2679 60.4484 46.1626C60.1876 46.0573 59.9082 46.0056 59.6269 46.0106C59.3457 46.0155 59.0683 46.0771 58.8113 46.1915C58.5543 46.3059 58.3231 46.4709 58.1313 46.6766L42.8532 61.9471L35.9599 55.0572C35.5628 54.6874 35.0376 54.486 34.4949 54.4956C33.9522 54.5052 33.4344 54.7249 33.0506 55.1085C32.6668 55.4921 32.4469 56.0097 32.4373 56.5521C32.4278 57.0945 32.6292 57.6195 32.9992 58.0164L41.3729 66.3858C41.7656 66.7779 42.2981 66.9981 42.8532 66.9981C43.4083 66.9981 43.9407 66.7779 44.3335 66.3858V66.3858Z" fill="#03396C" fill-opacity="0.5"/>
</svg>
