<svg width="24" height="24" viewBox="0 0 24 24" fill="none" xmlns="http://www.w3.org/2000/svg">
<circle cx="12" cy="12" r="12" fill="#03396C"/>
<path fill-rule="evenodd" clip-rule="evenodd" d="M22 12C22 17.5228 17.5228 22 12 22C6.47715 22 2 17.5228 2 12C2 6.47715 6.47715 2 12 2C17.5228 2 22 6.47715 22 12ZM23 12C23 18.0751 18.0751 23 12 23C5.92487 23 1 18.0751 1 12C1 5.92487 5.92487 1 12 1C18.0751 1 23 5.92487 23 12ZM7.46018 8.73462L7.54003 8.6279C8.32577 7.5777 9.45322 6.83643 10.7268 6.53263C12.0004 6.22883 13.3399 6.38165 14.5129 6.96459C15.686 7.54752 16.6186 8.52383 17.1491 9.72421C17.6795 10.9246 17.7744 12.2733 17.4171 13.5365C17.0598 14.7997 16.273 15.8976 15.1932 16.6398C14.1133 17.3821 12.8085 17.7219 11.5049 17.6003C10.2014 17.4788 8.98144 16.9035 8.05653 15.9743C7.13162 15.0451 6.56014 13.8205 6.44124 12.5129L6.44097 12.51C6.43789 12.4441 6.4216 12.3795 6.39296 12.3201C6.36432 12.2607 6.32398 12.2077 6.27438 12.1644C6.22477 12.121 6.16691 12.0881 6.1043 12.0678C6.04168 12.0475 5.9756 12.04 5.91004 12.046C5.84449 12.0519 5.78081 12.0711 5.72286 12.1024C5.6649 12.1337 5.61387 12.1764 5.57283 12.228C5.53179 12.2796 5.50159 12.3389 5.48404 12.4025C5.4665 12.4661 5.46197 12.5326 5.47072 12.5979L5.4711 12.6007C5.60903 14.1133 6.26285 15.5318 7.32242 16.6171C8.38199 17.7024 9.78239 18.3879 11.2874 18.5581C12.7924 18.7283 14.3099 18.3727 15.5838 17.5513C16.8578 16.7299 17.8102 15.4929 18.2805 14.0492C18.7508 12.6054 18.7102 11.0432 18.1655 9.62598C17.6208 8.20877 16.6054 7.02331 15.2905 6.26961C13.9756 5.5159 12.4417 5.24008 10.9476 5.4887C9.45345 5.73732 8.09058 6.49514 7.08885 7.63432L6.97276 7.76634V6.44574C6.97276 6.31611 6.92141 6.19177 6.82999 6.10008C6.73855 6.00838 6.61452 5.95685 6.48517 5.95685C6.35581 5.95685 6.23178 6.00838 6.14035 6.10008C6.04892 6.19177 5.99757 6.31611 5.99757 6.44574V9.22351C5.99757 9.35313 6.04892 9.47747 6.14035 9.56916C6.23178 9.66086 6.35581 9.7124 6.48517 9.7124H9.25494C9.38429 9.7124 9.50832 9.66086 9.59976 9.56916C9.69118 9.47747 9.74253 9.35313 9.74253 9.22351C9.74253 9.09388 9.69118 8.96955 9.59976 8.87785C9.50832 8.78616 9.38429 8.73462 9.25494 8.73462H7.46018ZM11.9583 12.0679V9.22351C11.9583 9.09388 11.907 8.96955 11.8156 8.87785C11.7241 8.78616 11.6001 8.73462 11.4708 8.73462C11.3414 8.73462 11.2174 8.78616 11.1259 8.87785C11.0345 8.96955 10.9832 9.09388 10.9832 9.22351V12.5568C10.9832 12.6865 11.0345 12.8108 11.1259 12.9025C11.2174 12.9942 11.3414 13.0457 11.4708 13.0457H13.6866C13.8159 13.0457 13.94 12.9942 14.0314 12.9025C14.1228 12.8108 14.1742 12.6865 14.1742 12.5568C14.1742 12.4272 14.1228 12.3029 14.0314 12.2112C13.94 12.1195 13.8159 12.0679 13.6866 12.0679H11.9583Z" fill="#DFEEF7"/>
</svg>
