<svg width="14" height="14" viewBox="0 0 14 14" fill="none" xmlns="http://www.w3.org/2000/svg">
<path fill-rule="evenodd" clip-rule="evenodd" d="M12.4251 8.20376C12.8426 8.20376 13.243 8.3658 13.5383 8.65424C13.8335 8.94268 13.9994 9.33389 13.9994 9.7418V10.3696C13.9995 10.762 13.8739 11.1446 13.6403 11.4638C12.5588 12.943 10.7913 13.6748 8.39728 13.6748C7.6879 13.6748 7.03368 13.6104 6.43613 13.4814L7.40665 12.5333C7.60983 12.3345 7.72396 12.0651 7.72396 11.7842C7.72396 11.5033 7.60958 11.2336 7.4064 11.0349L5.64941 9.31836L5.64219 9.31178C5.43651 9.12454 5.16447 9.0226 4.88338 9.02745C4.60229 9.03229 4.3341 9.14354 4.13531 9.33775C3.93652 9.53196 3.82265 9.79397 3.81769 10.0686C3.81341 10.3055 3.89047 10.5358 4.03477 10.7236L3.24352 10.7237L2.83429 10.7237C2.81162 10.6078 2.80005 10.4895 2.80008 10.3703V9.74111C2.80027 9.33356 2.96602 8.94273 3.26094 8.65448C3.55585 8.36623 3.95582 8.20412 4.37298 8.20376H12.4251ZM8.39728 0C9.32554 0 10.2158 0.360255 10.8722 1.00151C11.5285 1.64277 11.8973 2.5125 11.8973 3.41937C11.8973 4.32625 11.5285 5.19598 10.8722 5.83724C10.2158 6.47849 9.32554 6.83875 8.39728 6.83875C7.46903 6.83875 6.57879 6.47849 5.92241 5.83724C5.26603 5.19598 4.89728 4.32625 4.89728 3.41937C4.89728 2.5125 5.26603 1.64277 5.92241 1.00151C6.57879 0.360255 7.46903 0 8.39728 0ZM4.51835 10.4368C4.42562 10.3396 4.37513 10.211 4.37753 10.0781C4.37993 9.94522 4.43503 9.81844 4.53122 9.72447C4.62741 9.6305 4.75717 9.57667 4.89319 9.57432C5.0292 9.57198 5.16083 9.6213 5.26035 9.7119L7.01035 11.4216C7.10867 11.5178 7.16389 11.6481 7.16389 11.784C7.16389 11.92 7.10867 12.0503 7.01035 12.1465L5.26035 13.8562C5.16129 13.9496 5.02865 14.0012 4.891 14C4.75334 13.9987 4.62169 13.9447 4.5244 13.8496C4.4271 13.7545 4.37195 13.6258 4.37082 13.4913C4.36969 13.3568 4.42267 13.2273 4.51835 13.1306L5.37235 12.2963H0.556351C-0.185684 12.2963 -0.185684 11.2699 0.557751 11.2705C1.30119 11.271 5.37165 11.2705 5.37165 11.2705L4.51835 10.4368Z" fill="#03396C"/>
</svg>
