<svg width="22" height="22" viewBox="0 0 22 22" fill="none" xmlns="http://www.w3.org/2000/svg">
<circle cx="11" cy="11" r="10.5" stroke="#DFEEF7"/>
<path d="M15.597 6.2582C15.5737 5.91682 15.4217 5.59701 15.1716 5.36344C14.9216 5.12987 14.5922 4.99997 14.25 5H7.35L7.2576 5.003C6.91622 5.02642 6.59648 5.1786 6.36302 5.42877C6.12956 5.67893 5.99981 6.00842 6 6.3506V15.6494L6.003 15.7418C6.02627 16.0832 6.1783 16.403 6.42835 16.6365C6.67841 16.8701 7.00783 17 7.35 17H11.8908L10.9908 16.1H7.35L7.2888 16.0958C7.18107 16.081 7.08233 16.0277 7.01086 15.9457C6.93938 15.8638 6.9 15.7587 6.9 15.65V6.3506L6.9042 6.2894C6.91899 6.18167 6.97229 6.08293 7.05424 6.01146C7.13619 5.93998 7.24126 5.9006 7.35 5.9006H14.25L14.3112 5.9048C14.4189 5.91959 14.5176 5.97289 14.5891 6.05484C14.6606 6.13679 14.7 6.24185 14.7 6.3506V13.2908L15.3954 12.5954C15.459 12.5318 15.5274 12.4754 15.5994 12.4274V6.35L15.597 6.2576V6.2582Z" fill="#DFEEF7"/>
<path d="M13.3728 16.9995C13.3577 17.0003 13.3424 17.0003 13.3272 16.9995C13.2158 16.9939 13.1103 16.947 13.0314 16.8681L11.5314 15.3669C11.4471 15.2824 11.3998 15.1678 11.3999 15.0484C11.4 14.929 11.4475 14.8146 11.532 14.7303C11.6165 14.6459 11.7311 14.5986 11.8505 14.5987C11.9699 14.5988 12.0843 14.6464 12.1686 14.7309L13.35 15.9135L16.032 13.2315C16.0736 13.1885 16.1232 13.1542 16.1782 13.1307C16.2331 13.1071 16.2921 13.0947 16.3519 13.0943C16.4116 13.0938 16.4709 13.1052 16.5262 13.1278C16.5815 13.1505 16.6317 13.1839 16.6739 13.2262C16.7161 13.2685 16.7495 13.3187 16.7721 13.374C16.7947 13.4293 16.8061 13.4886 16.8055 13.5484C16.805 13.6081 16.7926 13.6672 16.7689 13.722C16.7453 13.7769 16.711 13.8266 16.668 13.8681L13.668 16.8681C13.5893 16.9469 13.4841 16.9937 13.3728 16.9995Z" fill="#DFEEF7"/>
<path d="M11.9047 13.7C11.8683 13.6986 11.8319 13.6986 11.7955 13.7H10.3477C10.2284 13.7 10.1139 13.6526 10.0295 13.5682C9.94512 13.4839 9.89771 13.3694 9.89771 13.25C9.89771 13.1307 9.94512 13.0162 10.0295 12.9319C10.1139 12.8475 10.2284 12.8 10.3477 12.8H13.3501C13.4694 12.8 13.5839 12.8475 13.6683 12.9319C13.7527 13.0162 13.8001 13.1307 13.8001 13.25C13.8001 13.3694 13.7527 13.4839 13.6683 13.5682C13.5839 13.6526 13.4694 13.7 13.3501 13.7H11.9041H11.9047Z" fill="#DFEEF7"/>
<path d="M9.00005 8.45107C9.00005 8.6102 8.93683 8.76281 8.82431 8.87534C8.71179 8.98786 8.55918 9.05107 8.40005 9.05107C8.24092 9.05107 8.08831 8.98786 7.97578 8.87534C7.86326 8.76281 7.80005 8.6102 7.80005 8.45107C7.80005 8.29194 7.86326 8.13933 7.97578 8.02681C8.08831 7.91429 8.24092 7.85107 8.40005 7.85107C8.55918 7.85107 8.71179 7.91429 8.82431 8.02681C8.93683 8.13933 9.00005 8.29194 9.00005 8.45107Z" fill="#DFEEF7"/>
<path d="M9.89771 8.45C9.89771 8.33065 9.94512 8.21619 10.0295 8.1318C10.1139 8.04741 10.2284 8 10.3477 8H13.3501C13.4694 8 13.5839 8.04741 13.6683 8.1318C13.7527 8.21619 13.8001 8.33065 13.8001 8.45C13.8001 8.56935 13.7527 8.6838 13.6683 8.7682C13.5839 8.85259 13.4694 8.9 13.3501 8.9H10.3477C10.2284 8.9 10.1139 8.85259 10.0295 8.7682C9.94512 8.6838 9.89771 8.56935 9.89771 8.45Z" fill="#DFEEF7"/>
<path d="M10.3477 10.3999C10.2284 10.3999 10.1139 10.4473 10.0295 10.5317C9.94512 10.6161 9.89771 10.7306 9.89771 10.8499C9.89771 10.9692 9.94512 11.0837 10.0295 11.1681C10.1139 11.2525 10.2284 11.2999 10.3477 11.2999H13.3501C13.4092 11.2999 13.4677 11.2883 13.5223 11.2656C13.5769 11.243 13.6265 11.2099 13.6683 11.1681C13.7101 11.1263 13.7432 11.0767 13.7658 11.0221C13.7885 10.9675 13.8001 10.909 13.8001 10.8499C13.8001 10.7908 13.7885 10.7323 13.7658 10.6777C13.7432 10.6231 13.7101 10.5735 13.6683 10.5317C13.6265 10.4899 13.5769 10.4568 13.5223 10.4342C13.4677 10.4115 13.4092 10.3999 13.3501 10.3999H10.3477Z" fill="#DFEEF7"/>
<path d="M8.40005 11.45C8.55918 11.45 8.71179 11.3868 8.82431 11.2743C8.93683 11.1617 9.00005 11.0091 9.00005 10.85C9.00005 10.6909 8.93683 10.5383 8.82431 10.4257C8.71179 10.3132 8.55918 10.25 8.40005 10.25C8.24092 10.25 8.08831 10.3132 7.97578 10.4257C7.86326 10.5383 7.80005 10.6909 7.80005 10.85C7.80005 11.0091 7.86326 11.1617 7.97578 11.2743C8.08831 11.3868 8.24092 11.45 8.40005 11.45Z" fill="#DFEEF7"/>
<path d="M9.00005 13.2487C9.00005 13.4078 8.93683 13.5604 8.82431 13.6729C8.71179 13.7855 8.55918 13.8487 8.40005 13.8487C8.24092 13.8487 8.08831 13.7855 7.97578 13.6729C7.86326 13.5604 7.80005 13.4078 7.80005 13.2487C7.80005 13.0896 7.86326 12.9369 7.97578 12.8244C8.08831 12.7119 8.24092 12.6487 8.40005 12.6487C8.55918 12.6487 8.71179 12.7119 8.82431 12.8244C8.93683 12.9369 9.00005 13.0896 9.00005 13.2487Z" fill="#DFEEF7"/>
</svg>
