<svg width="24" height="30" viewBox="0 0 24 30" fill="none" xmlns="http://www.w3.org/2000/svg">
<path d="M14.625 0H9.375C8.54484 2.50809e-05 7.74382 0.30601 7.12506 0.859457C6.50631 1.4129 6.11324 2.17498 6.021 3H3.375C2.47989 3 1.62145 3.35558 0.988515 3.98851C0.35558 4.62145 0 5.47989 0 6.375V26.625C0 27.5201 0.35558 28.3785 0.988515 29.0115C1.62145 29.6444 2.47989 30 3.375 30H20.625C21.0682 30 21.5071 29.9127 21.9166 29.7431C22.326 29.5735 22.6981 29.3249 23.0115 29.0115C23.3249 28.6981 23.5735 28.326 23.7431 27.9166C23.9127 27.5071 24 27.0682 24 26.625V6.375C24 5.93179 23.9127 5.49292 23.7431 5.08344C23.5735 4.67397 23.3249 4.30191 23.0115 3.98851C22.6981 3.67512 22.326 3.42652 21.9166 3.25691C21.5071 3.0873 21.0682 3 20.625 3H17.979C17.8868 2.17498 17.4937 1.4129 16.8749 0.859457C16.2562 0.30601 15.4552 2.50809e-05 14.625 0ZM9.375 2.25H14.625C14.9234 2.25 15.2095 2.36853 15.4205 2.5795C15.6315 2.79048 15.75 3.07663 15.75 3.375C15.75 3.67337 15.6315 3.95952 15.4205 4.1705C15.2095 4.38147 14.9234 4.5 14.625 4.5H9.375C9.07663 4.5 8.79048 4.38147 8.57951 4.1705C8.36853 3.95952 8.25 3.67337 8.25 3.375C8.25 3.07663 8.36853 2.79048 8.57951 2.5795C8.79048 2.36853 9.07663 2.25 9.375 2.25ZM19.545 13.545L11.295 21.795C11.0841 22.0057 10.7981 22.124 10.5 22.124C10.2019 22.124 9.91594 22.0057 9.705 21.795L5.955 18.045C5.84447 17.942 5.75582 17.8178 5.69433 17.6798C5.63284 17.5418 5.59978 17.3928 5.59711 17.2418C5.59445 17.0907 5.62223 16.9407 5.67882 16.8006C5.7354 16.6605 5.81961 16.5333 5.92644 16.4264C6.03327 16.3196 6.16052 16.2354 6.3006 16.1788C6.44069 16.1222 6.59073 16.0944 6.74178 16.0971C6.89284 16.0998 7.04181 16.1328 7.17981 16.1943C7.31781 16.2558 7.44201 16.3445 7.545 16.455L10.5 19.41L17.955 11.955C18.058 11.8445 18.1822 11.7558 18.3202 11.6943C18.4582 11.6328 18.6072 11.5998 18.7582 11.5971C18.9093 11.5944 19.0593 11.6222 19.1994 11.6788C19.3395 11.7354 19.4667 11.8196 19.5736 11.9264C19.6804 12.0333 19.7646 12.1605 19.8212 12.3006C19.8778 12.4407 19.9056 12.5907 19.9029 12.7418C19.9002 12.8928 19.8672 13.0418 19.8057 13.1798C19.7442 13.3178 19.6555 13.442 19.545 13.545Z" fill="white"/>
</svg>
