<svg width="14" height="14" viewBox="0 0 14 14" fill="none" xmlns="http://www.w3.org/2000/svg">
<path fill-rule="evenodd" clip-rule="evenodd" d="M12.425 8.20376C12.8425 8.20376 13.2429 8.3658 13.5382 8.65424C13.8334 8.94268 13.9993 9.33389 13.9993 9.7418V10.3696C13.9993 10.762 13.8738 11.1446 13.6402 11.4638C12.5587 12.943 10.7912 13.6748 8.39717 13.6748C6.92775 13.6748 5.69502 13.3987 4.71238 12.8435H6.60747C6.93399 12.8435 7.22517 12.7263 7.43255 12.5111C7.63255 12.3036 7.724 12.0368 7.72383 11.7829C7.72365 11.529 7.63182 11.2623 7.43139 11.055C7.22361 10.8401 6.93221 10.7233 6.60565 10.7235C6.23423 10.7238 5.03106 10.7238 3.92037 10.7237L3.12912 10.7236C3.27342 10.5358 3.35049 10.3055 3.34621 10.0686C3.34125 9.79397 3.22738 9.53196 3.02859 9.33775C2.98596 9.29611 2.94014 9.25828 2.89169 9.22449C2.96932 9.01214 3.09454 8.81701 3.26082 8.65448C3.55574 8.36623 3.9557 8.20412 4.37287 8.20376H12.425ZM8.39717 0C9.32543 0 10.2157 0.360255 10.872 1.00151C11.5284 1.64277 11.8972 2.5125 11.8972 3.41937C11.8972 4.32625 11.5284 5.19598 10.872 5.83724C10.2157 6.47849 9.32543 6.83875 8.39717 6.83875C7.46891 6.83875 6.57867 6.47849 5.9223 5.83724C5.26592 5.19598 4.89717 4.32625 4.89717 3.41937C4.89717 2.5125 5.26592 1.64277 5.9223 1.00151C6.57867 0.360255 7.46891 0 8.39717 0ZM2.64554 10.4368C2.73827 10.3396 2.78876 10.211 2.78636 10.0781C2.78396 9.94522 2.72886 9.81844 2.63267 9.72447C2.53648 9.6305 2.40671 9.57667 2.2707 9.57432C2.13469 9.57198 2.00306 9.6213 1.90354 9.7119L0.153538 11.4216C0.0552229 11.5178 0 11.6481 0 11.784C0 11.92 0.0552229 12.0503 0.153538 12.1465L1.90354 13.8562C2.0026 13.9496 2.13524 14.0012 2.27289 14C2.41055 13.9987 2.5422 13.9447 2.63949 13.8496C2.73679 13.7545 2.79194 13.6258 2.79307 13.4913C2.7942 13.3568 2.74122 13.2273 2.64554 13.1306L1.79154 12.2963H6.60754C7.34957 12.2963 7.34957 11.2699 6.60614 11.2705C5.8627 11.271 1.79224 11.2705 1.79224 11.2705L2.64554 10.4368Z" fill="#03396C"/>
</svg>
