<svg width="16" height="13" viewBox="0 0 16 13" fill="none" xmlns="http://www.w3.org/2000/svg">
<path fill-rule="evenodd" clip-rule="evenodd" d="M6.62739 0.203654C6.90607 0.482339 6.90607 0.932522 6.62739 1.21121L3.60473 4.24816C3.32604 4.52684 2.87586 4.52684 2.59003 4.24816L1.07513 2.72611C0.941516 2.5925 0.866455 2.41129 0.866455 2.22233C0.866455 2.12877 0.884883 2.03613 0.920687 1.94969C0.956491 1.86325 1.00897 1.78471 1.07513 1.71856C1.14128 1.6524 1.21982 1.59992 1.30626 1.56412C1.3927 1.52831 1.48534 1.50989 1.5789 1.50989C1.76786 1.50989 1.94907 1.58495 2.08268 1.71856L3.09738 2.73326L5.62698 0.203654C5.89852 -0.0678847 6.35585 -0.0678847 6.62739 0.203654ZM9 1C8.44772 1 8 1.44772 8 2C8 2.55228 8.44772 3 9 3H15C15.5523 3 16 2.55228 16 2C16 1.44772 15.5523 1 15 1H9ZM9 10C8.44772 10 8 10.4477 8 11C8 11.5523 8.44772 12 9 12H15C15.5523 12 16 11.5523 16 11C16 10.4477 15.5523 10 15 10H9ZM4.86646 10.5C4.86646 11.3284 4.19488 12 3.36646 12C2.53803 12 1.86646 11.3284 1.86646 10.5C1.86646 9.67157 2.53803 9 3.36646 9C4.19488 9 4.86646 9.67157 4.86646 10.5ZM5.86646 10.5C5.86646 11.8807 4.74717 13 3.36646 13C1.98574 13 0.866455 11.8807 0.866455 10.5C0.866455 9.11929 1.98574 8 3.36646 8C4.74717 8 5.86646 9.11929 5.86646 10.5Z" fill="white"/>
</svg>
