<svg width="32" height="32" viewBox="0 0 32 32" fill="none" xmlns="http://www.w3.org/2000/svg">
<path opacity="0.8" d="M8.47059 3.88211e-07C7.88645 -0.000305845 7.31659 0.18057 6.83955 0.5177C6.36251 0.85483 6.00177 1.33162 5.80706 1.88235H2.82353C2.07468 1.88235 1.35651 2.17983 0.826993 2.70935C0.297478 3.23886 0 3.95704 0 4.70588V27.2941C0 28.043 0.297478 28.7611 0.826993 29.2907C1.35651 29.8202 2.07468 30.1176 2.82353 30.1176H15.5426C15.0632 29.537 14.6485 28.9058 14.3059 28.2353H2.82353C2.57391 28.2353 2.33452 28.1361 2.15802 27.9596C1.98151 27.7831 1.88235 27.5437 1.88235 27.2941V4.70588C1.88235 4.45627 1.98151 4.21688 2.15802 4.04037C2.33452 3.86387 2.57391 3.76471 2.82353 3.76471H5.80706C6.00177 4.31544 6.36251 4.79223 6.83955 5.12936C7.31659 5.46649 7.88645 5.64737 8.47059 5.64706H14.1176C14.7018 5.64737 15.2716 5.46649 15.7487 5.12936C16.2257 4.79223 16.5865 4.31544 16.7812 3.76471H19.7647C20.0143 3.76471 20.2537 3.86387 20.4302 4.04037C20.6067 4.21688 20.7059 4.45627 20.7059 4.70588V13.5661C21.3212 13.3919 21.9513 13.2754 22.5882 13.2179V4.70588C22.5882 3.95704 22.2908 3.23886 21.7612 2.70935C21.2317 2.17983 20.5136 1.88235 19.7647 1.88235H16.7812C16.5865 1.33162 16.2257 0.85483 15.7487 0.5177C15.2716 0.18057 14.7018 -0.000305845 14.1176 3.88211e-07H8.47059ZM7.52941 2.82353C7.52941 2.57391 7.62857 2.33452 7.80508 2.15802C7.98158 1.98151 8.22097 1.88235 8.47059 1.88235H14.1176C14.3673 1.88235 14.6067 1.98151 14.7832 2.15802C14.9597 2.33452 15.0588 2.57391 15.0588 2.82353C15.0588 3.07315 14.9597 3.31254 14.7832 3.48904C14.6067 3.66555 14.3673 3.76471 14.1176 3.76471H8.47059C8.22097 3.76471 7.98158 3.66555 7.80508 3.48904C7.62857 3.31254 7.52941 3.07315 7.52941 2.82353ZM16.6664 14.784C16.8431 14.6073 16.9424 14.3676 16.9424 14.1176C16.9424 13.8677 16.8431 13.628 16.6664 13.4513C16.4896 13.2746 16.2499 13.1753 16 13.1753C15.7501 13.1753 15.5104 13.2746 15.3336 13.4513L9.41177 19.3751L7.25459 17.216C7.16708 17.1285 7.0632 17.0591 6.94886 17.0117C6.83453 16.9644 6.71199 16.94 6.58824 16.94C6.46448 16.94 6.34194 16.9644 6.22761 17.0117C6.11327 17.0591 6.00939 17.1285 5.92188 17.216C5.83438 17.3035 5.76496 17.4074 5.7176 17.5217C5.67024 17.6361 5.64587 17.7586 5.64587 17.8824C5.64587 18.0061 5.67024 18.1286 5.7176 18.243C5.76496 18.3573 5.83438 18.4612 5.92188 18.5487L8.74541 21.3722C8.83284 21.4599 8.9367 21.5294 9.05104 21.5769C9.16539 21.6243 9.28797 21.6487 9.41177 21.6487C9.53556 21.6487 9.65814 21.6243 9.77249 21.5769C9.88683 21.5294 9.99069 21.4599 10.0781 21.3722L16.6664 14.784ZM32 23.5294C32 25.776 31.1076 27.9305 29.519 29.519C27.9305 31.1076 25.776 32 23.5294 32C21.2829 32 19.1283 31.1076 17.5398 29.519C15.9513 27.9305 15.0588 25.776 15.0588 23.5294C15.0588 21.2829 15.9513 19.1283 17.5398 17.5398C19.1283 15.9513 21.2829 15.0588 23.5294 15.0588C25.776 15.0588 27.9305 15.9513 29.519 17.5398C31.1076 19.1283 32 21.2829 32 23.5294ZM24.4706 19.7647C24.4706 19.5151 24.3714 19.2757 24.1949 19.0992C24.0184 18.9227 23.779 18.8235 23.5294 18.8235C23.2798 18.8235 23.0404 18.9227 22.8639 19.0992C22.6874 19.2757 22.5882 19.5151 22.5882 19.7647V22.5882H19.7647C19.5151 22.5882 19.2757 22.6874 19.0992 22.8639C18.9227 23.0404 18.8235 23.2798 18.8235 23.5294C18.8235 23.779 18.9227 24.0184 19.0992 24.1949C19.2757 24.3714 19.5151 24.4706 19.7647 24.4706H22.5882V27.2941C22.5882 27.5437 22.6874 27.7831 22.8639 27.9596C23.0404 28.1361 23.2798 28.2353 23.5294 28.2353C23.779 28.2353 24.0184 28.1361 24.1949 27.9596C24.3714 27.7831 24.4706 27.5437 24.4706 27.2941V24.4706H27.2941C27.5437 24.4706 27.7831 24.3714 27.9596 24.1949C28.1361 24.0184 28.2353 23.779 28.2353 23.5294C28.2353 23.2798 28.1361 23.0404 27.9596 22.8639C27.7831 22.6874 27.5437 22.5882 27.2941 22.5882H24.4706V19.7647Z" fill="#03396C"/>
</svg>
