<svg width="26" height="28" viewBox="0 0 26 28" fill="none" xmlns="http://www.w3.org/2000/svg">
<path d="M3.79167 0C2.78605 0 1.82163 0.399478 1.11055 1.11055C0.399478 1.82163 0 2.78605 0 3.79167V24.2083C0 25.2139 0.399478 26.1784 1.11055 26.8894C1.82163 27.6005 2.78605 28 3.79167 28H14.9543L12.4378 25.4835C12.1941 25.2397 12.0007 24.9504 11.8688 24.6319C11.7369 24.3134 11.669 23.9721 11.669 23.6273C11.669 23.2826 11.7369 22.9413 11.8688 22.6228C12.0007 22.3043 12.1941 22.0149 12.4378 21.7712C12.6816 21.5274 12.971 21.3341 13.2895 21.2021C13.6079 21.0702 13.9493 21.0023 14.294 21.0023C14.6387 21.0023 14.9801 21.0702 15.2986 21.2021C15.617 21.3341 15.9064 21.5274 16.1502 21.7712L17.7917 23.4127L22.9355 18.2688C23.0592 18.1452 23.1922 18.0355 23.3333 17.9422V3.79167C23.3333 2.78605 22.9339 1.82163 22.2228 1.11055C21.5117 0.399478 20.5473 0 19.5417 0H3.79167ZM7.58333 7.875C7.58333 8.26177 7.42969 8.63271 7.1562 8.9062C6.88271 9.17969 6.51177 9.33333 6.125 9.33333C5.73823 9.33333 5.36729 9.17969 5.0938 8.9062C4.82031 8.63271 4.66667 8.26177 4.66667 7.875C4.66667 7.48823 4.82031 7.11729 5.0938 6.8438C5.36729 6.57031 5.73823 6.41667 6.125 6.41667C6.51177 6.41667 6.88271 6.57031 7.1562 6.8438C7.42969 7.11729 7.58333 7.48823 7.58333 7.875ZM6.125 15.4583C5.73823 15.4583 5.36729 15.3047 5.0938 15.0312C4.82031 14.7577 4.66667 14.3868 4.66667 14C4.66667 13.6132 4.82031 13.2423 5.0938 12.9688C5.36729 12.6953 5.73823 12.5417 6.125 12.5417C6.51177 12.5417 6.88271 12.6953 7.1562 12.9688C7.42969 13.2423 7.58333 13.6132 7.58333 14C7.58333 14.3868 7.42969 14.7577 7.1562 15.0312C6.88271 15.3047 6.51177 15.4583 6.125 15.4583ZM6.125 21.5833C5.73823 21.5833 5.36729 21.4297 5.0938 21.1562C4.82031 20.8827 4.66667 20.5118 4.66667 20.125C4.66667 19.7382 4.82031 19.3673 5.0938 19.0938C5.36729 18.8203 5.73823 18.6667 6.125 18.6667C6.51177 18.6667 6.88271 18.8203 7.1562 19.0938C7.42969 19.3673 7.58333 19.7382 7.58333 20.125C7.58333 20.5118 7.42969 20.8827 7.1562 21.1562C6.88271 21.4297 6.51177 21.5833 6.125 21.5833ZM10.2083 7H17.7917C18.0237 7 18.2463 7.09219 18.4104 7.25628C18.5745 7.42038 18.6667 7.64294 18.6667 7.875C18.6667 8.10706 18.5745 8.32962 18.4104 8.49372C18.2463 8.65781 18.0237 8.75 17.7917 8.75H10.2083C9.97627 8.75 9.75371 8.65781 9.58962 8.49372C9.42552 8.32962 9.33333 8.10706 9.33333 7.875C9.33333 7.64294 9.42552 7.42038 9.58962 7.25628C9.75371 7.09219 9.97627 7 10.2083 7ZM9.33333 14C9.33333 13.7679 9.42552 13.5454 9.58962 13.3813C9.75371 13.2172 9.97627 13.125 10.2083 13.125H17.7917C18.0237 13.125 18.2463 13.2172 18.4104 13.3813C18.5745 13.5454 18.6667 13.7679 18.6667 14C18.6667 14.2321 18.5745 14.4546 18.4104 14.6187C18.2463 14.7828 18.0237 14.875 17.7917 14.875H10.2083C9.97627 14.875 9.75371 14.7828 9.58962 14.6187C9.42552 14.4546 9.33333 14.2321 9.33333 14ZM10.2083 19.25H17.7917C18.0237 19.25 18.2463 19.3422 18.4104 19.5063C18.5745 19.6704 18.6667 19.8929 18.6667 20.125C18.6667 20.3571 18.5745 20.5796 18.4104 20.7437C18.2463 20.9078 18.0237 21 17.7917 21H10.2083C9.97627 21 9.75371 20.9078 9.58962 20.7437C9.42552 20.5796 9.33333 20.3571 9.33333 20.125C9.33333 19.8929 9.42552 19.6704 9.58962 19.5063C9.75371 19.3422 9.97627 19.25 10.2083 19.25Z" fill="white"/>
<path d="M18.41 27.7434L25.41 20.7434C25.4959 20.6633 25.5649 20.5667 25.6127 20.4594C25.6605 20.3521 25.6863 20.2362 25.6883 20.1187C25.6904 20.0012 25.6688 19.8845 25.6248 19.7756C25.5808 19.6666 25.5153 19.5676 25.4322 19.4846C25.3491 19.4015 25.2501 19.336 25.1412 19.292C25.0322 19.2479 24.9155 19.2263 24.798 19.2284C24.6805 19.2305 24.5647 19.2562 24.4573 19.304C24.35 19.3518 24.2534 19.4208 24.1733 19.5068L17.7916 25.8884L14.9123 23.0091C14.7464 22.8545 14.527 22.7704 14.3004 22.7744C14.0737 22.7784 13.8574 22.8702 13.6971 23.0305C13.5368 23.1909 13.4449 23.4071 13.4409 23.6338C13.4369 23.8605 13.5211 24.0799 13.6756 24.2458L17.1733 27.7434C17.3374 27.9073 17.5598 27.9993 17.7916 27.9993C18.0235 27.9993 18.2459 27.9073 18.41 27.7434Z" fill="white"/>
</svg>
