<svg width="55" height="73" viewBox="0 0 55 73" fill="none" xmlns="http://www.w3.org/2000/svg">
<path fill-rule="evenodd" clip-rule="evenodd" d="M15.0003 3.08451C15.0003 1.38098 16.3434 0 18.0003 0C19.6571 0 21.0003 1.38098 21.0003 3.08451V7.19718C21.0003 8.90071 19.6571 10.2817 18.0003 10.2817C16.3434 10.2817 15.0003 8.90071 15.0003 7.19718V3.08451ZM33.9998 3.08451C33.9998 1.38098 35.3429 0 36.9998 0C38.6566 0 39.9998 1.38098 39.9998 3.08451V7.19718C39.9998 8.90071 38.6566 10.2817 36.9998 10.2817C35.3429 10.2817 33.9998 8.90071 33.9998 7.19718V3.08451ZM23.0002 5.14076H31.9998V7.19753C31.9998 10.0367 34.2383 12.3384 36.9998 12.3384C39.7612 12.3384 41.9998 10.0367 41.9998 7.19753V5.14076H45C50.5228 5.14076 55 9.61792 55 15.1408V19.5354H0V15.1408C0 9.61792 4.47715 5.14076 10 5.14076H13.0002V7.19753C13.0002 10.0367 15.2388 12.3384 18.0002 12.3384C20.7617 12.3384 23.0002 10.0367 23.0002 7.19753V5.14076ZM0 22.6199H55V62.9999C55 68.5228 50.5228 72.9999 45 72.9999H10C4.47715 72.9999 0 68.5228 0 62.9999V22.6199ZM33.1033 42.4119C34.3749 42.4119 36.6666 42.4119 36.6666 47.1244V58.12H36.6584V61.2617H18.3333V51.8368H18.3373L18.3333 47.1244C18.3333 42.4119 20.6249 42.4119 21.9006 42.4119H33.1033ZM44.9166 43.4183C45.5036 44.0627 45.8334 44.9367 45.8334 45.8481V52.7204C45.8334 53.1109 45.6921 53.4855 45.4405 53.7617C45.1889 54.0379 44.8477 54.193 44.4919 54.193H37.7846V48.3025H37.7918V45.8481C37.7918 44.5423 37.3697 43.3446 36.6667 42.4119H42.7033C43.5335 42.4119 44.3296 42.7739 44.9166 43.4183ZM17.2061 52.2295H17.2097V45.8481L17.2258 45.4161C17.3062 44.2773 17.7081 43.2405 18.3334 42.4119H12.2932L12.0359 42.4237C11.2539 42.4947 10.5248 42.8862 9.99334 43.5205C9.46183 44.1549 9.16678 44.9857 9.16675 45.8481V52.7204C9.16675 53.5333 9.76702 54.193 10.5066 54.193H17.2061V52.2295ZM31.3888 30.0182C30.3574 28.9018 28.9585 28.2747 27.4998 28.2747C26.0411 28.2747 24.6422 28.9018 23.6107 30.0182C22.5793 31.1345 21.9999 32.6486 21.9999 34.2273C21.9999 35.806 22.5793 37.3201 23.6107 38.4364C24.6422 39.5528 26.0411 40.1799 27.4998 40.1799C28.9585 40.1799 30.3574 39.5528 31.3888 38.4364C32.4203 37.3201 32.9997 35.806 32.9997 34.2273C32.9997 32.6486 32.4203 31.1345 31.3888 30.0182ZM39.4163 30.2604C40.6318 30.2604 41.7976 30.783 42.6572 31.7133C43.5167 32.6436 43.9996 33.9053 43.9996 35.2209C43.9996 36.5365 43.5167 37.7983 42.6572 38.7285C41.7976 39.6588 40.6318 40.1814 39.4163 40.1814C38.2007 40.1814 37.035 39.6588 36.1754 38.7285C35.3159 37.7983 34.833 36.5365 34.833 35.2209C34.833 33.9053 35.3159 32.6436 36.1754 31.7133C37.035 30.783 38.2007 30.2604 39.4163 30.2604ZM18.8237 31.7133C17.9641 30.783 16.7983 30.2604 15.5828 30.2604C14.3672 30.2604 13.2015 30.783 12.3419 31.7133C11.4824 32.6436 10.9995 33.9053 10.9995 35.2209C10.9995 36.5365 11.4824 37.7983 12.3419 38.7285C13.2015 39.6588 14.3672 40.1814 15.5828 40.1814C16.7983 40.1814 17.9641 39.6588 18.8237 38.7285C19.6832 37.7983 20.1661 36.5365 20.1661 35.2209C20.1661 33.9053 19.6832 32.6436 18.8237 31.7133Z" fill="#DFEEF7"/>
</svg>
