<svg width="14" height="12" viewBox="0 0 14 12" fill="none" xmlns="http://www.w3.org/2000/svg">
<path d="M8.95335 5.14258C9.42897 5.14258 10.2862 5.14258 10.2862 6.85694V10.8571H10.2831V12H3.42871V8.5713H3.43023L3.42871 6.85694C3.42871 5.14258 4.28589 5.14258 4.76303 5.14258H8.95335Z" fill="#03396C"/>
<path d="M13.7149 6.39263C13.7149 6.0611 13.5915 5.74314 13.3719 5.50871C13.1524 5.27428 12.8546 5.14258 12.5441 5.14258H10.2861C10.5491 5.48188 10.7069 5.91761 10.7069 6.39263V7.28553H10.7043V9.42848H13.2131C13.3462 9.42848 13.4738 9.37204 13.5679 9.27156C13.662 9.17109 13.7149 9.03483 13.7149 8.89274V6.39263Z" fill="#03396C"/>
<path d="M3.00706 8.71416H3.0084V6.39263L3.01441 6.23548C3.04449 5.82118 3.19484 5.44402 3.42872 5.14258H1.16941L1.07319 5.14686C0.7807 5.17268 0.507986 5.31511 0.30918 5.54589C0.110373 5.77666 1.09621e-05 6.07891 0 6.39263V8.89274C0 9.18847 0.224527 9.42848 0.501177 9.42848H3.00706V8.71416Z" fill="#03396C"/>
<path d="M6.8575 0C7.40311 0 7.92637 0.228153 8.31217 0.634269C8.69797 1.04038 8.91471 1.5912 8.91471 2.16553C8.91471 2.73986 8.69797 3.29068 8.31217 3.69679C7.92637 4.10291 7.40311 4.33106 6.8575 4.33106C6.3119 4.33106 5.78864 4.10291 5.40284 3.69679C5.01703 3.29068 4.80029 2.73986 4.80029 2.16553C4.80029 1.5912 5.01703 1.04038 5.40284 0.634269C5.78864 0.228153 6.3119 0 6.8575 0Z" fill="#03396C"/>
<path d="M11.3147 0.723633C11.7694 0.723633 12.2054 0.913761 12.5269 1.25219C12.8484 1.59062 13.029 2.04963 13.029 2.52824C13.029 3.00685 12.8484 3.46586 12.5269 3.80429C12.2054 4.14272 11.7694 4.33285 11.3147 4.33285C10.86 4.33285 10.424 4.14272 10.1025 3.80429C9.78096 3.46586 9.60034 3.00685 9.60034 2.52824C9.60034 2.04963 9.78096 1.59062 10.1025 1.25219C10.424 0.913761 10.86 0.723633 11.3147 0.723633Z" fill="#03396C"/>
<path d="M2.40013 0.723633C2.8548 0.723633 3.29085 0.913761 3.61235 1.25219C3.93386 1.59062 4.11447 2.04963 4.11447 2.52824C4.11447 3.00685 3.93386 3.46586 3.61235 3.80429C3.29085 4.14272 2.8548 4.33285 2.40013 4.33285C1.94546 4.33285 1.50941 4.14272 1.18791 3.80429C0.866409 3.46586 0.685791 3.00685 0.685791 2.52824C0.685791 2.04963 0.866409 1.59062 1.18791 1.25219C1.50941 0.913761 1.94546 0.723633 2.40013 0.723633Z" fill="#03396C"/>
</svg>
