<svg width="22" height="22" viewBox="0 0 22 22" fill="none" xmlns="http://www.w3.org/2000/svg">
<path d="M9.33333 9.33333C10.8067 9.33333 12 8.14 12 6.66667C12 5.19333 10.8067 4 9.33333 4C7.86 4 6.66667 5.19333 6.66667 6.66667C6.66667 8.14 7.86 9.33333 9.33333 9.33333ZM9.33333 5.33333C9.68696 5.33333 10.0261 5.47381 10.2761 5.72386C10.5262 5.97391 10.6667 6.31304 10.6667 6.66667C10.6667 7.02029 10.5262 7.35943 10.2761 7.60948C10.0261 7.85952 9.68696 8 9.33333 8C8.59333 8 8 7.40667 8 6.66667C8 5.92667 8.6 5.33333 9.33333 5.33333ZM8.84667 14.6667H4V12.6667C4 10.8867 7.55333 10 9.33333 10C10.0267 10 11 10.14 11.9067 10.4067C11.3333 10.6333 10.8 10.9467 10.3333 11.3333C10 11.2933 9.66667 11.2667 9.33333 11.2667C7.35333 11.2667 5.26667 12.24 5.26667 12.6667V13.4H8.81333C8.8 13.4333 8.78 13.4667 8.76 13.5L8.56667 14L8.76 14.5C8.78667 14.5533 8.82 14.6067 8.84667 14.6667ZM14 13.3333C14.3733 13.3333 14.6667 13.6267 14.6667 14C14.6667 14.3733 14.3733 14.6667 14 14.6667C13.6267 14.6667 13.3333 14.3733 13.3333 14C13.3333 13.6267 13.6267 13.3333 14 13.3333ZM14 11.3333C12.18 11.3333 10.6267 12.44 10 14C10.6267 15.56 12.18 16.6667 14 16.6667C15.82 16.6667 17.3733 15.56 18 14C17.3733 12.44 15.82 11.3333 14 11.3333ZM14 15.6667C13.558 15.6667 13.1341 15.4911 12.8215 15.1785C12.5089 14.8659 12.3333 14.442 12.3333 14C12.3333 13.558 12.5089 13.134 12.8215 12.8215C13.1341 12.5089 13.558 12.3333 14 12.3333C14.442 12.3333 14.866 12.5089 15.1785 12.8215C15.4911 13.134 15.6667 13.558 15.6667 14C15.6667 14.442 15.4911 14.8659 15.1785 15.1785C14.866 15.4911 14.442 15.6667 14 15.6667Z" fill="#DFEEF7"/>
<circle cx="11" cy="11" r="10.5" stroke="#DFEEF7"/>
</svg>
