<svg width="17" height="16" viewBox="0 0 17 16" fill="none" xmlns="http://www.w3.org/2000/svg">
<path d="M16.8154 13.468C16.0179 12.1713 14.4391 11.2939 12.6313 11.2939C10.8235 11.2939 9.24422 12.1719 8.44716 13.4681C8.41352 13.5235 8.396 13.5848 8.396 13.6469C8.396 13.7091 8.41352 13.7703 8.44716 13.8258C9.24466 15.1225 10.8235 15.9998 12.6313 15.9998C14.4391 15.9998 16.0183 15.1219 16.8154 13.8257C16.849 13.7702 16.8666 13.709 16.8666 13.6468C16.8666 13.5847 16.849 13.5234 16.8154 13.468ZM12.6313 15.4116C12.2124 15.4116 11.803 15.3081 11.4548 15.1142C11.1065 14.9203 10.8351 14.6447 10.6748 14.3222C10.5145 13.9997 10.4726 13.6449 10.5543 13.3026C10.636 12.9603 10.8377 12.6458 11.1339 12.399C11.43 12.1522 11.8074 11.9842 12.2181 11.9161C12.6289 11.848 13.0547 11.8829 13.4417 12.0165C13.8286 12.1501 14.1593 12.3763 14.392 12.6665C14.6247 12.9567 14.7489 13.2979 14.7489 13.6469C14.7491 13.8787 14.6944 14.1082 14.588 14.3223C14.4816 14.5365 14.3257 14.7311 14.129 14.895C13.9323 15.0589 13.6988 15.1888 13.4418 15.2775C13.1848 15.3661 12.9094 15.4117 12.6313 15.4116ZM12.6313 12.4704C12.5053 12.4719 12.3801 12.4875 12.2591 12.5169C12.3588 12.6298 12.4067 12.7688 12.394 12.9086C12.3813 13.0485 12.3089 13.1799 12.1899 13.2791C12.0709 13.3782 11.9132 13.4386 11.7454 13.4491C11.5776 13.4597 11.4108 13.4198 11.2753 13.3367C11.1981 13.5737 11.212 13.8248 11.3151 14.0548C11.4182 14.2849 11.6052 14.4821 11.8499 14.6189C12.0946 14.7557 12.3846 14.8251 12.6791 14.8174C12.9736 14.8096 13.2577 14.7251 13.4916 14.5757C13.7254 14.4263 13.8971 14.2196 13.9826 13.9846C14.068 13.7496 14.0629 13.4983 13.9679 13.2658C13.873 13.0334 13.6929 12.8316 13.4531 12.689C13.2134 12.5463 12.9259 12.4698 12.6313 12.4704Z" fill="white"/>
<path d="M3.69019 3.7647C3.69019 2.76624 4.08682 1.80867 4.79284 1.10265C5.49886 0.396636 6.45642 0 7.45488 0C8.45334 0 9.41091 0.396636 10.1169 1.10265C10.8229 1.80867 11.2196 2.76624 11.2196 3.7647C11.2196 4.76315 10.8229 5.72072 10.1169 6.42674C9.41091 7.13275 8.45334 7.52939 7.45488 7.52939C6.45642 7.52939 5.49886 7.13275 4.79284 6.42674C4.08682 5.72072 3.69019 4.76315 3.69019 3.7647ZM7.45488 0.941174C7.08409 0.941174 6.71693 1.01421 6.37437 1.1561C6.0318 1.298 5.72054 1.50598 5.45835 1.76816C5.19616 2.03035 4.98818 2.34162 4.84629 2.68418C4.70439 3.02675 4.63136 3.39391 4.63136 3.7647C4.63136 4.13549 4.70439 4.50265 4.84629 4.84521C4.98818 5.18778 5.19616 5.49904 5.45835 5.76123C5.72054 6.02342 6.0318 6.23139 6.37437 6.37329C6.71693 6.51518 7.08409 6.58822 7.45488 6.58822C8.20373 6.58822 8.9219 6.29074 9.45141 5.76123C9.98093 5.23171 10.2784 4.51354 10.2784 3.7647C10.2784 3.01585 9.98093 2.29768 9.45141 1.76816C8.9219 1.23865 8.20373 0.941174 7.45488 0.941174Z" fill="white"/>
<path fill-rule="evenodd" clip-rule="evenodd" d="M2.75727 8.4707C1.71634 8.4707 0.866455 9.30552 0.866455 10.3531C0.866455 11.9436 1.65045 13.1455 2.87586 13.9267C4.08245 14.6956 5.7088 15.0589 7.45467 15.0589C7.71954 15.0589 7.98166 15.0506 8.23997 15.0337C7.98803 14.7524 7.76654 14.4456 7.58065 14.1171C7.53879 14.1175 7.4968 14.1177 7.45467 14.1177C5.82174 14.1177 4.38927 13.7752 3.38221 13.1323C2.39304 12.5027 1.80763 11.585 1.80763 10.3531C1.80763 9.83258 2.22927 9.41188 2.75727 9.41188H12.1605C12.4102 9.41188 12.6495 9.51104 12.8261 9.68754C13.0026 9.86405 13.1017 10.1034 13.1017 10.3531C13.1017 10.3588 13.1017 10.3645 13.1017 10.3703C13.422 10.3945 13.7357 10.4433 14.0402 10.5148C14.042 10.4614 14.0429 10.4074 14.0429 10.3531C14.0429 9.85382 13.8446 9.37504 13.4916 9.02203C13.1386 8.66902 12.6598 8.4707 12.1605 8.4707H2.75727Z" fill="white"/>
</svg>
