<svg width="49" height="49" viewBox="0 0 49 49" fill="none" xmlns="http://www.w3.org/2000/svg">
<g filter="url(#filter0_d_1966_86)">
<rect x="8" y="8" width="33" height="33" rx="10" fill="white" fill-opacity="0.11" shape-rendering="crispEdges"/>
<rect x="8.25" y="8.25" width="32.5" height="32.5" rx="9.75" stroke="white" stroke-width="0.5" shape-rendering="crispEdges"/>
</g>
<path d="M17.855 30.7495C18.177 30.6384 18.469 30.4543 18.7084 30.2117C18.9477 29.9691 19.1279 29.6745 19.235 29.3507L19.584 28.2794C19.6135 28.1972 19.6678 28.1263 19.7392 28.0763C19.8107 28.0262 19.8958 27.9996 19.983 28C20.0705 28 20.1558 28.0273 20.227 28.0781C20.2981 28.1272 20.3522 28.1972 20.382 28.2784L20.73 29.3507C20.8381 29.6771 21.0211 29.9736 21.2642 30.2165C21.5073 30.4594 21.8038 30.642 22.13 30.7495L23.2 31.098L23.222 31.104C23.3038 31.1337 23.3745 31.1881 23.4243 31.2596C23.474 31.3311 23.5005 31.4163 23.5 31.5035C23.5003 31.5905 23.4737 31.6755 23.424 31.7468C23.3742 31.8181 23.3037 31.8723 23.222 31.902L22.15 32.2515C21.8239 32.3595 21.5275 32.5421 21.2843 32.7849C21.0411 33.0278 20.8578 33.3241 20.749 33.6503L20.399 34.7216C20.3694 34.8034 20.3152 34.874 20.244 34.9239C20.1727 34.9737 20.0879 35.0003 20.001 35C19.9135 35 19.8282 34.9727 19.757 34.9219C19.6859 34.8728 19.6317 34.8029 19.602 34.7216L19.254 33.6503C19.1468 33.3227 18.9642 33.025 18.721 32.781C18.4779 32.537 18.1809 32.3535 17.854 32.2455L16.784 31.897C16.7011 31.8678 16.6293 31.8136 16.5785 31.7419C16.5276 31.6702 16.5002 31.5845 16.5 31.4965C16.4997 31.4088 16.5268 31.3232 16.5775 31.2517C16.6283 31.1802 16.7001 31.1265 16.783 31.098L17.855 30.7495Z" fill="white"/>
<path d="M13.7743 26.5712C13.9583 26.5076 14.1251 26.4025 14.2619 26.2638C14.3987 26.1252 14.5017 25.9568 14.5629 25.7719L14.7623 25.1596C14.7792 25.1127 14.8101 25.0722 14.851 25.0436C14.8918 25.015 14.9405 24.9998 14.9903 25C15.0403 25 15.089 25.0156 15.1297 25.0446C15.1703 25.0727 15.2013 25.1127 15.2183 25.1591L15.4171 25.7719C15.4789 25.9584 15.5835 26.1278 15.7224 26.2666C15.8613 26.4054 16.0307 26.5097 16.2171 26.5712L16.8286 26.7703L16.8411 26.7737C16.8879 26.7907 16.9283 26.8218 16.9567 26.8626C16.9852 26.9035 17.0003 26.9522 17 27.002C17.0002 27.0517 16.985 27.1003 16.9565 27.141C16.9281 27.1818 16.8878 27.2128 16.8411 27.2297L16.2286 27.4294C16.0422 27.4911 15.8728 27.5955 15.7339 27.7343C15.5949 27.873 15.4902 28.0423 15.428 28.2287L15.228 28.8409C15.2111 28.8877 15.1801 28.928 15.1394 28.9565C15.0987 28.985 15.0502 29.0002 15.0006 29C14.9506 29 14.9018 28.9844 14.8611 28.9554C14.8205 28.9273 14.7895 28.8873 14.7726 28.8409L14.5737 28.2287C14.5124 28.0416 14.4081 27.8714 14.2692 27.732C14.1302 27.5926 13.9605 27.4877 13.7737 27.426L13.1623 27.2269C13.1149 27.2102 13.0739 27.1792 13.0448 27.1382C13.0158 27.0973 13.0001 27.0483 13 26.998C12.9998 26.9479 13.0153 26.899 13.0443 26.8581C13.0733 26.8173 13.1144 26.7865 13.1617 26.7703L13.7743 26.5712Z" fill="white"/>
<path d="M30.3044 19.1108C30.3044 18.0205 29.8713 16.9749 29.1004 16.204C28.3295 15.4331 27.2839 15 26.1937 15C25.1034 15 24.0578 15.4331 23.2869 16.204C22.516 16.9749 22.0829 18.0205 22.0829 19.1108C22.0829 20.201 22.516 21.2466 23.2869 22.0175C24.0578 22.7884 25.1034 23.2215 26.1937 23.2215C27.2839 23.2215 28.3295 22.7884 29.1004 22.0175C29.8713 21.2466 30.3044 20.201 30.3044 19.1108ZM26.1937 16.0277C26.5986 16.0277 26.9995 16.1074 27.3735 16.2624C27.7476 16.4173 28.0875 16.6444 28.3737 16.9307C28.66 17.217 28.8871 17.5569 29.0421 17.9309C29.197 18.305 29.2768 18.7059 29.2768 19.1108C29.2768 19.5156 29.197 19.9165 29.0421 20.2906C28.8871 20.6647 28.66 21.0045 28.3737 21.2908C28.0875 21.5771 27.7476 21.8042 27.3735 21.9592C26.9995 22.1141 26.5986 22.1938 26.1937 22.1938C25.376 22.1938 24.5918 21.869 24.0136 21.2908C23.4354 20.7126 23.1106 19.9284 23.1106 19.1108C23.1106 18.2931 23.4354 17.5089 24.0136 16.9307C24.5918 16.3525 25.376 16.0277 26.1937 16.0277Z" fill="white"/>
<path fill-rule="evenodd" clip-rule="evenodd" d="M31.3231 24.25C32.4597 24.25 33.3877 25.1616 33.3877 26.3054C33.3877 28.0422 32.5316 29.3545 31.1936 30.2075C29.8761 31.0471 28.1002 31.4438 26.1939 31.4438C25.9046 31.4438 25.6184 31.4347 25.3363 31.4163C25.6114 31.1092 25.8533 30.7742 26.0563 30.4154C26.102 30.4159 26.1479 30.4161 26.1939 30.4161C27.9769 30.4161 29.541 30.0421 30.6407 29.3402C31.7208 28.6526 32.36 27.6506 32.36 26.3054C32.36 25.7371 31.8996 25.2777 31.3231 25.2777H21.0554C20.7828 25.2777 20.5215 25.386 20.3287 25.5787C20.136 25.7714 20.0277 26.0328 20.0277 26.3054C20.0277 26.3116 20.0277 26.3178 20.0278 26.3241C19.678 26.3505 19.3355 26.4038 19.003 26.4819C19.001 26.4236 19 26.3647 19 26.3054C19 25.7603 19.2166 25.2375 19.602 24.852C19.9875 24.4665 20.5103 24.25 21.0554 24.25H31.3231Z" fill="white"/>
<defs>
<filter id="filter0_d_1966_86" x="0" y="0" width="49" height="49" filterUnits="userSpaceOnUse" color-interpolation-filters="sRGB">
<feFlood flood-opacity="0" result="BackgroundImageFix"/>
<feColorMatrix in="SourceAlpha" type="matrix" values="0 0 0 0 0 0 0 0 0 0 0 0 0 0 0 0 0 0 127 0" result="hardAlpha"/>
<feOffset/>
<feGaussianBlur stdDeviation="4"/>
<feComposite in2="hardAlpha" operator="out"/>
<feColorMatrix type="matrix" values="0 0 0 0 0 0 0 0 0 0 0 0 0 0 0 0 0 0 0.3 0"/>
<feBlend mode="normal" in2="BackgroundImageFix" result="effect1_dropShadow_1966_86"/>
<feBlend mode="normal" in="SourceGraphic" in2="effect1_dropShadow_1966_86" result="shape"/>
</filter>
</defs>
</svg>
