<svg width="16" height="14" viewBox="0 0 16 14" fill="none" xmlns="http://www.w3.org/2000/svg">
<path d="M10.4451 6C11 6 12 6 12 8V12.6667H11.9964V14H4V10H4.00178L4 8C4 6 5 6 5.55664 6H10.4451Z" fill="#525596"/>
<path d="M16 7.45833C16 7.07156 15.8561 6.70063 15.6 6.42714C15.3438 6.15365 14.9964 6 14.6341 6H12C12.3067 6.39583 12.4909 6.90417 12.4909 7.45833V8.5H12.4878V11H15.4146C15.5699 11 15.7188 10.9342 15.8286 10.8169C15.9383 10.6997 16 10.5408 16 10.375V7.45833Z" fill="#525596"/>
<path d="M3.50809 10.1667H3.50965V7.45833L3.51666 7.275C3.55174 6.79167 3.72715 6.35167 4 6H1.36426L1.252 6.005C0.910777 6.03512 0.592624 6.20128 0.360694 6.47051C0.128763 6.73973 1.27886e-05 7.09234 0 7.45833V10.375C0 10.72 0.261937 11 0.584681 11H3.50809V10.1667Z" fill="#525596"/>
<path d="M7.99995 0C8.63646 0 9.2469 0.266167 9.69699 0.739948C10.1471 1.21373 10.3999 1.85631 10.3999 2.52634C10.3999 3.19637 10.1471 3.83895 9.69699 4.31274C9.2469 4.78652 8.63646 5.05268 7.99995 5.05268C7.36344 5.05268 6.75299 4.78652 6.30291 4.31274C5.85283 3.83895 5.59998 3.19637 5.59998 2.52634C5.59998 1.85631 5.85283 1.21373 6.30291 0.739948C6.75299 0.266167 7.36344 0 7.99995 0Z" fill="#525596"/>
<path d="M13.2001 0.842773C13.7305 0.842773 14.2392 1.06458 14.6142 1.4594C14.9893 1.85421 15.2 2.3897 15.2 2.94806C15.2 3.50642 14.9893 4.0419 14.6142 4.43672C14.2392 4.83154 13.7305 5.05334 13.2001 5.05334C12.6696 5.05334 12.1609 4.83154 11.7859 4.43672C11.4108 4.0419 11.2001 3.50642 11.2001 2.94806C11.2001 2.3897 11.4108 1.85421 11.7859 1.4594C12.1609 1.06458 12.6696 0.842773 13.2001 0.842773Z" fill="#525596"/>
<path d="M2.7999 0.842773C3.33033 0.842773 3.83903 1.06458 4.2141 1.4594C4.58917 1.85421 4.79988 2.3897 4.79988 2.94806C4.79988 3.50642 4.58917 4.0419 4.2141 4.43672C3.83903 4.83154 3.33033 5.05334 2.7999 5.05334C2.26948 5.05334 1.76077 4.83154 1.38571 4.43672C1.01064 4.0419 0.799927 3.50642 0.799927 2.94806C0.799927 2.3897 1.01064 1.85421 1.38571 1.4594C1.76077 1.06458 2.26948 0.842773 2.7999 0.842773Z" fill="#525596"/>
</svg>
