<svg width="49" height="49" viewBox="0 0 49 49" fill="none" xmlns="http://www.w3.org/2000/svg">
<g filter="url(#filter0_d_1966_78)">
<rect x="8" y="8" width="33" height="33" rx="10" fill="white" fill-opacity="0.11" shape-rendering="crispEdges"/>
<rect x="8.25" y="8.25" width="32.5" height="32.5" rx="9.75" stroke="white" stroke-width="0.5" shape-rendering="crispEdges"/>
</g>
<path d="M34.1504 30.4705C33.2796 29.0547 31.5556 28.0967 29.5816 28.0967C27.6077 28.0967 25.8832 29.0553 25.0129 30.4707C24.9762 30.5312 24.957 30.5981 24.957 30.666C24.957 30.7338 24.9762 30.8007 25.0129 30.8613C25.8837 32.2772 27.6077 33.2351 29.5816 33.2351C31.5556 33.2351 33.28 32.2765 34.1504 30.8611C34.1871 30.8006 34.2062 30.7337 34.2062 30.6658C34.2062 30.598 34.1871 30.5311 34.1504 30.4705ZM29.5816 32.5928C29.1243 32.5928 28.6772 32.4798 28.297 32.2681C27.9167 32.0563 27.6204 31.7554 27.4453 31.4033C27.2703 31.0512 27.2245 30.6638 27.3138 30.29C27.403 29.9162 27.6232 29.5729 27.9466 29.3034C28.27 29.0339 28.682 28.8504 29.1305 28.776C29.5791 28.7017 30.044 28.7398 30.4665 28.8857C30.889 29.0315 31.2502 29.2785 31.5043 29.5954C31.7583 29.9122 31.8939 30.2848 31.8939 30.6659C31.8941 30.919 31.8344 31.1696 31.7182 31.4035C31.6021 31.6373 31.4318 31.8498 31.217 32.0287C31.0023 32.2077 30.7473 32.3496 30.4667 32.4464C30.1861 32.5432 29.8853 32.5929 29.5816 32.5928ZM29.5816 29.3813C29.444 29.3829 29.3073 29.4 29.1752 29.432C29.2841 29.5553 29.3364 29.7071 29.3225 29.8598C29.3087 30.0125 29.2296 30.156 29.0997 30.2643C28.9697 30.3725 28.7975 30.4384 28.6143 30.45C28.4311 30.4615 28.249 30.418 28.101 30.3272C28.0167 30.586 28.0319 30.8602 28.1445 31.1114C28.257 31.3625 28.4613 31.578 28.7284 31.7273C28.9956 31.8767 29.3123 31.9525 29.6338 31.944C29.9554 31.9355 30.2657 31.8432 30.521 31.6801C30.7763 31.517 30.9638 31.2913 31.0572 31.0347C31.1505 30.7781 31.1449 30.5036 31.0412 30.2498C30.9375 29.996 30.7409 29.7757 30.479 29.6199C30.2172 29.4641 29.9034 29.3807 29.5816 29.3813Z" fill="white"/>
<path d="M19.8186 19.8754C19.8186 18.7852 20.2517 17.7396 21.0226 16.9687C21.7935 16.1977 22.8391 15.7646 23.9294 15.7646C25.0196 15.7646 26.0652 16.1977 26.8361 16.9687C27.607 17.7396 28.0401 18.7852 28.0401 19.8754C28.0401 20.9657 27.607 22.0112 26.8361 22.7822C26.0652 23.5531 25.0196 23.9862 23.9294 23.9862C22.8391 23.9862 21.7935 23.5531 21.0226 22.7822C20.2517 22.0112 19.8186 20.9657 19.8186 19.8754ZM23.9294 16.7923C23.5245 16.7923 23.1236 16.8721 22.7495 17.027C22.3755 17.182 22.0356 17.4091 21.7493 17.6954C21.463 17.9816 21.2359 18.3215 21.081 18.6956C20.926 19.0696 20.8463 19.4705 20.8463 19.8754C20.8463 20.2803 20.926 20.6812 21.081 21.0553C21.2359 21.4293 21.463 21.7692 21.7493 22.0555C22.0356 22.3418 22.3755 22.5689 22.7495 22.7238C23.1236 22.8787 23.5245 22.9585 23.9294 22.9585C24.747 22.9585 25.5312 22.6337 26.1094 22.0555C26.6876 21.4773 27.0124 20.6931 27.0124 19.8754C27.0124 19.0577 26.6876 18.2735 26.1094 17.6954C25.5312 17.1172 24.747 16.7923 23.9294 16.7923Z" fill="white"/>
<path fill-rule="evenodd" clip-rule="evenodd" d="M18.8 25.0146C17.6634 25.0146 16.7354 25.9262 16.7354 27.07C16.7354 28.8068 17.5914 30.1192 18.9295 30.9722C20.247 31.8118 22.0228 32.2085 23.9292 32.2085C24.2184 32.2085 24.5047 32.1994 24.7867 32.1809C24.5116 31.8738 24.2697 31.5388 24.0668 31.18C24.021 31.1805 23.9752 31.1808 23.9292 31.1808C22.1461 31.1808 20.582 30.8067 19.4824 30.1048C18.4023 29.4173 17.763 28.4153 17.763 27.07C17.763 26.5017 18.2234 26.0423 18.8 26.0423H29.0676C29.3402 26.0423 29.6016 26.1506 29.7943 26.3433C29.9871 26.5361 30.0953 26.7975 30.0953 27.07C30.0953 27.0763 30.0953 27.0825 30.0953 27.0887C30.4451 27.1152 30.7875 27.1685 31.12 27.2466C31.122 27.1882 31.123 27.1294 31.123 27.07C31.123 26.5249 30.9065 26.0021 30.521 25.6167C30.1356 25.2312 29.6128 25.0146 29.0676 25.0146H18.8Z" fill="white"/>
<defs>
<filter id="filter0_d_1966_78" x="0" y="0" width="49" height="49" filterUnits="userSpaceOnUse" color-interpolation-filters="sRGB">
<feFlood flood-opacity="0" result="BackgroundImageFix"/>
<feColorMatrix in="SourceAlpha" type="matrix" values="0 0 0 0 0 0 0 0 0 0 0 0 0 0 0 0 0 0 127 0" result="hardAlpha"/>
<feOffset/>
<feGaussianBlur stdDeviation="4"/>
<feComposite in2="hardAlpha" operator="out"/>
<feColorMatrix type="matrix" values="0 0 0 0 0 0 0 0 0 0 0 0 0 0 0 0 0 0 0.3 0"/>
<feBlend mode="normal" in2="BackgroundImageFix" result="effect1_dropShadow_1966_78"/>
<feBlend mode="normal" in="SourceGraphic" in2="effect1_dropShadow_1966_78" result="shape"/>
</filter>
</defs>
</svg>
