<svg width="25" height="25" viewBox="0 0 25 25" fill="none" xmlns="http://www.w3.org/2000/svg">
<path d="M12.5 11.5C13.362 11.5 14.1886 11.1576 14.7981 10.5481C15.4076 9.9386 15.75 9.11195 15.75 8.25C15.75 7.38805 15.4076 6.5614 14.7981 5.9519C14.1886 5.34241 13.362 5 12.5 5C11.638 5 10.8114 5.34241 10.2019 5.9519C9.59241 6.5614 9.25 7.38805 9.25 8.25C9.25 9.11195 9.59241 9.9386 10.2019 10.5481C10.8114 11.1576 11.638 11.5 12.5 11.5ZM14.6667 8.25C14.6667 8.82464 14.4384 9.37574 14.0321 9.78206C13.6257 10.1884 13.0746 10.4167 12.5 10.4167C11.9254 10.4167 11.3743 10.1884 10.9679 9.78206C10.5616 9.37574 10.3333 8.82464 10.3333 8.25C10.3333 7.67536 10.5616 7.12426 10.9679 6.71794C11.3743 6.31161 11.9254 6.08333 12.5 6.08333C13.0746 6.08333 13.6257 6.31161 14.0321 6.71794C14.4384 7.12426 14.6667 7.67536 14.6667 8.25ZM19 16.9167C19 18 17.9167 18 17.9167 18H7.08333C7.08333 18 6 18 6 16.9167C6 15.8333 7.08333 12.5833 12.5 12.5833C17.9167 12.5833 19 15.8333 19 16.9167ZM17.9167 16.9123C17.9156 16.6458 17.7498 15.8442 17.0153 15.1097C16.309 14.4033 14.9798 13.6667 12.5 13.6667C10.0192 13.6667 8.691 14.4033 7.98467 15.1097C7.25017 15.8442 7.0855 16.6458 7.08333 16.9123H17.9167Z" fill="white"/>
<circle cx="12.5" cy="12.5" r="11.5" stroke="white"/>
</svg>
