<svg width="25" height="25" viewBox="0 0 25 25" fill="none" xmlns="http://www.w3.org/2000/svg">
<circle cx="12.5" cy="12.5" r="11.25" stroke="#4AA9AF" stroke-width="1.5"/>
<path d="M9.58575 17C9.58575 17 8.85718 17 8.85718 16.25C8.85718 15.5 9.58575 13.25 12.5 13.25C15.4143 13.25 16.1429 15.5 16.1429 16.25C16.1429 17 15.4143 17 15.4143 17H9.58575ZM15.3983 16.25C15.4037 16.2492 15.409 16.2482 15.4143 16.247C15.4136 16.049 15.2926 15.4745 14.8606 14.957C14.4584 14.4718 13.7517 14 12.5 14C11.2491 14 10.5424 14.4725 10.1395 14.957C9.70742 15.4745 9.58721 16.0498 9.58575 16.247L9.59158 16.2485C9.59497 16.2491 9.59837 16.2496 9.60178 16.25H15.3983ZM12.5 11.75C12.1136 11.75 11.7429 11.592 11.4697 11.3107C11.1964 11.0294 11.0429 10.6478 11.0429 10.25C11.0429 9.85218 11.1964 9.47064 11.4697 9.18934C11.7429 8.90804 12.1136 8.75 12.5 8.75C12.8865 8.75 13.2571 8.90804 13.5304 9.18934C13.8037 9.47064 13.9572 9.85218 13.9572 10.25C13.9572 10.6478 13.8037 11.0294 13.5304 11.3107C13.2571 11.592 12.8865 11.75 12.5 11.75ZM10.3143 10.25C10.3143 10.5455 10.3709 10.8381 10.4807 11.111C10.5905 11.384 10.7515 11.6321 10.9545 11.841C11.1575 12.0499 11.3984 12.2157 11.6636 12.3287C11.9288 12.4418 12.213 12.5 12.5 12.5C12.7871 12.5 13.0713 12.4418 13.3365 12.3287C13.6017 12.2157 13.8426 12.0499 14.0456 11.841C14.2485 11.6321 14.4095 11.384 14.5194 11.111C14.6292 10.8381 14.6857 10.5455 14.6857 10.25C14.6857 9.65326 14.4555 9.08097 14.0456 8.65901C13.6357 8.23705 13.0797 8 12.5 8C11.9203 8 11.3644 8.23705 10.9545 8.65901C10.5446 9.08097 10.3143 9.65326 10.3143 10.25Z" fill="#4AA9AF"/>
<path d="M15.7595 13.6419C16.0617 13.5523 16.3733 13.4934 16.6888 13.4662C16.8661 13.4503 17.0441 13.4424 17.2222 13.4427C20.2444 13.4427 21 15.5771 21 16.2885C21 16.7631 20.7484 17 20.2444 17H17.059C17.171 16.7779 17.2269 16.5344 17.2222 16.2885C17.2222 15.57 16.9374 14.8357 16.3987 14.2224C16.2151 14.0133 16.0012 13.8176 15.7595 13.6419ZM17.2827 14.1541C17.7298 14.7868 17.9714 15.5286 17.9778 16.2885H20.2444C20.2444 16.1036 20.1205 15.5557 19.6702 15.062C19.2584 14.6095 18.5429 14.1677 17.2827 14.1541ZM19.8667 10.9526C19.8667 10.3865 19.6279 9.8436 19.2028 9.44332C18.7777 9.04305 18.2012 8.81818 17.6 8.81818C16.9988 8.81818 16.4223 9.04305 15.9972 9.44332C15.5721 9.8436 15.3333 10.3865 15.3333 10.9526C15.3333 11.5186 15.5721 12.0615 15.9972 12.4618C16.4223 12.8621 16.9988 13.087 17.6 13.087C18.2012 13.087 18.7777 12.8621 19.2028 12.4618C19.6279 12.0615 19.8667 11.5186 19.8667 10.9526ZM17.6 9.52964C18.0008 9.52964 18.3851 9.67955 18.6685 9.9464C18.9519 10.2133 19.1111 10.5752 19.1111 10.9526C19.1111 11.3299 18.9519 11.6919 18.6685 11.9587C18.3851 12.2256 18.0008 12.3755 17.6 12.3755C17.1992 12.3755 16.8149 12.2256 16.5315 11.9587C16.2481 11.6919 16.0889 11.3299 16.0889 10.9526C16.0889 10.5752 16.2481 10.2133 16.5315 9.9464C16.8149 9.67955 17.1992 9.52964 17.6 9.52964Z" fill="#4AA9AF"/>
<path d="M9.24053 13.6419C8.9383 13.5523 8.62675 13.4934 8.3112 13.4662C8.13389 13.4503 7.95588 13.4424 7.77778 13.4427C4.75556 13.4427 4 15.5771 4 16.2885C4 16.7631 4.2516 17 4.75556 17H7.94098C7.82897 16.7779 7.77311 16.5344 7.77778 16.2885C7.77778 15.57 8.06262 14.8357 8.60133 14.2224C8.78493 14.0133 8.99876 13.8176 9.24053 13.6419ZM7.71733 14.1541C7.27016 14.7868 7.0286 15.5286 7.02222 16.2885H4.75556C4.75556 16.1036 4.87947 15.5557 5.32978 15.062C5.74156 14.6095 6.45707 14.1677 7.71733 14.1541ZM5.13333 10.9526C5.13333 10.3865 5.37214 9.8436 5.79722 9.44332C6.22231 9.04305 6.79884 8.81818 7.4 8.81818C8.00116 8.81818 8.57769 9.04305 9.00277 9.44332C9.42786 9.8436 9.66667 10.3865 9.66667 10.9526C9.66667 11.5186 9.42786 12.0615 9.00277 12.4618C8.57769 12.8621 8.00116 13.087 7.4 13.087C6.79884 13.087 6.22231 12.8621 5.79722 12.4618C5.37214 12.0615 5.13333 11.5186 5.13333 10.9526ZM7.4 9.52964C6.99923 9.52964 6.61487 9.67955 6.33148 9.9464C6.04809 10.2133 5.88889 10.5752 5.88889 10.9526C5.88889 11.3299 6.04809 11.6919 6.33148 11.9587C6.61487 12.2256 6.99923 12.3755 7.4 12.3755C7.80077 12.3755 8.18513 12.2256 8.46852 11.9587C8.7519 11.6919 8.91111 11.3299 8.91111 10.9526C8.91111 10.5752 8.7519 10.2133 8.46852 9.9464C8.18513 9.67955 7.80077 9.52964 7.4 9.52964Z" fill="#4AA9AF"/>
</svg>
