<svg width="22" height="20" viewBox="0 0 22 20" fill="none" xmlns="http://www.w3.org/2000/svg">
<path d="M16.8571 1.42857C15.9099 1.42857 15.0015 1.80485 14.3318 2.47462C13.662 3.14439 13.2857 4.0528 13.2857 5C13.2857 5.18944 13.2105 5.37112 13.0765 5.50508C12.9425 5.63903 12.7609 5.71429 12.5714 5.71429C12.382 5.71429 12.2003 5.63903 12.0663 5.50508C11.9324 5.37112 11.8571 5.18944 11.8571 5C11.8571 4.01109 12.1504 3.0444 12.6998 2.22215C13.2492 1.3999 14.0301 0.759043 14.9437 0.380604C15.8574 0.00216642 16.8627 -0.0968502 17.8326 0.0960758C18.8025 0.289002 19.6934 0.765206 20.3927 1.46447C21.0919 2.16373 21.5681 3.05464 21.7611 4.02455C21.954 4.99445 21.855 5.99979 21.4765 6.91342C21.0981 7.82705 20.4572 8.60794 19.635 9.15735C18.8127 9.70676 17.846 10 16.8571 10H0.714286C0.524845 10 0.343164 9.92475 0.209209 9.79079C0.0752549 9.65684 0 9.47515 0 9.28571C0 9.09627 0.0752549 8.91459 0.209209 8.78064C0.343164 8.64668 0.524845 8.57143 0.714286 8.57143H16.8571C17.8043 8.57143 18.7127 8.19515 19.3825 7.52538C20.0523 6.85561 20.4286 5.9472 20.4286 5C20.4286 4.0528 20.0523 3.14439 19.3825 2.47462C18.7127 1.80485 17.8043 1.42857 16.8571 1.42857ZM6.85714 2.85714C6.47826 2.85714 6.1149 3.00765 5.84699 3.27556C5.57908 3.54347 5.42857 3.90684 5.42857 4.28572C5.42857 4.47516 5.35331 4.65684 5.21936 4.79079C5.08541 4.92475 4.90372 5 4.71428 5C4.52484 5 4.34316 4.92475 4.20921 4.79079C4.07525 4.65684 4 4.47516 4 4.28572C4 3.72063 4.16757 3.16823 4.48151 2.69837C4.79546 2.22852 5.24169 1.86231 5.76376 1.64606C6.28583 1.42981 6.86031 1.37323 7.41454 1.48347C7.96877 1.59372 8.47787 1.86583 8.87745 2.26541C9.27702 2.66499 9.54914 3.17408 9.65938 3.72831C9.76963 4.28255 9.71305 4.85702 9.4968 5.3791C9.28055 5.90117 8.91434 6.3474 8.44448 6.66134C7.97463 6.97529 7.42223 7.14286 6.85714 7.14286H0.714286C0.524845 7.14286 0.343164 7.0676 0.209209 6.93365C0.0752549 6.79969 0 6.61801 0 6.42857C0 6.23913 0.0752549 6.05745 0.209209 5.9235C0.343164 5.78954 0.524845 5.71429 0.714286 5.71429H6.85714C7.23602 5.71429 7.59938 5.56378 7.86729 5.29587C8.1352 5.02796 8.28571 4.6646 8.28571 4.28572C8.28571 3.90684 8.1352 3.54347 7.86729 3.27556C7.59938 3.00765 7.23602 2.85714 6.85714 2.85714ZM0 12.1429C0 11.9534 0.0752549 11.7717 0.209209 11.6378C0.343164 11.5038 0.524845 11.4286 0.714286 11.4286H12.06C12.9076 11.4286 13.7362 11.6799 14.441 12.1508C15.1458 12.6218 15.6951 13.2911 16.0195 14.0742C16.3439 14.8573 16.4287 15.719 16.2634 16.5504C16.098 17.3817 15.6898 18.1454 15.0905 18.7447C14.4911 19.3441 13.7274 19.7523 12.8961 19.9177C12.0648 20.083 11.203 19.9981 10.4199 19.6738C9.63681 19.3494 8.96748 18.8001 8.49656 18.0953C8.02564 17.3905 7.77428 16.5619 7.77428 15.7143C7.77428 15.5248 7.84954 15.3432 7.98349 15.2092C8.11745 15.0753 8.29913 15 8.48857 15C8.67801 15 8.85969 15.0753 8.99365 15.2092C9.1276 15.3432 9.20285 15.5248 9.20285 15.7143C9.20285 16.2794 9.37042 16.8318 9.68437 17.3016C9.99832 17.7715 10.4445 18.1377 10.9666 18.3539C11.4887 18.5702 12.0632 18.6268 12.6174 18.5165C13.1716 18.4063 13.6807 18.1342 14.0803 17.7346C14.4799 17.335 14.752 16.8259 14.8622 16.2717C14.9725 15.7175 14.9159 15.143 14.6997 14.6209C14.4834 14.0988 14.1172 13.6526 13.6473 13.3387C13.1775 13.0247 12.6251 12.8571 12.06 12.8571H0.714286C0.524845 12.8571 0.343164 12.7819 0.209209 12.6479C0.0752549 12.514 0 12.3323 0 12.1429Z" fill="white"/>
</svg>
