<svg width="12" height="12" viewBox="0 0 12 12" fill="none" xmlns="http://www.w3.org/2000/svg">
<path fill-rule="evenodd" clip-rule="evenodd" d="M1.16683 11.5088C0.899903 11.7692 0.467126 11.7692 0.200197 11.5088C-0.0667323 11.2485 -0.0667322 10.8264 0.200197 10.566L4.8817 5.99998L0.200197 1.43392C-0.0667322 1.17357 -0.0667323 0.751465 0.200197 0.491119C0.467126 0.230772 0.899903 0.230772 1.16683 0.491119L5.84834 5.05718L10.8332 0.19526C11.1001 -0.0650866 11.5329 -0.0650868 11.7998 0.19526C12.0667 0.455607 12.0667 0.877712 11.7998 1.13806L6.81497 5.99998L11.7998 10.8619C12.0667 11.1223 12.0667 11.5444 11.7998 11.8047C11.5329 12.0651 11.1001 12.0651 10.8332 11.8047L5.84834 6.94278L1.16683 11.5088Z" fill="white" fill-opacity="0.8"/>
</svg>
