<svg width="28" height="29" viewBox="0 0 28 29" fill="none" xmlns="http://www.w3.org/2000/svg">
<path d="M0.695443 10.01L13.2998 17.29C13.5799 17.43 13.7199 17.43 14 17.43C14.2801 17.43 14.4201 17.43 14.7002 17.29L27.3046 10.01C27.5847 9.87 27.7247 9.73 27.8647 9.45C28.1448 8.75 28.0048 7.91 27.3046 7.49L14.7002 0.21C14.2801 -0.07 13.7199 -0.07 13.2998 0.21L0.695443 7.49C0.415347 7.63 0.275299 7.77 0.135251 8.05C-0.144845 8.75 -0.00479719 9.59 0.695443 10.01ZM27.3046 13.09L27.0245 12.95L14.7002 20.09C14.2801 20.37 13.7199 20.37 13.2998 20.09L0.975539 12.95L0.695443 13.09C-0.00479719 13.51 -0.144845 14.35 0.135251 15.05C0.275299 15.33 0.415347 15.47 0.695443 15.61L13.2998 22.89C13.7199 23.17 14.2801 23.17 14.7002 22.89L27.3046 15.61C28.0048 15.19 28.1448 14.35 27.8647 13.65C27.7247 13.37 27.5847 13.23 27.3046 13.09ZM27.3046 18.69L27.0245 18.55L14.7002 25.69C14.2801 25.97 13.7199 25.97 13.2998 25.69L0.975539 18.55L0.695443 18.69C-0.00479719 19.11 -0.144845 19.95 0.135251 20.65C0.275299 20.93 0.415347 21.07 0.695443 21.21L13.2998 28.49C13.7199 28.77 14.2801 28.77 14.7002 28.49L27.3046 21.21C28.0048 20.79 28.1448 19.95 27.8647 19.25C27.7247 18.97 27.5847 18.83 27.3046 18.69Z" fill="white"/>
</svg>
